<?xml version="1.0" encoding="utf-8"?>
<!-- Generator: Adobe Illustrator 23.0.0, SVG Export Plug-In . SVG Version: 6.00 Build 0)  -->
<svg version="1.1" id="圖層_1" xmlns="http://www.w3.org/2000/svg" xmlns:xlink="http://www.w3.org/1999/xlink" x="0px" y="0px"
	 viewBox="0 0 838 686" style="enable-background:new 0 0 838 686;" xml:space="preserve">
<style type="text/css">
	.st0{enable-background:new    ;}
	.st1{fill:#5EB1BF;}
	.st2{fill:#042A2B;}
	.st3{fill:#FFBA49;}
</style>
<g class="st0">
	<path class="st1" d="M205.3,307.5h11.5c3,0,5.2-0.3,6.5-0.8c1.3-0.5,2-1.4,2-2.7c0-1.3-0.2-2.3-0.6-3.2h-43
		c-15.9,0-28.1-5-36.5-14.9c-7.7-8.9-11.5-20.9-11.5-36c0-7.9,0.7-14.7,2-20.6c14-12,27-25.7,39-41c6.6-8.5,16.4-22.8,29.4-43h36.2
		c11.8,0,21.5,3.2,29,9.6c7.5,6.4,11.2,15.1,11.2,26.2v54.2h-3c-4.1,0-6.1,1.6-6.1,4.8v1.8h22.8c3.3,8.3,5,17.8,5,28.5
		c0,7.4-1.6,13.8-4.7,19.4c-3.1,5.5-7.9,9-14.2,10.4v21.7c-10.6,7.7-23.4,11.5-38.4,11.5c-15,0-27.2-3.5-36.7-10.6V307.5z
		 M203.8,244.2H219v-19h-3.1c-3.5,6.7-7.5,12.2-12.1,16.3V244.2z"/>
	<path class="st1" d="M607.6,307.5h11.5c3,0,5.2-0.3,6.5-0.8c1.3-0.5,2-1.4,2-2.7c0-1.3-0.2-2.3-0.6-3.2h-43
		c-15.9,0-28.1-5-36.5-14.9c-7.7-8.9-11.5-20.9-11.5-36c0-7.9,0.7-14.7,2-20.6c14-12,27-25.7,39-41c6.6-8.5,16.4-22.8,29.4-43h36.2
		c11.8,0,21.5,3.2,29,9.6c7.5,6.4,11.2,15.1,11.2,26.2v54.2h-3c-4.1,0-6.1,1.6-6.1,4.8v1.8h22.8c3.3,8.3,5,17.8,5,28.5
		c0,7.4-1.6,13.8-4.7,19.4c-3.1,5.5-7.9,9-14.2,10.4v21.7c-10.6,7.7-23.4,11.5-38.4,11.5c-15,0-27.2-3.5-36.7-10.6V307.5z
		 M606.2,244.2h15.2v-19h-3.1c-3.5,6.7-7.5,12.2-12.1,16.3V244.2z"/>
</g>
<g class="st0">
	<g>
		<path class="st2" d="M241.9,334.4c-15.1,0-27.7-3.6-37.3-10.8l-0.4-0.3v-16.8h12.5c2.9,0,5-0.2,6.2-0.7c1.2-0.5,1.4-1.2,1.4-1.8
			c0-0.9-0.1-1.6-0.3-2.2h-42.3c-16.1,0-28.6-5.1-37.2-15.2c-7.8-9-11.7-21.4-11.7-36.7c0-7.9,0.7-14.9,2-20.8l0.1-0.3l0.2-0.2
			c13.9-11.9,27-25.7,38.9-40.9c6.6-8.4,16.4-22.9,29.3-42.9l0.3-0.4h36.7c12,0,22,3.3,29.6,9.8c7.7,6.6,11.6,15.6,11.6,26.9v55.2
			h-3.9c-4.6,0-5.1,2.1-5.1,3.9v0.9h22.5l0.2,0.6c3.3,8.4,5,18.1,5,28.9c0,7.5-1.6,14.2-4.8,19.8c-3.1,5.5-7.9,9.1-14.1,10.7v21.4
			l-0.4,0.3C270.2,330.5,257.1,334.4,241.9,334.4z M206.2,322.3c9.2,6.7,21.2,10.2,35.7,10.2c14.5,0,27.1-3.7,37.4-11v-22l0.8-0.2
			c6-1.4,10.6-4.7,13.6-10c3-5.4,4.6-11.7,4.6-18.9c0-10.3-1.6-19.5-4.7-27.6h-23.2V240c0-2.6,1.2-5.8,7.1-5.8h2V181
			c0-10.7-3.7-19.3-10.9-25.4c-7.3-6.2-16.8-9.3-28.3-9.3h-35.7c-12.8,19.9-22.6,34.2-29.1,42.6c-11.9,15.2-25,29-38.9,40.9
			c-1.3,5.7-1.9,12.4-1.9,20.1c0,14.8,3.8,26.7,11.3,35.4c8.2,9.7,20.2,14.6,35.7,14.6h43.6l0.3,0.6c0.4,1,0.7,2.2,0.7,3.6
			c0,1.2-0.5,2.8-2.6,3.6c-1.4,0.6-3.7,0.8-6.9,0.8h-10.5V322.3z M220,245.1h-17.1V241l0.3-0.3c4.4-4.1,8.4-9.5,11.9-16.1l0.3-0.5
			h4.7V245.1z M204.8,243.2h13.2v-17.1h-1.6c-3.4,6.4-7.3,11.7-11.7,15.8V243.2z"/>
	</g>
	<g>
		<path class="st2" d="M644.3,334.4c-15.1,0-27.7-3.6-37.3-10.8l-0.4-0.3v-16.8h12.5c2.9,0,5-0.2,6.2-0.7c1.2-0.5,1.4-1.2,1.4-1.8
			c0-0.9-0.1-1.6-0.3-2.2H584c-16.1,0-28.6-5.1-37.2-15.2c-7.8-9-11.7-21.4-11.7-36.7c0-7.9,0.7-14.9,2-20.8l0.1-0.3l0.2-0.2
			c13.9-11.9,27-25.7,38.9-40.9c6.6-8.4,16.4-22.9,29.3-42.9l0.3-0.4h36.7c12,0,22,3.3,29.6,9.8c7.7,6.6,11.6,15.6,11.6,26.9v55.2
			h-3.9c-4.6,0-5.1,2.1-5.1,3.9v0.9h22.5l0.2,0.6c3.3,8.4,5,18.1,5,28.9c0,7.5-1.6,14.2-4.8,19.8c-3.1,5.5-7.9,9.1-14.1,10.7v21.4
			l-0.4,0.3C672.5,330.5,659.4,334.4,644.3,334.4z M608.5,322.3c9.2,6.7,21.2,10.2,35.7,10.2c14.5,0,27.1-3.7,37.4-11v-22l0.8-0.2
			c6-1.4,10.6-4.7,13.6-10c3-5.4,4.6-11.7,4.6-18.9c0-10.3-1.6-19.5-4.7-27.6h-23.2V240c0-2.6,1.2-5.8,7.1-5.8h2V181
			c0-10.7-3.7-19.3-10.9-25.4c-7.3-6.2-16.8-9.3-28.3-9.3H607c-12.8,19.9-22.6,34.2-29.1,42.6c-11.9,15.2-25,29-38.9,40.9
			c-1.3,5.7-1.9,12.4-1.9,20.1c0,14.8,3.8,26.7,11.3,35.4c8.2,9.7,20.2,14.6,35.7,14.6h43.6l0.3,0.6c0.4,1,0.6,2.2,0.6,3.6
			c0,1.2-0.5,2.8-2.6,3.6c-1.4,0.6-3.7,0.8-6.9,0.8h-10.5V322.3z M622.3,245.1h-17.1V241l0.3-0.3c4.4-4.1,8.4-9.5,11.9-16.1l0.3-0.5
			h4.7V245.1z M607.1,243.2h13.2v-17.1h-1.6c-3.4,6.4-7.3,11.7-11.7,15.8V243.2z"/>
	</g>
</g>
<g class="st0">
	<path class="st1" d="M84,341h81.9c2.7,4.5,4.8,9.5,6.1,14.8c1.3,5.3,2,10.1,2,14.4c0,9.6-1.9,16.7-5.6,21.6
		c-3.7,4.8-9,7.2-15.7,7.2H95.4c-3.5,0-5.3,1.4-5.3,4.1v1.1c0,0.6,0.1,0.9,0.3,1.1h67.8c1.7,2.9,3.2,6.6,4.4,11.1
		c1.1,4.8,1.7,9.1,1.7,12.9c0,11.3-2.1,20.1-6.2,26.4h-30.8c-14.4,0-24.1,0.5-29.2,1.6c-5.1,1.1-8.3,2-9.5,2.8
		c-1.2,0.9-1.8,1.9-1.8,3.3c0,1.3,0.7,2.4,2,3.1c4.9-1.6,10.1-2.7,15.5-3.4c7.1-0.7,14.8-1,23.1-1h39.9c5.8,8.1,8.7,17.9,8.7,29.4
		c0,6.4-0.8,12.6-2.4,18.4c-1.6,5.9-4,10.6-7.2,14.2H60c-11.7,0-21.1-2.8-28.2-8.5c-7.8-6.1-11.6-14.9-11.6-26.7V354
		c0-4.5,5.2-7.9,15.6-9.9C46.1,342,62.2,341,84,341z"/>
	<path class="st1" d="M231,525.9c-11.3,0-20.2-2-27-6.1c-7.5-4.3-11.2-10.5-11.2-18.9v-73.1c-5.6-7.9-8.4-17.5-8.4-29
		c0-11.5,2.8-21.5,8.4-29.9h21.7c11.2,0,19.2,3.6,24,10.8c-2.4,2.7-4.4,6-6.2,10.1c-1.8,4.1-2.7,7-2.7,8.7c0,1.8,0.4,3.1,1.3,3.9
		c0.9,0.9,2.2,1.3,3.9,1.3c3.3-13.1,9.6-22.8,18.9-29c7.7-5.2,17.1-7.8,28.4-7.8c14,0,25,3,32.9,8.9c2.8,7.6,4.3,16.8,4.3,27.7
		c0,10.9-2.2,20.8-6.5,29.7c-3.2,1.7-7.7,3.1-13.3,4.3c-5.7,1.2-11.4,1.8-17.2,1.8c-5.8,0-11-0.4-15.5-1.2c-4.6-0.8-7.9-1.5-10-2.2
		c-0.8,0.8-1.1,1.8-1.1,3.3s0.9,2.5,2.8,3.2c1.8,0.7,4.9,1.5,9.3,2.3v71.2C257.3,522.6,245.1,525.9,231,525.9z"/>
	<path class="st1" d="M378.6,525.9c-11.3,0-20.2-2-27-6.1c-7.5-4.3-11.2-10.5-11.2-18.9v-73.1c-5.6-7.9-8.4-17.5-8.4-29
		c0-11.5,2.8-21.5,8.4-29.9h21.7c11.2,0,19.2,3.6,24,10.8c-2.4,2.7-4.4,6-6.2,10.1c-1.8,4.1-2.7,7-2.7,8.7c0,1.8,0.4,3.1,1.3,3.9
		c0.9,0.9,2.2,1.3,3.9,1.3c3.3-13.1,9.6-22.8,18.9-29c7.7-5.2,17.1-7.8,28.4-7.8c14,0,25,3,32.9,8.9c2.8,7.6,4.3,16.8,4.3,27.7
		c0,10.9-2.2,20.8-6.5,29.7c-3.2,1.7-7.7,3.1-13.3,4.3c-5.7,1.2-11.4,1.8-17.2,1.8c-5.8,0-11-0.4-15.5-1.2c-4.6-0.8-7.9-1.5-10-2.2
		c-0.8,0.8-1.1,1.8-1.1,3.3s0.9,2.5,2.8,3.2c1.8,0.7,4.9,1.5,9.3,2.3v71.2C404.9,522.6,392.7,525.9,378.6,525.9z"/>
	<path class="st1" d="M732.6,525.9c-11.3,0-20.2-2-27-6.1c-7.5-4.3-11.2-10.5-11.2-18.9v-73.1c-5.6-7.9-8.4-17.5-8.4-29
		c0-11.5,2.8-21.5,8.4-29.9h21.7c11.2,0,19.2,3.6,24,10.8c-2.4,2.7-4.4,6-6.2,10.1c-1.8,4.1-2.7,7-2.7,8.7c0,1.8,0.4,3.1,1.3,3.9
		c0.9,0.9,2.2,1.3,3.9,1.3c3.3-13.1,9.6-22.8,18.9-29c7.7-5.2,17.1-7.8,28.4-7.8c14,0,25,3,32.9,8.9c2.8,7.6,4.3,16.8,4.3,27.7
		c0,10.9-2.2,20.8-6.5,29.7c-3.2,1.7-7.7,3.1-13.3,4.3c-5.7,1.2-11.4,1.8-17.2,1.8c-5.8,0-11-0.4-15.5-1.2c-4.6-0.8-7.9-1.5-10-2.2
		c-0.8,0.8-1.1,1.8-1.1,3.3s0.9,2.5,2.8,3.2c1.8,0.7,4.9,1.5,9.3,2.3v71.2C758.9,522.6,746.7,525.9,732.6,525.9z"/>
</g>
<g class="st0">
	<g>
		<path class="st2" d="M166.7,525.2H60c-11.9,0-21.6-2.9-28.8-8.7c-8-6.2-12-15.4-12-27.4V354c0-5.1,5.4-8.7,16.4-10.9
			c10.4-2.1,26.7-3.1,48.4-3.1h82.4l0.3,0.5c2.8,4.6,4.9,9.7,6.2,15.1c1.3,5.4,2,10.3,2,14.6c0,9.7-2,17.2-5.8,22.2
			c-3.9,5.1-9.4,7.6-16.4,7.6H95.4c-3.8,0-4.3,1.7-4.3,3.1v1.1c0,0.1,0,0.1,0,0.2h67.7l0.3,0.5c1.7,3,3.2,6.8,4.5,11.3
			c1.2,4.9,1.7,9.3,1.7,13.2c0,11.4-2.2,20.5-6.4,26.9l-0.3,0.4h-31.3c-14.2,0-24,0.5-29,1.6c-6.2,1.3-8.4,2.2-9.2,2.6
			c-0.9,0.6-1.4,1.4-1.4,2.4c0,0.9,0.4,1.5,1.1,2.1c4.8-1.5,9.9-2.7,15.2-3.3c7.1-0.7,15-1,23.3-1h40.4l0.3,0.4
			c5.9,8.3,8.8,18.3,8.8,29.9c0,6.5-0.8,12.8-2.4,18.7c-1.6,6-4.1,10.9-7.5,14.6L166.7,525.2z M84,342c-21.6,0-37.8,1-48.1,3.1
			c-9.8,2-14.8,5-14.8,9v135c0,11.4,3.8,20.1,11.3,25.9c6.9,5.5,16.2,8.3,27.6,8.3h105.9c3-3.4,5.2-8,6.7-13.5
			c1.6-5.8,2.4-11.9,2.4-18.2c0-11-2.8-20.6-8.2-28.4h-39.4c-8.2,0-16,0.3-23,1c-5.3,0.6-10.4,1.8-15.3,3.4l-0.4,0.1l-0.4-0.2
			c-2-1.2-2.5-2.8-2.5-4c0-1.7,0.8-3,2.3-4.1c1.4-0.8,4.6-1.8,9.9-2.9c5.2-1.1,15.1-1.7,29.4-1.7h30.3c3.9-6.1,5.8-14.7,5.8-25.4
			c0-3.7-0.6-8-1.7-12.7c-1.1-4.1-2.5-7.6-4-10.3H90.1l-0.3-0.3c-0.5-0.5-0.6-1.3-0.6-1.8v-1.1c0-1.9,0.8-5.1,6.2-5.1h57.2
			c6.5,0,11.3-2.2,14.9-6.9c3.6-4.6,5.4-11.7,5.4-21c0-4.2-0.7-8.9-2-14.2c-1.3-5-3.2-9.8-5.7-14.1H84z"/>
	</g>
	<g>
		<path class="st2" d="M231,526.9c-11.4,0-20.6-2.1-27.5-6.2c-7.7-4.4-11.7-11-11.7-19.7v-72.8c-5.6-7.9-8.4-17.8-8.4-29.3
			c0-11.6,2.9-21.9,8.5-30.4l0.3-0.4h22.2c11.5,0,19.8,3.8,24.8,11.2l0.4,0.6l-0.5,0.6c-2.3,2.6-4.3,5.9-6.1,9.8
			c-1.7,3.9-2.6,6.7-2.6,8.3c0,1.5,0.4,2.5,1,3.2c0.6,0.6,1.4,0.9,2.5,1c3.4-12.9,9.8-22.6,19.1-28.8c7.8-5.3,17.5-8,28.9-8
			c14.2,0,25.4,3.1,33.5,9.1l0.2,0.2l0.1,0.3c2.9,7.6,4.3,17.1,4.3,28.1c0,11-2.2,21.2-6.6,30.2l-0.1,0.3l-0.3,0.1
			c-3.3,1.7-7.9,3.2-13.6,4.4c-5.7,1.2-11.6,1.8-17.4,1.8c-5.8,0-11.1-0.4-15.7-1.2c-4.2-0.7-7.4-1.4-9.5-2
			c-0.3,0.5-0.5,1.2-0.5,2.1c0,0.6,0.2,1.5,2.1,2.3c1.8,0.7,4.9,1.5,9.1,2.3l0.8,0.2v72.6l-0.5,0.3
			C257.7,523.5,245.2,526.9,231,526.9z M193.4,369.9c-5.3,8.1-7.9,17.9-7.9,28.9c0,11.2,2.8,20.8,8.2,28.5l0.2,0.3v73.4
			c0,8,3.5,13.9,10.7,18c6.6,4,15.5,6,26.5,6c13.6,0,25.6-3.1,35.6-9.4v-69.9c-4-0.8-6.9-1.5-8.7-2.2c-2.8-1.1-3.4-2.8-3.4-4.1
			c0-1.7,0.5-3,1.4-3.9l0.4-0.4l0.6,0.2c2,0.6,5.4,1.4,9.9,2.2c4.5,0.8,9.7,1.2,15.4,1.2c5.7,0,11.4-0.6,17-1.8
			c5.4-1.1,9.7-2.5,12.8-4.1c4.2-8.6,6.3-18.4,6.3-29c0-10.6-1.4-19.8-4.1-27.1c-7.7-5.7-18.5-8.6-32.1-8.6c-11,0-20.4,2.6-27.8,7.6
			c-9,6-15.2,15.5-18.5,28.4l-0.2,0.7h-0.8c-2,0-3.5-0.5-4.6-1.5c-1.1-1-1.7-2.6-1.7-4.6c0-1.9,0.9-4.9,2.8-9.1
			c1.7-3.9,3.7-7.1,5.9-9.8c-4.7-6.5-12.3-9.8-22.8-9.8H193.4z"/>
	</g>
	<g>
		<path class="st2" d="M378.6,526.9c-11.4,0-20.6-2.1-27.5-6.2c-7.7-4.4-11.7-11-11.7-19.7v-72.8c-5.6-7.9-8.4-17.8-8.4-29.3
			c0-11.6,2.9-21.9,8.5-30.4l0.3-0.4h22.2c11.5,0,19.8,3.8,24.8,11.2l0.4,0.6l-0.5,0.6c-2.3,2.6-4.3,5.9-6.1,9.8
			c-1.7,3.9-2.6,6.7-2.6,8.3c0,1.5,0.4,2.5,1,3.2c0.6,0.6,1.4,0.9,2.5,1c3.4-12.9,9.8-22.6,19.1-28.8c7.8-5.3,17.5-8,28.9-8
			c14.2,0,25.4,3.1,33.5,9.1l0.2,0.2l0.1,0.3c2.9,7.6,4.3,17.1,4.3,28.1c0,11-2.2,21.2-6.6,30.2l-0.1,0.3l-0.3,0.1
			c-3.3,1.7-7.9,3.2-13.6,4.4c-5.7,1.2-11.6,1.8-17.4,1.8c-5.8,0-11.1-0.4-15.7-1.2c-4.2-0.7-7.4-1.4-9.5-2
			c-0.3,0.5-0.5,1.2-0.5,2.1c0,0.6,0.2,1.5,2.1,2.3c1.8,0.7,4.9,1.5,9.1,2.3l0.8,0.2v72.6l-0.5,0.3
			C405.4,523.5,392.9,526.9,378.6,526.9z M341,369.9c-5.3,8.1-7.9,17.9-7.9,28.9c0,11.2,2.8,20.8,8.2,28.5l0.2,0.3v73.4
			c0,8,3.5,13.9,10.7,18c6.6,4,15.5,6,26.5,6c13.6,0,25.6-3.1,35.6-9.4v-69.9c-4-0.8-6.9-1.5-8.7-2.2c-2.8-1.1-3.4-2.8-3.4-4.1
			c0-1.7,0.5-3,1.4-3.9l0.4-0.4l0.6,0.2c2,0.6,5.4,1.4,9.9,2.2c4.5,0.8,9.7,1.2,15.4,1.2c5.7,0,11.4-0.6,17-1.8
			c5.4-1.1,9.7-2.5,12.8-4.1c4.2-8.6,6.3-18.4,6.3-29c0-10.6-1.4-19.8-4.1-27.1c-7.7-5.7-18.5-8.6-32.1-8.6c-11,0-20.4,2.6-27.8,7.6
			c-9,6-15.2,15.5-18.5,28.4l-0.2,0.7h-0.8c-2,0-3.5-0.5-4.6-1.5c-1.1-1-1.7-2.6-1.7-4.6c0-1.9,0.9-4.9,2.8-9.1
			c1.7-3.9,3.7-7.1,5.9-9.8c-4.7-6.5-12.3-9.8-22.8-9.8H341z"/>
	</g>
	<g>
		<path class="st2" d="M732.6,526.9c-11.4,0-20.6-2.1-27.5-6.2c-7.7-4.4-11.7-11-11.7-19.7v-72.8c-5.6-7.9-8.4-17.8-8.4-29.3
			c0-11.6,2.9-21.9,8.5-30.4l0.3-0.4h22.2c11.5,0,19.8,3.8,24.8,11.2l0.4,0.6l-0.5,0.6c-2.3,2.6-4.3,5.9-6.1,9.8
			c-1.7,3.9-2.6,6.7-2.6,8.3c0,1.5,0.4,2.5,1,3.2c0.6,0.6,1.4,0.9,2.5,1c3.4-12.9,9.8-22.6,19.1-28.8c7.8-5.3,17.5-8,28.9-8
			c14.2,0,25.4,3.1,33.5,9.1l0.2,0.2l0.1,0.3c2.9,7.6,4.3,17.1,4.3,28.1c0,11-2.2,21.2-6.6,30.2l-0.1,0.3l-0.3,0.1
			c-3.3,1.7-7.9,3.2-13.6,4.4c-5.7,1.2-11.6,1.8-17.4,1.8c-5.8,0-11.1-0.4-15.7-1.2c-4.2-0.7-7.4-1.4-9.5-2
			c-0.3,0.5-0.5,1.2-0.5,2.1c0,0.6,0.2,1.5,2.1,2.3c1.8,0.7,4.9,1.5,9.1,2.3l0.8,0.2v72.6l-0.5,0.3
			C759.3,523.5,746.8,526.9,732.6,526.9z M694.9,369.9c-5.3,8.1-7.9,17.9-7.9,28.9c0,11.2,2.8,20.8,8.2,28.5l0.2,0.3v73.4
			c0,8,3.5,13.9,10.7,18c6.6,4,15.5,6,26.5,6c13.6,0,25.6-3.1,35.6-9.4v-69.9c-4-0.8-6.9-1.5-8.7-2.2c-2.8-1.1-3.4-2.8-3.4-4.1
			c0-1.7,0.5-3,1.4-3.9l0.4-0.4l0.6,0.2c2,0.6,5.4,1.4,9.9,2.2c4.5,0.8,9.7,1.2,15.4,1.2c5.7,0,11.4-0.6,17-1.8
			c5.4-1.1,9.7-2.5,12.8-4.1c4.2-8.6,6.3-18.4,6.3-29c0-10.6-1.4-19.8-4.1-27.1c-7.7-5.7-18.5-8.6-32.1-8.6c-11,0-20.4,2.6-27.8,7.6
			c-9,6-15.2,15.5-18.5,28.4l-0.2,0.7h-0.8c-2,0-3.5-0.5-4.6-1.5c-1.1-1-1.7-2.6-1.7-4.6c0-1.9,0.9-4.9,2.8-9.1
			c1.7-3.9,3.7-7.1,5.9-9.8c-4.7-6.5-12.3-9.8-22.8-9.8H694.9z"/>
	</g>
</g>
<g id="Group_85" transform="translate(-251.164 -57.164)">
	<g id="Ellipse_41" transform="translate(1043 527)">
		<circle class="st1" cx="-216.8" cy="-21.3" r="86.4"/>
		<g>
			<path class="st2" d="M-216.8,65c-47.6,0-86.4-38.8-86.4-86.4s38.8-86.4,86.4-86.4s86.4,38.8,86.4,86.4S-169.2,65-216.8,65z
				 M-216.8-105.8c-46.6,0-84.4,37.9-84.4,84.4s37.9,84.4,84.4,84.4s84.4-37.9,84.4-84.4S-170.2-105.8-216.8-105.8z"/>
		</g>
	</g>
	<g id="Group_83" transform="translate(1087.939 588.702)">
		<g id="Group_81">
			<g id="Line_20">
				
					<rect x="-292.1" y="-115.2" transform="matrix(0.7071 -0.7071 0.7071 0.7071 -17.263 -234.0174)" class="st2" width="1.9" height="38.1"/>
			</g>
			<g id="Line_21">
				
					<rect x="-310.2" y="-97.1" transform="matrix(0.7071 -0.7071 0.7071 0.7071 -17.263 -234.0174)" class="st2" width="38.1" height="1.9"/>
			</g>
		</g>
		<g id="Group_82" transform="translate(61.345)">
			<g id="Line_20-2">
				
					<rect x="-294" y="-115.2" transform="matrix(0.7071 -0.7071 0.7071 0.7071 -17.825 -235.3732)" class="st2" width="1.9" height="38.1"/>
			</g>
			<g id="Line_21-2">
				
					<rect x="-312.1" y="-97.1" transform="matrix(0.7071 -0.7071 0.7071 0.7071 -17.8226 -235.3684)" class="st2" width="38.1" height="1.9"/>
			</g>
		</g>
	</g>
	<g id="Group_84" transform="translate(1088.652 643.269)">
		<g id="Line_22">
			<rect x="-304.6" y="-112" class="st2" width="82.7" height="1.9"/>
		</g>
		<g id="Path_168" transform="translate(40.318 -27.999)">
			<path class="st3" d="M-283.4-60.4c-3.6,0-7-1.2-10-3.6c-2.5-1.9-4.7-4.6-6.7-8c-2.6-4.5-4-8.9-4.5-11c0,0,0.1,0,0.1,0
				c0.8,0,2,0,3.4,0c0,0,0,0,0,0c3.5,0,8.3,0,12.1,0c2.5,0,4.6,0,5.6,0c0.5,0,0.6,0,0.6,0c0,0,0,0-0.1,0c0.1,0,0.2,0,0.5,0
				c0.3,0,0.7,0,1.2,0c1,0,2.4,0,4,0c5,0,12.1,0,14.9,0c-0.6,2-2,6.5-4.4,10.8c-2,3.4-4.2,6.2-6.7,8.1
				C-276.4-61.6-279.8-60.4-283.4-60.4z"/>
			<path class="st2" d="M-282.9-82c0.1,0,0.1,0,0.2,0c0,0-0.3,0-0.6,0c-1,0-3.1,0-5.6,0c-3.8,0-8.6,0-12.1,0c-0.8,0-1.6,0-2.2,0
				c0.7,2.3,2,6,4.1,9.6c1.9,3.3,4,5.9,6.4,7.7c2.8,2.2,6,3.3,9.4,3.3c1.8,0,3.5-0.3,5.2-0.9c1.5-0.6,2.9-1.4,4.3-2.5
				c2.4-1.9,4.5-4.5,6.4-7.8c2-3.6,3.3-7.2,4-9.4c-3.3,0-9.2,0-13.6,0c-1.6,0-3,0-4,0c-0.5,0-0.9,0-1.2,0
				C-282.6-82-282.8-82-282.9-82 M-283.4-84c0.4,0,0.6,0,0.6,0c0,0,2.4,0,5.7,0c6.5,0,16.1,0,16.1,0s-5.4,24.5-22.5,24.5
				c-17.1,0-22.5-24.5-22.5-24.5c0,0,0,0,0,0c0,0,2,0,4.8,0C-295.3-84-285.9-84-283.4-84z"/>
		</g>
		<g id="Line_23">
			<rect x="-244.1" y="-110.9" class="st2" width="1.9" height="12.4"/>
		</g>
	</g>
</g>
<g id="Group_86" transform="translate(-412.164 -300.164)">
	<g id="Ellipse_41-2" transform="translate(1043 527)">
		<g>
			<path class="st2" d="M-211.8,102.3c-47.6,0-86.4-38.8-86.4-86.4s38.8-86.4,86.4-86.4s86.4,38.8,86.4,86.4
				S-164.2,102.3-211.8,102.3z M-211.8-68.6c-46.6,0-84.4,37.9-84.4,84.4s37.9,84.4,84.4,84.4s84.4-37.9,84.4-84.4
				S-165.2-68.6-211.8-68.6z"/>
		</g>
	</g>
	<g id="Group_83-2" transform="translate(1087.939 588.702)">
		<g id="Group_81-2">
			<g id="Line_20-3">
				
					<rect x="-287.1" y="-78" transform="matrix(0.7071 -0.7071 0.7071 0.7071 -42.1011 -219.5747)" class="st2" width="1.9" height="38.1"/>
			</g>
			<g id="Line_21-3">
				
					<rect x="-305.2" y="-59.9" transform="matrix(0.7071 -0.7071 0.7071 0.7071 -42.1011 -219.5747)" class="st2" width="38.1" height="1.9"/>
			</g>
		</g>
		<g id="Group_82-2" transform="translate(61.345)">
			<g id="Line_20-4">
				
					<rect x="-289" y="-78" transform="matrix(0.7071 -0.7071 0.7071 0.7071 -42.6621 -220.9277)" class="st2" width="1.9" height="38.1"/>
			</g>
			<g id="Line_21-4">
				
					<rect x="-307.1" y="-59.9" transform="matrix(0.7071 -0.7071 0.7071 0.7071 -42.6607 -220.9256)" class="st2" width="38.1" height="1.9"/>
			</g>
		</g>
	</g>
	<g id="Group_84-2" transform="translate(1088.652 643.269)">
		<g id="Line_22-2">
			<rect x="-299.6" y="-74.8" class="st2" width="82.6" height="1.9"/>
		</g>
		<g id="Path_168-2" transform="translate(40.318 -27.999)">
			<path class="st1" d="M-278.4-23.2c-3.6,0-7-1.2-10-3.6c-2.5-1.9-4.7-4.6-6.7-8c-2.6-4.5-4-8.9-4.5-11c0,0,0.1,0,0.1,0
				c0.8,0,2,0,3.4,0c0,0,0,0,0,0c3.5,0,8.3,0,12.1,0c2.5,0,4.6,0,5.6,0c0.5,0,0.6,0,0.6,0c0,0,0,0-0.1,0c0.1,0,0.2,0,0.5,0
				c0.3,0,0.7,0,1.2,0c1,0,2.4,0,4,0c5,0,12.1,0,14.9,0c-0.6,2-2,6.5-4.4,10.8c-2,3.4-4.2,6.2-6.7,8.1
				C-271.3-24.4-274.7-23.2-278.4-23.2z"/>
			<path class="st2" d="M-277.9-44.8c0.1,0,0.1,0,0.2,0c0,0-0.3,0-0.6,0c-1,0-3.1,0-5.6,0c-3.8,0-8.6,0-12.1,0c-0.8,0-1.6,0-2.2,0
				c0.7,2.3,2,6,4.1,9.6c1.9,3.3,4,5.9,6.4,7.7c2.8,2.2,6,3.3,9.4,3.3c1.8,0,3.5-0.3,5.2-0.9c1.5-0.6,2.9-1.4,4.3-2.5
				c2.4-1.9,4.5-4.5,6.4-7.8c2-3.6,3.3-7.2,4-9.4c-3.3,0-9.2,0-13.6,0c-1.6,0-3,0-4,0c-0.5,0-0.9,0-1.2,0
				C-277.6-44.8-277.8-44.8-277.9-44.8 M-278.4-46.8c0.4,0,0.6,0,0.6,0c0,0,2.4,0,5.7,0c6.5,0,16.1,0,16.1,0s-5.4,24.5-22.5,24.5
				c-17.1,0-22.5-24.5-22.5-24.5c0,0,0,0,0,0c0,0,2,0,4.8,0C-290.3-46.8-280.9-46.8-278.4-46.8z"/>
		</g>
		<g id="Line_23-2">
			<rect x="-239.1" y="-73.7" class="st2" width="1.9" height="12.4"/>
		</g>
	</g>
</g>
</svg>
