<?xml version="1.0" encoding="utf-8"?>
<!-- Generator: Adobe Illustrator 23.0.0, SVG Export Plug-In . SVG Version: 6.00 Build 0)  -->
<svg version="1.1" id="圖層_1" xmlns="http://www.w3.org/2000/svg" xmlns:xlink="http://www.w3.org/1999/xlink" x="0px" y="0px"
	 viewBox="0 0 32.1 13.7" style="enable-background:new 0 0 32.1 13.7;" xml:space="preserve">
<style type="text/css">
	.st0{enable-background:new    ;}
	.st1{fill:#042A2B;}
</style>
<g id="closeeye" transform="translate(-390.926 -656.796)" class="st0">
	<g id="Line_17">
		<rect x="406" y="664.5" class="st1" width="1" height="6"/>
	</g>
	<g id="Line_18">
		
			<rect x="397.46" y="666.5" transform="matrix(0.7071 -0.7071 0.7071 0.7071 -354.1901 478.9098)" class="st1" width="7.07" height="1"/>
	</g>
	<g id="Line_19">
		
			<rect x="411.5" y="663.46" transform="matrix(0.7071 -0.7071 0.7071 0.7071 -350.9682 486.688)" class="st1" width="1" height="7.07"/>
	</g>
	<g id="Path_160">
		<path class="st1" d="M407.22,664.96c-14.7,0-16.23-7.67-16.29-7.99l0.98-0.18l-0.49,0.09l0.49-0.09
			c0.01,0.07,1.51,7.17,15.31,7.17c13.77,0,14.77-6.85,14.81-7.14l0.99,0.11C422.98,657.27,421.94,664.96,407.22,664.96z"/>
	</g>
</g>
</svg>
