<svg xmlns="http://www.w3.org/2000/svg" width="158.887" height="86.489" viewBox="0 0 158.887 86.489">
  <g id="land" transform="translate(-872.565 -156.258)">
    <g id="Union_4" data-name="Union 4" transform="translate(872.565 184.9)" fill="#5eb1bf">
      <path d="M 79.44302368164063 56.84753036499023 C 68.85482025146484 56.84753036499023 58.57896423339844 56.09848785400391 48.90092086791992 54.62123870849609 C 39.56881713867188 53.19678115844727 31.17588043212891 51.15782165527344 23.95521354675293 48.56098937988281 C 16.78933906555176 45.98388290405273 11.14542198181152 42.99121856689453 7.180192470550537 39.66611480712891 C 3.211505174636841 36.33811187744141 1.134296894073486 32.84142684936523 1.00627601146698 29.27321815490723 L 1.00000524520874 29.0983943939209 L 1.00000524520874 28.92365455627441 L 1.00000524520874 17.19761276245117 L 8.083004951477051 17.19761276245117 L 8.413421630859375 17.19761276245117 L 8.678796768188477 17.00075912475586 C 15.01985931396484 12.29682159423828 24.84379768371582 8.311509132385254 37.08854675292969 5.475655078887939 C 49.73117065429688 2.547655344009399 64.37710571289063 1.000009417533875 79.44302368164063 1.000009417533875 C 94.50896453857422 1.000009417533875 109.1549606323242 2.547655344009399 121.7976913452148 5.475655078887939 C 134.0425872802734 8.311509132385254 143.8666229248047 12.29682159423828 150.2077789306641 17.00075912475586 L 150.47314453125 17.19761276245117 L 150.8035736083984 17.19761276245117 L 157.88671875 17.19761276245117 L 157.88671875 29.09897422790527 L 157.8804626464844 29.27321815490723 C 157.75244140625 32.84142684936523 155.6751861572266 36.33809280395508 151.7064361572266 39.66611480712891 C 147.7411499023438 42.99119567871094 142.0971527099609 45.98388290405273 134.9311981201172 48.56098937988281 C 127.7104415893555 51.15780258178711 119.3173980712891 53.19675827026367 109.985237121582 54.62123870849609 C 100.3071060180664 56.09848785400391 90.03123474121094 56.84753036499023 79.44302368164063 56.84753036499023 Z" stroke="none"/>
      <path d="M 79.44303131103516 55.84751892089844 C 89.98088073730469 55.84751892089844 100.2060089111328 55.10234451293945 109.8343353271484 53.63267135620117 C 119.1027755737305 52.21795654296875 127.4327087402344 50.19497680664063 134.5927734375 47.61999893188477 C 138.0909423828125 46.36195373535156 141.2678833007813 44.98032379150391 144.0353546142578 43.51351928710938 C 146.7885284423828 42.05427932739258 149.1532897949219 40.50202178955078 151.0639038085938 38.89986801147461 C 154.8064880371094 35.76152038574219 156.7636566162109 32.51058578491211 156.881103515625 29.23736763000488 L 156.8867340087891 29.08046340942383 L 156.8867340087891 18.19762992858887 L 150.8035736083984 18.19762992858887 L 150.1427459716797 18.19762992858887 L 149.6120147705078 17.80391120910645 C 146.5359039306641 15.52202033996582 142.5791473388672 13.39193344116211 137.8516387939453 11.472825050354 C 133.0840759277344 9.537455558776855 127.6068344116211 7.847498416900635 121.5720748901367 6.449868202209473 C 109.0021667480469 3.538737773895264 94.43418884277344 1.999998569488525 79.44303131103516 1.999998569488525 C 64.45188140869141 1.999998569488525 49.88394546508789 3.538737773895264 37.31416320800781 6.449868202209473 C 31.27944564819336 7.847498416900635 25.80227279663086 9.537455558776855 21.0347728729248 11.472825050354 C 16.30733680725098 13.39193344116211 12.35062026977539 15.52202033996582 9.274577140808105 17.80391120910645 L 8.743815422058105 18.19762992858887 L 8.082989692687988 18.19762992858887 L 2.000011444091797 18.19762992858887 L 2.000011444091797 28.92365074157715 L 2.000011444091797 29.08046340942383 L 2.005641937255859 29.23736763000488 C 2.123076677322388 32.5106086730957 4.080228805541992 35.76154327392578 7.822729110717773 38.89986801147461 C 9.73333740234375 40.50202178955078 12.09803295135498 42.05427932739258 14.85118579864502 43.51351928710938 C 17.61861991882324 44.98032379150391 20.79551124572754 46.36195373535156 24.29362106323242 47.61999893188477 C 31.45359802246094 50.19499969482422 39.78346633911133 52.21795654296875 49.05181503295898 53.63267135620117 C 58.68009948730469 55.10234451293945 68.90518188476563 55.84751892089844 79.44303131103516 55.84751892089844 M 79.44303131103516 57.84751892089844 C 35.92111968994141 57.84751892089844 0.5736637115478516 45.10558700561523 0.006924592424184084 29.30908584594727 L 1.154891288024373e-05 29.30908584594727 L 1.154891288024373e-05 28.92365074157715 L 1.154891288024373e-05 16.19762992858887 L 8.082989692687988 16.19762992858887 C 21.01466369628906 6.604629039764404 48.11109924316406 -1.40911595281068e-06 79.44303131103516 -1.40911595281068e-06 C 110.7749252319336 -1.40911595281068e-06 137.8717041015625 6.604629039764404 150.8035736083984 16.19762992858887 L 158.8867340087891 16.19762992858887 L 158.8867340087891 29.30908584594727 L 158.8798217773438 29.30908584594727 C 158.3130798339844 45.10558700561523 122.9649276733398 57.84751892089844 79.44303131103516 57.84751892089844 Z" stroke="none" fill="#042a2b"/>
    </g>
    <g id="Ellipse_40" data-name="Ellipse 40" transform="translate(872.565 172.559)" fill="#ffba49" stroke="#042a2b" stroke-width="2">
      <ellipse cx="79.443" cy="28.924" rx="79.443" ry="28.924" stroke="none"/>
      <ellipse cx="79.443" cy="28.924" rx="78.443" ry="27.924" fill="none"/>
    </g>
    <g id="Union_3" data-name="Union 3" transform="translate(889.439 155.667)" fill="#5eb1bf" stroke-linecap="round" stroke-linejoin="round">
      <path d="M 115.1235046386719 56.63330078125 L 45.32040023803711 56.63330078125 C 44.98110198974609 56.63330078125 44.64171981811523 56.61339950561523 44.31166839599609 56.57416534423828 L 44.18550109863281 56.55918502807617 L 44.05958557128906 56.57621765136719 C 43.7795524597168 56.61410140991211 43.49095153808594 56.63330078125 43.20180130004883 56.63330078125 L 8.136001586914063 56.63330078125 C 6.907084941864014 56.63330078125 5.743018627166748 56.28345108032227 4.769651889801025 55.62156677246094 C 3.856018543243408 55.00030136108398 3.127718448638916 54.12603378295898 2.663485050201416 53.09329986572266 C 2.199301719665527 52.06061553955078 2.028901815414429 50.93569946289063 2.170735120773315 49.84011840820313 C 2.321835279464722 48.67290115356445 2.832868576049805 47.57016754150391 3.648601770401001 46.65111541748047 L 21.1815357208252 26.89516639709473 C 22.31946563720703 25.61311149597168 23.95535850524902 24.87768363952637 25.6692943572998 24.87768363952637 C 25.66939735412598 24.87768363952637 25.66924667358398 24.87768363952637 25.66935157775879 24.87768363952637 C 27.38340187072754 24.87766647338867 29.01916885375977 25.61303329467773 30.15720176696777 26.89521789550781 L 41.3009033203125 39.45181655883789 L 42.04611968994141 40.29153442382813 L 42.79436874389648 39.45451736450195 L 74.25753784179688 4.25926685333252 C 75.77360534667969 2.563616991043091 77.94755554199219 1.591083645820618 80.22195434570313 1.591083645820618 C 82.49635314941406 1.591083645820618 84.67030334472656 2.563616991043091 86.18641662597656 4.259333610534668 L 121.0874710083008 43.30126571655273 C 122.181037902832 44.52450180053711 122.8679656982422 45.99563217163086 123.0740051269531 47.55559921264648 C 123.267219543457 49.01848220825195 123.0431823730469 50.52083206176758 122.4260864257813 51.90023422241211 C 121.8089981079102 53.27963256835938 120.8383178710938 54.44793319702148 119.6189651489258 55.27886581420898 C 118.3187026977539 56.16495132446289 116.7641830444336 56.63330078125 115.1235046386719 56.63330078125 Z" stroke="none"/>
      <path d="M 115.1235122680664 55.63330078125 C 116.5830383300781 55.63330078125 117.9060745239258 55.23602676391602 119.0558547973633 54.45249938964844 C 120.1220932006836 53.72589874267578 120.9718551635742 52.7021369934082 121.5132751464844 51.49188232421875 C 122.0546951293945 50.28160858154297 122.2515869140625 48.96573638916016 122.0826187133789 47.68655395507813 C 121.9004211425781 46.3071174621582 121.3147811889648 45.05595397949219 120.341926574707 43.96773529052734 L 85.44092559814453 4.925863742828369 C 84.11429595947266 3.442082166671753 82.21205902099609 2.591082096099854 80.22194671630859 2.591082096099854 C 78.23183441162109 2.591082096099854 76.32960510253906 3.442082166671753 75.00305938720703 4.925755023956299 L 43.53989410400391 40.12100982666016 C 43.16042709350586 40.54550933837891 42.61812973022461 40.78806686401367 42.04885864257813 40.78806686401367 C 42.04767608642578 40.78806686401367 42.04640579223633 40.78806686401367 42.04521942138672 40.78806304931641 C 41.47465515136719 40.78702926635742 40.93169403076172 40.54235458374023 40.5529670715332 40.11560821533203 L 29.40931129455566 27.55904579162598 C 28.46089363098145 26.49051856994629 27.09772872924805 25.87768173217773 25.66934776306152 25.87768173217773 C 24.24096488952637 25.87768173217773 22.8778018951416 26.49051856994629 21.92947387695313 27.5589542388916 L 4.396492958068848 47.31493759155273 C 3.704692840576172 48.0943717956543 3.289492845535278 48.98715591430664 3.162456274032593 49.96850204467773 C 3.044383764266968 50.88060760498047 3.187238216400146 51.81937408447266 3.575583696365356 52.68330001831055 C 3.96396541595459 53.54731750488281 4.571292877197266 54.27738952636719 5.331947326660156 54.79464721679688 C 6.150329113006592 55.35113525390625 7.093747138977051 55.63330078125 8.136001586914063 55.63330078125 L 43.20180130004883 55.63330078125 C 43.44623947143555 55.63330078125 43.68976593017578 55.61713790893555 43.92560195922852 55.58522796630859 C 44.01453018188477 55.57320785522461 44.10404968261719 55.56719589233398 44.19361114501953 55.56719589233398 C 44.27242660522461 55.56719589233398 44.35127639770508 55.57185363769531 44.42969131469727 55.58117294311523 C 44.72071075439453 55.61575317382813 45.02040100097656 55.63330078125 45.32040023803711 55.63330078125 L 115.1235122680664 55.63330078125 M 115.1235122680664 57.63330078125 L 45.32040023803711 57.63330078125 C 44.93540191650391 57.63330078125 44.56000137329102 57.61073684692383 44.19363784790039 57.56719207763672 C 43.87258529663086 57.61061096191406 43.54160308837891 57.63330078125 43.20180130004883 57.63330078125 L 8.136001586914063 57.63330078125 C 2.098801851272583 57.63330078125 -1.106998205184937 50.50260925292969 2.900710821151733 45.98730087280273 L 20.43360137939453 26.23140907287598 C 21.82635688781738 24.66225433349609 23.74785614013672 23.87767791748047 25.66935348510742 23.87767791748047 C 27.59085273742676 23.87767791748047 29.51234817504883 24.66225433349609 30.90509223937988 26.23140907287598 L 42.0488395690918 38.78806304931641 L 73.51200103759766 3.592809438705444 C 75.30120086669922 1.591654896736145 77.76157379150391 0.5910776257514954 80.22194671630859 0.5910776257514954 C 82.68231964111328 0.5910776257514954 85.14269256591797 1.591654896736145 86.93189239501953 3.592809438705444 L 121.8330001831055 42.63480758666992 C 127.0169982910156 48.43350219726563 122.9013137817383 57.63330078125 115.1235122680664 57.63330078125 Z" stroke="none" fill="#042a2b"/>
    </g>
  </g>
</svg>
