<?xml version="1.0" encoding="utf-8"?>
<!-- Generator: Adobe Illustrator 23.0.0, SVG Export Plug-In . SVG Version: 6.00 Build 0)  -->
<svg version="1.1" id="圖層_1" xmlns="http://www.w3.org/2000/svg" xmlns:xlink="http://www.w3.org/1999/xlink" x="0px" y="0px"
	 viewBox="0 0 300 300" style="enable-background:new 0 0 300 300;" xml:space="preserve">
<style type="text/css">
	.st0{enable-background:new    ;}
	.st1{fill:#042A2B;stroke:#042A2B;stroke-miterlimit:10;}
	.st2{font-family:'ArialMT';}
	.st3{font-size:12px;}
	.st4{clip-path:url(#SVGID_2_);fill:#5EB1BF;}
	.st5{fill:none;stroke:#042A2B;stroke-width:2;stroke-miterlimit:10;}
</style>
<g class="st0">
	<path class="st1" d="M67.4,24.3c1.6,0.4,2.8,1,3.8,1.8s1.7,1.6,2.1,2.5s0.7,1.9,0.7,2.9c0,1-0.1,1.9-0.3,2.8
		c-0.3,1-0.7,1.8-1.2,2.7c-0.6,0.8-1.3,1.5-2.1,2.1c-0.9,0.6-1.9,0.9-3.1,1.1c-1.2,0.2-2.5,0-4-0.4l-5.6-1.6L62,22.8L67.4,24.3z
		 M59.2,37.6l4.3,1.2c0.9,0.3,1.9,0.4,2.8,0.3c0.9-0.1,1.8-0.3,2.6-0.7c0.8-0.4,1.5-1,2.1-1.7s1.1-1.6,1.3-2.7
		c0.3-1,0.4-1.9,0.3-2.8c-0.1-0.9-0.4-1.8-0.8-2.5s-1.1-1.5-1.8-2s-1.7-1-2.7-1.3L63,24.2L59.2,37.6z"/>
	<path class="st1" d="M86.5,34.1c0.8,0.5,1.4,1.1,1.8,1.7s0.7,1.1,0.8,1.7c0.1,0.5,0.1,1.1,0,1.6s-0.3,1-0.7,1.5
		c-1.1,1.5-2.6,2-4.7,1.5c0.2,0.3,0.3,0.8,0.3,1.3s0.1,1.1,0,2v6.4L82.8,51l0.2-5.2c0-0.9,0-1.6,0-2.2s-0.1-1-0.2-1.4
		s-0.3-0.6-0.6-0.9c-0.2-0.2-0.6-0.5-1-0.8l-1.8-1.2l-4.3,6.3l-1-0.7l9.1-13.2L86.5,34.1z M80,38.5l2.2,1.5c1.1,0.8,2.2,1.1,3,1.1
		c0.9-0.1,1.6-0.5,2.2-1.3c0.5-0.8,0.7-1.6,0.4-2.5s-1-1.7-2.1-2.5l-2.1-1.5L80,38.5z"/>
	<path class="st1" d="M99.5,37.2L92.6,40l2.4,6l6.8-2.7l0.4,1L95.4,47l2.4,6l7.1-2.8l0.4,1L97,54.3l-6-14.8l8.1-3.2L99.5,37.2z"/>
	<path class="st1" d="M122.1,40.6l-1.2,0.6l-4.7-3.9l-7,3.4l0.1,6.1l-1.2,0.6l-0.3-17.7l0.6-0.3L122.1,40.6z M109,31.2l0.2,8.3
		l6.2-3L109,31.2z"/>
	<path class="st1" d="M137.9,24.5h1.2l-0.2,16h-1.2l0.2-14.2h-0.1l-6.2,7.4l-5.9-7.6h-0.1l-0.2,14.2h-1.2l0.2-16h1.2l6,7.5
		L137.9,24.5z"/>
	<path class="st1" d="M144.3,41.6l7.2,3.2l-0.4,0.9l-8.4-3.8l6.6-14.6l1.1,0.5L144.3,41.6z"/>
	<path class="st1" d="M166.4,55.5l-1.2-0.6l0.2-6.1l-7-3.5l-4.7,3.8l-1.2-0.6l13.8-11.1l0.6,0.3L166.4,55.5z M165.7,39.4l-6.4,5.2
		l6.1,3.1L165.7,39.4z"/>
	<path class="st1" d="M192.4,42.6l-0.9,0.5l-17.7-5.5l7.4,11.9l-1.1,0.7l-8.4-13.6l0.9-0.6l17.7,5.5l-7.4-11.9L184,29L192.4,42.6z"
		/>
	<path class="st1" d="M199.8,25c1.6-0.2,3-0.1,4.2,0.2c1.2,0.3,2.2,0.9,2.9,1.5s1.3,1.5,1.8,2.4c0.4,0.9,0.7,1.8,0.8,2.8
		c0.1,1,0.1,2-0.1,2.9s-0.6,1.9-1.1,2.7c-0.6,0.8-1.4,1.6-2.4,2.2s-2.3,1-3.8,1.2l-5.8,0.7l-1.9-15.9L199.8,25z M197.3,40.4l4.5-0.5
		c1-0.1,1.9-0.4,2.7-0.8s1.6-1,2.1-1.6s1-1.5,1.3-2.4s0.4-1.9,0.2-3c-0.1-1-0.4-1.9-0.9-2.7c-0.4-0.8-1-1.5-1.8-2s-1.6-0.9-2.5-1.1
		s-1.9-0.3-3-0.1l-4.4,0.5L197.3,40.4z"/>
	<path class="st1" d="M243.1,32.2c1.3,0.9,2.3,1.9,2.9,3c0.6,1,1,2.1,1.1,3.1s0,2-0.3,2.9s-0.7,1.8-1.3,2.6s-1.3,1.5-2,2.1
		s-1.7,1-2.7,1.3c-1,0.2-2.1,0.2-3.2,0c-1.2-0.3-2.4-0.8-3.6-1.7l-4.7-3.4l9.3-13L243.1,32.2z M230.9,41.8l3.7,2.6
		c0.8,0.6,1.6,1,2.5,1.2s1.8,0.3,2.7,0.2s1.8-0.4,2.6-0.9s1.5-1.2,2.2-2.1c0.6-0.8,1-1.7,1.2-2.6c0.2-0.9,0.2-1.8,0.1-2.7
		s-0.5-1.7-1.1-2.5c-0.5-0.8-1.3-1.5-2.1-2.1l-3.6-2.6L230.9,41.8z"/>
	<path class="st1" d="M257.9,45.3c0.7,0.7,1.2,1.3,1.5,2s0.5,1.3,0.5,1.8s-0.1,1.1-0.3,1.6c-0.2,0.5-0.5,0.9-0.9,1.3
		c-1.3,1.3-2.9,1.5-4.9,0.6c0.1,0.4,0.1,0.8,0.1,1.3c-0.1,0.5-0.1,1.1-0.3,1.9l-1.4,6.5l-1-1l1.1-5.1c0.2-0.9,0.3-1.6,0.4-2.2
		c0.1-0.6,0.1-1,0-1.4s-0.2-0.7-0.4-1s-0.5-0.6-0.8-1l-1.5-1.5l-5.4,5.4l-0.9-0.9L255,42.3L257.9,45.3z M250.7,48.4l1.9,1.9
		c1,1,1.9,1.5,2.8,1.6c0.9,0.1,1.7-0.2,2.4-0.9c0.7-0.7,1-1.5,0.9-2.3c-0.1-0.9-0.6-1.8-1.6-2.8l-1.8-1.8L250.7,48.4z"/>
	<path class="st1" d="M271.2,62.5l-4.4-6.1l-5.2,3.7l4.3,5.9l-0.8,0.6l-4.3-5.9l-5.3,3.8l4.5,6.2l-0.8,0.6l-5.2-7.2l13-9.3l5.1,7.1
		L271.2,62.5z"/>
	<path class="st1" d="M262.5,87.4l-0.2-1.3l5-3.5l-1.4-7.7l-5.9-1.5l-0.2-1.3l17.2,4.5l0.1,0.7L262.5,87.4z M275,77.3l-8-2.1
		l1.2,6.8L275,77.3z"/>
	<path class="st1" d="M277.1,105l-0.1,1.2l-15.9-1.4l0.1-1.2l14.1,1.3v-0.1l-6.9-6.7l8-5.4v-0.1l-14.1-1.3l0.1-1.2l15.9,1.4
		l-0.1,1.2l-8,5.4L277.1,105z"/>
	<path class="st1" d="M260.2,110.3l-3.5,7.1l-0.9-0.5l4.1-8.2l14.3,7.1l-0.5,1.1L260.2,110.3z"/>
	<path class="st1" d="M246.4,133.5l0.5-1.2l6.1-0.3l2.9-7.3l-4.2-4.4l0.5-1.2l12.2,12.9l-0.3,0.6L246.4,133.5z M262.4,131.6l-5.7-6
		l-2.6,6.4L262.4,131.6z"/>
	<path class="st1" d="M260.2,158.5l-0.5-0.9l5.9-17.6l-12.1,7.1l-0.6-1.1l13.8-8.1l0.5,0.9l-5.9,17.5l12.1-7.1l0.6,1.1L260.2,158.5z
		"/>
	<path class="st1" d="M277.7,166.9c0.1,1.6-0.1,3-0.5,4.2s-1,2.1-1.7,2.8s-1.6,1.2-2.5,1.6c-0.9,0.3-1.9,0.5-2.8,0.6
		c-1,0.1-2-0.1-2.9-0.3c-1-0.3-1.8-0.7-2.6-1.3s-1.5-1.5-2-2.6s-0.8-2.4-0.9-3.9l-0.3-5.8l16-0.9L277.7,166.9z M262.5,163.3l0.3,4.5
		c0,1,0.3,1.9,0.6,2.7c0.4,0.9,0.9,1.6,1.5,2.2c0.6,0.6,1.4,1.1,2.3,1.5s1.9,0.5,3,0.4c1-0.1,1.9-0.3,2.8-0.7s1.5-0.9,2.1-1.6
		s1-1.5,1.3-2.4s0.4-1.9,0.3-3l-0.2-4.4L262.5,163.3z"/>
	<path class="st1" d="M264.2,205.8c-0.5,1.5-1.1,2.8-1.9,3.7s-1.6,1.6-2.6,2.1c-0.9,0.4-1.9,0.6-2.9,0.6s-1.9-0.1-2.8-0.4
		c-0.9-0.3-1.8-0.7-2.6-1.3s-1.5-1.3-2-2.1c-0.6-0.9-0.9-1.9-1-3.1s0-2.5,0.5-4l1.7-5.6l15.3,4.6L264.2,205.8z M251.1,197.2
		l-1.3,4.3c-0.3,0.9-0.4,1.9-0.4,2.8c0,0.9,0.3,1.8,0.6,2.6c0.4,0.8,0.9,1.5,1.6,2.1c0.7,0.6,1.6,1.1,2.6,1.4c1,0.3,1.9,0.4,2.8,0.3
		s1.8-0.4,2.6-0.8c0.8-0.4,1.5-1,2-1.8c0.6-0.8,1-1.7,1.3-2.7l1.3-4.2L251.1,197.2z"/>
	<path class="st1" d="M269.5,216.4c0.5,0.8,0.9,1.5,1.1,2.2s0.3,1.3,0.2,1.9c-0.1,0.6-0.3,1.1-0.5,1.5c-0.3,0.4-0.7,0.8-1.1,1.1
		c-1.5,1.1-3.2,1-4.9-0.3c0,0.4,0,0.8-0.1,1.3s-0.4,1.1-0.6,1.9l-2.5,6.1l-0.8-1.2l2-4.8c0.3-0.8,0.6-1.5,0.8-2.1
		c0.2-0.5,0.3-1,0.3-1.4s-0.1-0.7-0.2-1s-0.4-0.7-0.7-1.1l-1.2-1.8l-6.3,4.4l-0.7-1l13.1-9.1L269.5,216.4z M261.9,218.2l1.5,2.2
		c0.8,1.1,1.6,1.8,2.5,2.1s1.7,0.1,2.5-0.5s1.2-1.3,1.3-2.2s-0.3-1.9-1.1-3.1l-1.5-2.1L261.9,218.2z"/>
	<path class="st1" d="M279,237.7l-2.2-7.1l-6.1,1.9l2.2,7l-1,0.3l-2.2-7l-6.2,1.9l2.3,7.3l-1,0.3l-2.6-8.5l15.3-4.7l2.6,8.3
		L279,237.7z"/>
	<path class="st1" d="M260.3,257.3l0.5-1.2l6.1-0.4l2.7-7.3l-4.3-4.3l0.5-1.2l12.5,12.6L278,256L260.3,257.3z M276.2,255l-5.9-5.9
		l-2.4,6.4L276.2,255z"/>
	<path class="st1" d="M256.4,279.1l-1,0.7l-8.7-13.4l1-0.7l7.8,11.9l0,0l1-9.6l9.2,3l0,0l-7.8-11.9l1-0.7l8.7,13.4l-1,0.7l-9.2-2.9
		L256.4,279.1z"/>
	<path class="st1" d="M242,266.7l-7.9-0.7l0.1-1l9.1,0.8l-1.4,15.9l-1.2-0.1L242,266.7z"/>
	<path class="st1" d="M220.7,257.1l1.1,0.7l-0.7,6l6.7,4l5-3.5l1.1,0.7l-14.6,10.1l-0.6-0.4L220.7,257.1z M220.1,273.2l6.8-4.7
		L221,265L220.1,273.2z"/>
	<path class="st1" d="M197.7,251l1-0.1l13.1,13.2l-0.9-13.9l1.2-0.1l1.1,16l-1.1,0.1l-13-13.1l0.9,14l-1.2,0.1L197.7,251z"/>
	<path class="st1" d="M191.1,275.5c-1.5,0.6-2.8,1-4.1,1c-1.2,0-2.3-0.2-3.3-0.6c-0.9-0.5-1.7-1-2.4-1.8c-0.6-0.7-1.1-1.5-1.5-2.4
		s-0.6-1.8-0.7-2.8c-0.1-1,0-2,0.3-2.9c0.3-1,0.9-1.9,1.7-2.8s1.9-1.6,3.3-2.2l5.3-2.3l6.4,14.6L191.1,275.5z M189.1,260.1l-4.1,1.8
		c-0.9,0.4-1.7,0.9-2.4,1.5s-1.2,1.4-1.6,2.2s-0.6,1.7-0.6,2.7s0.2,1.9,0.7,2.9c0.4,0.9,0.9,1.7,1.6,2.4c0.7,0.6,1.4,1.1,2.3,1.4
		c0.9,0.3,1.8,0.4,2.7,0.4s1.9-0.3,2.9-0.7l4.1-1.8L189.1,260.1z"/>
	<path class="st1" d="M146,275.3c-1.4-0.7-2.6-1.6-3.4-2.5c-0.8-0.9-1.3-1.9-1.6-2.9c-0.2-1-0.3-2-0.1-2.9c0.2-1,0.5-1.9,0.9-2.7
		c0.4-0.9,1-1.7,1.7-2.4c0.7-0.7,1.5-1.2,2.5-1.6s2-0.5,3.2-0.5c1.2,0.1,2.5,0.5,3.8,1.2l5.2,2.6l-7.3,14.3L146,275.3z M156.7,264
		l-4-2c-0.9-0.4-1.8-0.7-2.7-0.9c-0.9-0.1-1.8-0.1-2.7,0.2s-1.7,0.6-2.4,1.3c-0.7,0.6-1.4,1.4-1.9,2.4c-0.5,0.9-0.7,1.8-0.8,2.7
		c-0.1,0.9,0,1.8,0.3,2.7c0.3,0.9,0.8,1.6,1.4,2.3s1.4,1.3,2.4,1.8l3.9,2L156.7,264z"/>
	<path class="st1" d="M132,266.8c-0.9-0.1-1.7-0.3-2.4-0.6s-1.2-0.7-1.5-1.1c-0.4-0.4-0.6-0.9-0.8-1.4s-0.2-1-0.1-1.6
		c0.2-1.8,1.4-3,3.5-3.5c-0.3-0.2-0.6-0.5-0.9-1c-0.3-0.4-0.6-1-1-1.7l-3-5.9l1.4,0.2l2.3,4.7c0.4,0.8,0.7,1.4,1,1.9
		s0.6,0.8,0.9,1.1c0.3,0.2,0.6,0.4,0.9,0.5c0.3,0.1,0.7,0.2,1.3,0.2l2.1,0.2l0.9-7.6l1.2,0.1l-1.8,15.9L132,266.8z M135.7,259.9
		l-2.6-0.3c-1.4-0.1-2.4,0-3.2,0.5s-1.2,1.2-1.3,2.2s0.2,1.7,0.8,2.4c0.6,0.6,1.6,1,3.1,1.2l2.6,0.3L135.7,259.9z"/>
	<path class="st1" d="M117.6,273.4l6.3-4l-3.4-5.4l-6.2,3.9l-0.6-0.9l6.2-3.9l-3.5-5.5l-6.5,4.1l-0.6-0.9l7.6-4.8l8.5,13.5l-7.4,4.6
		L117.6,273.4z"/>
	<path class="st1" d="M93.3,265l1.3-0.3l3.6,4.9l7.6-1.6l1.3-5.9l1.3-0.3l-3.9,17.3l-0.7,0.1L93.3,265z M103.8,277.1l1.8-8.1
		l-6.7,1.4L103.8,277.1z"/>
	<path class="st1" d="M76.1,279.9l-1.2-0.1l1-16l1.2,0.1l-0.9,14.2h0.1l6.5-7.1l5.6,7.9h0.1l0.9-14.2l1.2,0.1l-1,16l-1.2-0.1
		l-5.6-7.8L76.1,279.9z"/>
	<path class="st1" d="M70.4,263.2l-7.1-3.5l0.5-0.9l8.2,4.1l-7.2,14.3l-1.1-0.6L70.4,263.2z"/>
	<path class="st1" d="M52.1,247.3l0.9,0.9l-2,5.8l5.7,5.4l5.7-2.3l0.9,0.9l-16.5,6.5l-0.5-0.5L52.1,247.3z M48,262.9l7.7-3.1l-5-4.8
		L48,262.9z"/>
	<path class="st1" d="M40.5,233.9l0.7,0.8L38,253l10.9-8.8l0.8,1l-12.4,10.1l-0.7-0.8l3.2-18.2L28.9,245l-0.8-1L40.5,233.9z"/>
	<path class="st1" d="M22.8,227.3c-0.2-1.6-0.2-3,0.1-4.2c0.3-1.2,0.8-2.2,1.5-3s1.5-1.4,2.3-1.8s1.8-0.7,2.7-0.8c1-0.1,2-0.1,2.9,0
		c1,0.2,1.9,0.5,2.8,1.1c0.9,0.6,1.6,1.3,2.2,2.4c0.6,1,1,2.3,1.3,3.8l0.8,5.8l-15.8,2.3L22.8,227.3z M38.2,229.4l-0.7-4.5
		c-0.1-1-0.4-1.9-0.9-2.7c-0.4-0.8-1-1.5-1.7-2.1s-1.5-1-2.4-1.2s-1.9-0.3-3-0.1c-1,0.1-1.9,0.5-2.7,0.9c-0.8,0.5-1.5,1.1-2,1.8
		s-0.9,1.6-1.1,2.5s-0.2,1.9-0.1,3l0.6,4.4L38.2,229.4z"/>
	<path class="st1" d="M27.8,184.5c0.8-1.4,1.6-2.5,2.6-3.3s2-1.3,3-1.5s2-0.2,3,0s1.8,0.5,2.7,1s1.6,1.1,2.3,1.8s1.2,1.6,1.5,2.5
		c0.3,1,0.5,2,0.3,3.2c-0.1,1.2-0.6,2.4-1.3,3.8l-2.8,5.1l-14-7.7L27.8,184.5z M38.8,195.6l2.2-3.9c0.5-0.9,0.8-1.7,0.9-2.6
		s0.1-1.8-0.1-2.7s-0.6-1.7-1.2-2.4c-0.6-0.8-1.3-1.4-2.3-1.9c-0.9-0.5-1.8-0.8-2.7-0.9s-1.8,0-2.7,0.2c-0.9,0.3-1.7,0.7-2.4,1.3
		c-0.7,0.6-1.4,1.4-1.9,2.4l-2.1,3.9L38.8,195.6z"/>
	<path class="st1" d="M35.6,171.9c-0.1-0.9,0-1.8,0.2-2.5s0.4-1.3,0.8-1.7c0.3-0.4,0.8-0.8,1.3-1s1-0.4,1.6-0.4
		c1.8-0.1,3.2,0.8,4.1,2.8c0.2-0.4,0.4-0.7,0.8-1c0.3-0.3,0.9-0.8,1.5-1.3l5.3-4l0.1,1.4l-4.2,3.1c-0.7,0.5-1.3,1-1.7,1.4
		s-0.7,0.7-0.9,1s-0.3,0.6-0.3,1c0,0.3,0,0.8,0,1.3l0.2,2.1l7.7-0.5l0.1,1.2l-16,1.1L35.6,171.9z M43.1,174.2l-0.2-2.6
		c-0.1-1.4-0.5-2.4-1-3.1s-1.4-1-2.4-0.9s-1.7,0.5-2.2,1.2s-0.7,1.8-0.6,3.2l0.2,2.6L43.1,174.2z"/>
	<path class="st1" d="M28,156.2l3.8,6.4l5.5-3.3l-3.7-6.3l0.9-0.5l3.7,6.3l5.6-3.3l-3.9-6.6l0.9-0.5l4.6,7.7l-13.8,8.2l-4.5-7.5
		L28,156.2z"/>
	<path class="st1" d="M37.2,132.2l0.2,1.3l-5.1,3.4l1.3,7.7l5.9,1.6l0.2,1.3l-17.1-4.7l-0.1-0.7L37.2,132.2z M24.5,142.1l8,2.2
		l-1.1-6.8L24.5,142.1z"/>
	<path class="st1" d="M25.7,112.6l0.4-1.2l15.4,4.5l-0.3,1.2l-13.6-4l0,0l5.5,7.9l-8.9,3.7l0,0l13.6,4l-0.3,1.2l-15.4-4.5l0.4-1.2
		l8.9-3.8L25.7,112.6z"/>
	<path class="st1" d="M44.4,111l4.4-6.6l0.9,0.6l-5.1,7.6l-13.3-9l0.7-1L44.4,111z"/>
	<path class="st1" d="M44.3,78.3l0.7,1.1l-3.5,5l3.9,6.8l6.1-0.6l0.7,1.1l-17.6,1.7l-0.3-0.6L44.3,78.3z M36,92.1l8.2-0.8l-3.5-5.9
		L36,92.1z"/>
	<path class="st1" d="M35.9,62.6l0.4,1L27.6,80l13.1-5l0.3,1l-14.9,5.7l-0.4-1l8.7-16.3l-13.1,5l-0.4-1.2L35.9,62.6z"/>
	<path class="st1" d="M22.8,48.7c0.6-1.5,1.3-2.7,2.2-3.6c0.9-0.9,1.8-1.5,2.8-1.8s2-0.5,2.9-0.4c1,0.1,1.9,0.3,2.8,0.6
		c0.9,0.4,1.8,0.9,2.5,1.5s1.4,1.4,1.8,2.3c0.5,0.9,0.7,2,0.7,3.2s-0.3,2.5-0.8,3.9l-2.2,5.4l-14.9-5.9L22.8,48.7z M35.1,58.2
		l1.7-4.2c0.4-0.9,0.6-1.8,0.6-2.7s-0.1-1.8-0.4-2.7s-0.8-1.6-1.5-2.3S34,45.1,33,44.7c-1-0.4-1.9-0.6-2.8-0.5
		c-0.9,0-1.8,0.2-2.6,0.6c-0.8,0.4-1.5,0.9-2.2,1.6c-0.6,0.7-1.2,1.6-1.6,2.6l-1.6,4.1L35.1,58.2z"/>
</g>
<text transform="matrix(1 0 0 1 0 -6.728313e-06)" class="st2 st3"> </text>
<text transform="matrix(1 0 0 1 0 -6.728313e-06)" class="st2 st3"> </text>
<text transform="matrix(1 0 0 1 0 -6.728313e-06)" class="st2 st3"> </text>
<g>
	<g>
		<g>
			<g>
				<defs>
					<path id="SVGID_1_" d="M241.6,256.9c-4.4,0-8.9-3.4-13.8-7c-6.1-4.5-12.9-9.6-21.3-9.6c-9.6,0-14.5,3.9-19.2,7.6
						c-4.8,3.8-9.3,7.4-18.6,7.4s-13.8-3.6-18.5-7.4c-4.7-3.7-9.6-7.6-19.2-7.6s-14.5,3.9-19.2,7.6c-4.8,3.8-9.3,7.4-18.5,7.4H89
						c-14.6,0-15.7-0.5-27.8-12.6c-12.6-12.6-12.6-13.3-12.6-29.8v-2.4c0-9.3,3.6-13.8,7.3-18.6c3.7-4.7,7.6-9.6,7.6-19.2
						c0-9.6-3.8-14.5-7.6-19.2c-3.8-4.8-7.3-9.3-7.3-18.5c0-9.3,3.6-13.8,7.3-18.6c3.7-4.7,7.6-9.6,7.6-19.2
						c0-8.4-5.1-15.3-9.6-21.3C48,68,43.4,61.8,50.6,54.6c2.5-2.5,4.9-3.7,7.5-3.7c4.4,0,9,3.4,13.8,7c6.1,4.5,12.9,9.6,21.3,9.6
						c9.6,0,14.5-3.8,19.2-7.6c4.8-3.8,9.3-7.3,18.6-7.3s13.8,3.6,18.5,7.3s9.6,7.6,19.2,7.6c9.6,0,14.5-3.8,19.2-7.6
						c4.8-3.8,9.3-7.3,18.6-7.3h4.3c14.6,0,15.6,0.5,27.8,12.6c12.6,12.6,12.6,13.3,12.6,29.8v2.3c0,9.3-3.6,13.8-7.4,18.5
						c-3.7,4.7-7.6,9.6-7.6,19.2s3.9,14.5,7.6,19.2c3.8,4.8,7.4,9.3,7.4,18.5c0,8.6-4.2,13.8-8.3,18.8c-4.7,5.7-9.1,11.2-6.4,21.1
						c2.5,9.1,7.2,15.4,11,20.5c5.8,7.7,9.3,12.4,1.6,20.1C246.7,255.7,244.2,256.9,241.6,256.9z"/>
				</defs>
				<clipPath id="SVGID_2_">
					<use xlink:href="#SVGID_1_"  style="overflow:visible;"/>
				</clipPath>
				<path class="st4" d="M213.2,114.5c-8.7-13.8-28.8-13.8-37.5,0l-41.8,66.6c-4.1,6.5-13.6,6.5-17.6,0l-9.7-15.4
					c-6-9.6-19.9-9.6-25.9,0l-60.2,95.9h62.9h83.4h138.8L213.2,114.5z"/>
			</g>
		</g>
	</g>
</g>
<text transform="matrix(1 0 0 1 0 -6.728313e-06)" class="st2 st3"> </text>
<path class="st5" d="M241.6,256.9c-4.4,0-8.9-3.4-13.8-7c-6.1-4.5-12.9-9.6-21.3-9.6c-9.6,0-14.5,3.9-19.2,7.6
	c-4.8,3.8-9.3,7.4-18.6,7.4s-13.8-3.6-18.5-7.4c-4.7-3.7-9.6-7.6-19.2-7.6s-14.5,3.9-19.2,7.6c-4.8,3.8-9.3,7.4-18.5,7.4H89
	c-14.6,0-15.7-0.5-27.8-12.6c-12.6-12.6-12.6-13.3-12.6-29.8v-2.4c0-9.3,3.6-13.8,7.3-18.6c3.7-4.7,7.6-9.6,7.6-19.2
	c0-9.6-3.8-14.5-7.6-19.2c-3.8-4.8-7.3-9.3-7.3-18.5c0-9.3,3.6-13.8,7.3-18.6c3.7-4.7,7.6-9.6,7.6-19.2c0-8.4-5.1-15.3-9.6-21.3
	C48,68,43.4,61.8,50.6,54.6c2.5-2.5,4.9-3.7,7.5-3.7c4.4,0,9,3.4,13.8,7c6.1,4.5,12.9,9.6,21.3,9.6c9.6,0,14.5-3.8,19.2-7.6
	c4.8-3.8,9.3-7.3,18.6-7.3s13.8,3.6,18.5,7.3s9.6,7.6,19.2,7.6c9.6,0,14.5-3.8,19.2-7.6c4.8-3.8,9.3-7.3,18.6-7.3h4.3
	c14.6,0,15.6,0.5,27.8,12.6c12.6,12.6,12.6,13.3,12.6,29.8v2.3c0,9.3-3.6,13.8-7.4,18.5c-3.7,4.7-7.6,9.6-7.6,19.2
	s3.9,14.5,7.6,19.2c3.8,4.8,7.4,9.3,7.4,18.5c0,8.6-4.2,13.8-8.3,18.8c-4.7,5.7-9.1,11.2-6.4,21.1c2.5,9.1,7.2,15.4,11,20.5
	c5.8,7.7,9.3,12.4,1.6,20.1C246.7,255.7,244.2,256.9,241.6,256.9z"/>
</svg>
