<svg xmlns="http://www.w3.org/2000/svg" width="124.647" height="63.157" viewBox="0 0 124.647 63.157">
  <g id="mouse" transform="translate(534.924 -1097.861)">
    <path id="Path_149" data-name="Path 149" d="M-412.475,1105.451v1.307c-.774,1.463-1.364,2.631-1.771,3.478a5.113,5.113,0,0,0-.61,1.769c0,.563.32.875.958.965q2.861-5.865,5.72-11.2c1.336-.422,3.16-.173,5.473,1.068a16.743,16.743,0,0,1,5.967,5.865,15.76,15.76,0,0,1,2.729,8.187,4.507,4.507,0,0,1-2.119,4.28,12.227,12.227,0,0,1-5.546,1.35,9.45,9.45,0,0,0-2.874-2.4c-.852-.4-1.278-.146-1.278.684a14.637,14.637,0,0,1,2.424,1.866,18.894,18.894,0,0,1,2.57,3.289c2.574,3.953,5.149,8.315,7.723,13.145-.562,5.821-3.7,5.591-9.407,2.4a21.265,21.265,0,0,1-5.43-4.025,19.163,19.163,0,0,1-4.181-6.873q-1.35-3.636-2.7-7.156l-.145-.016c-.639-.069-.958.181-.959.722a10.862,10.862,0,0,0,.814,2.6c.542,1.51,1.354,3.541,2.439,6.156v2.236c-2.033,1.453-4.984,2.014-8.856,2.294a11.255,11.255,0,0,1-5.372-.688,3.76,3.76,0,0,1-2.526-3.821v-29.965a12.391,12.391,0,0,1,9.088-4.1,8.4,8.4,0,0,1,5.372,1.506A6.105,6.105,0,0,1-412.475,1105.451Z" transform="translate(-18.192)" fill="#ffba49" stroke="#5eb1bf" stroke-width="2"/>
    <path id="Path_150" data-name="Path 150" d="M-451.943,1145.708a22.971,22.971,0,0,1-9.48,2.373,8.7,8.7,0,0,1-6.954-3.181c-1.762-2.105-2.642-5.374-2.643-9.767a29.859,29.859,0,0,1,5.749-17.629,32.783,32.783,0,0,1,13.153-11.031c5.826-2.654,10.439-2.486,13.835.191s5.1,7.209,5.1,13.076c0,6.563-1.819,11.786-5.458,16.25A35.767,35.767,0,0,1-451.943,1145.708Zm1.161-21.483a18.211,18.211,0,0,0-.261-3.876c-.174-.648-.494-.87-.958-.66a2.092,2.092,0,0,0-.784.647c.039.331.1.769.174,1.314a34.687,34.687,0,0,1,.116,3.664v1.888q0,1.976-.087,2.914t-.145,1.605q-.03.362-.058.724a1.006,1.006,0,0,0,.784-.067,1.98,1.98,0,0,0,.958-1.518,22.078,22.078,0,0,0,.261-4.108Z" transform="translate(-10.952 -0.993)" fill="#ffba49" stroke="#5eb1bf" stroke-width="2"/>
    <path id="Path_151" data-name="Path 151" d="M-490.178,1162.679a14.234,14.234,0,0,1-9.481-.115,13.936,13.936,0,0,1-6.954-6.391,22.577,22.577,0,0,1-2.642-11.294c0-6.4,1.916-10.923,5.749-14.524,3.407-3.189,7.792-5.315,13.153-6.937,5.826-1.782,10.438-2.1,13.835-.032,3.4,2.033,5.1,5.934,5.1,11.824a29.7,29.7,0,0,1-5.459,17.568A25.652,25.652,0,0,1-490.178,1162.679Zm1.161-21.328a18.735,18.735,0,0,0-.261-3.908c-.174-.67-.494-.932-.959-.791a1.722,1.722,0,0,0-.784.523q.058.507.174,1.343a35.218,35.218,0,0,1,.116,3.683v1.887q0,1.977-.088,2.9c-.058.616-.107,1.145-.144,1.581q-.03.357-.059.714a.989.989,0,0,0,.784.058c.465-.141.785-.605.959-1.387a21.6,21.6,0,0,0,.261-4.077Z" transform="translate(-4.295 -4.021)" fill="#ffba49" stroke="#5eb1bf" stroke-width="2"/>
    <path id="Path_152" data-name="Path 152" d="M-527.188,1157.337a15.2,15.2,0,0,1-4.979-5.515,14.219,14.219,0,0,1-1.757-6.775v-28.4a12.874,12.874,0,0,1,3.76,1.25c1.481.688,3.014,1.507,4.6,2.442a25.683,25.683,0,0,1,5.952,4.555,9.054,9.054,0,0,1,2.642,6.288v15.883a11.176,11.176,0,0,0-3.194-.119c-1.045.112-1.568.395-1.568.94a1.648,1.648,0,0,0,.552,1.079c1.916-.81,4.761-.605,8.536-.12a35.716,35.716,0,0,0,6.881.193,12.925,12.925,0,0,1,1.916,6.71,14.751,14.751,0,0,1-.609,3.926,8.871,8.871,0,0,1-1.626,3.379A33.738,33.738,0,0,1-527.188,1157.337Z" transform="translate(0 -3.097)" fill="#ffba49" stroke="#5eb1bf" stroke-width="2"/>
  </g>
</svg>
