<?xml version="1.0" encoding="utf-8"?>
<!-- Generator: Adobe Illustrator 23.0.0, SVG Export Plug-In . SVG Version: 6.00 Build 0)  -->
<svg version="1.1" id="圖層_1" xmlns="http://www.w3.org/2000/svg" xmlns:xlink="http://www.w3.org/1999/xlink" x="0px" y="0px"
	 viewBox="0 0 100 100" style="enable-background:new 0 0 100 100;" xml:space="preserve">
<style type="text/css">
	.st0{fill:#420039;}
	.st1{fill:#FFFFFF;}
	.st2{fill:#FFE46A;stroke:#000000;stroke-width:2;stroke-miterlimit:10;}
	.st3{fill:#FF9EB8;stroke:#000000;stroke-width:2;stroke-miterlimit:10;}
	.st4{fill:#FFFFFF;stroke:#000000;stroke-width:2;stroke-miterlimit:10;}
	.st5{fill:none;stroke:#000000;}
	.st6{fill:#2A6CFF;stroke:#000000;}
	.st7{fill:#FF6978;}
	.st8{fill:#FFDC6E;stroke:#000000;stroke-width:2;stroke-miterlimit:10;}
	.st9{fill:#90B8E6;stroke:#000000;stroke-width:2;stroke-miterlimit:10;}
	.st10{fill:none;stroke:#000000;stroke-width:2;stroke-miterlimit:10;}
	.st11{fill:#FFDE00;}
	.st12{stroke:#000000;stroke-miterlimit:10;}
	.st13{fill:#59E8DC;}
	.st14{fill:none;stroke:#59E8DC;stroke-width:2;}
	.st15{fill:#FEFEFE;}
	.st16{fill:none;stroke:#FFFFFF;stroke-width:6;stroke-miterlimit:10;}
	.st17{fill:none;stroke:#59E8DC;stroke-width:6;stroke-miterlimit:10;}
	.st18{fill:#90B8E6;stroke:#000000;stroke-width:2;stroke-linecap:round;stroke-linejoin:round;stroke-miterlimit:10;}
</style>
<g>
	<g>
		<path class="st1" d="M26.39,75.43c-6.2,0-11.13-2-14.66-5.96c-3.72-4.12-5.6-9.93-5.6-17.3c0-7.36,1.91-13.25,5.69-17.51
			c3.78-4.26,8.68-6.42,14.57-6.42s10.8,2.16,14.57,6.42c3.78,4.25,5.69,10.14,5.69,17.49s-1.87,13.17-5.57,17.31
			C37.54,73.42,32.59,75.43,26.39,75.43z M26.39,28.36c-5.86,0-10.74,2.15-14.5,6.38c-3.76,4.24-5.67,10.1-5.67,17.44
			S8.1,65.31,11.8,69.4c3.51,3.93,8.42,5.93,14.59,5.93c6.17,0,11.09-1.99,14.62-5.92c3.68-4.12,5.54-9.92,5.54-17.25
			s-1.91-13.19-5.67-17.42C37.13,30.5,32.26,28.36,26.39,28.36z M32.4,61.16c-0.6,0-1.55-0.6-2.85-1.77
			c-1.24-1.1-2.64-2.71-4.17-4.81c-1.53-2.09-2.68-3.9-3.43-5.39c-0.76-1.51-1.13-2.56-1.13-3.2c0-0.87,0.38-1.32,1.14-1.32H22
			l0.01,0.04c0.12,0.47,0.68,1.63,1.72,3.54c1.03,1.89,2.07,3.57,3.11,4.99c1.03,1.42,2.29,2.87,3.74,4.32
			c1.21,1.25,2.18,2.15,2.88,2.67l0.03,0.02l0,0.03C33.38,60.85,33.01,61.16,32.4,61.16z M21.76,44.79
			c-0.55,0.07-0.83,0.48-0.83,1.2c0,0.63,0.37,1.67,1.12,3.16c0.75,1.48,1.9,3.29,3.42,5.37c1.53,2.09,2.92,3.7,4.16,4.79
			c1.27,1.16,2.21,1.75,2.78,1.75c0.49,0,0.81-0.21,0.93-0.63c0.02-0.08,0-0.17-0.07-0.22c-0.69-0.53-1.62-1.39-2.76-2.58
			c-1.45-1.45-2.71-2.91-3.75-4.33c-1.04-1.43-2.09-3.11-3.11-5c-0.93-1.71-1.47-2.81-1.67-3.38c-0.03-0.08-0.1-0.13-0.19-0.13
			C21.77,44.78,21.76,44.79,21.76,44.79z"/>
	</g>
</g>
<g>
	<g>
		<path class="st1" d="M58.49,74.52l-0.02-0.02c-1.8-2.69-2.71-5.71-2.71-8.97c0-3.26,0.64-6.04,1.9-8.27l0.01-0.02l0.02,0
			c4.59-0.89,8.81-2.53,12.53-4.88c3.72-2.35,5.6-4.86,5.6-7.48c0-0.69-0.16-1.26-0.47-1.69c-0.3-0.43-0.73-0.65-1.28-0.65
			c-1.11,0-1.67,0.59-1.67,1.76c0,1.2,0.4,2.06,1.21,2.61l0.04,0.03l-0.03,0.04c-1.15,1.71-2.94,3.3-5.33,4.73
			c-2.38,1.43-4.75,2.47-7.04,3.1l-0.02,0.01l-0.02-0.01c-4.17-2.76-6.28-6.55-6.28-11.26c0-4.71,1.89-8.49,5.61-11.26
			c3.46-2.57,7.96-3.88,13.37-3.88c5.41,0,9.96,1.45,13.51,4.3c3.81,3.09,5.75,7.28,5.75,12.45c0,3.77-1.13,6.95-3.35,9.46
			c-2.47,2.77-6.11,4.66-10.82,5.63c-0.1,0.02-0.17,0.11-0.16,0.21c0.06,0.71,0.44,1.07,1.14,1.07c1.39,0,3.13-0.45,5.15-1.33
			c2.02-0.88,3.61-1.94,4.73-3.15l0.04-0.04l0.04,0.04c2.23,2.23,3.35,5.2,3.35,8.84s-1.06,6.54-3.14,8.63l-0.01,0.01H58.49z
			 M74.09,42.42c0.58,0,1.03,0.23,1.36,0.69c0.32,0.45,0.48,1.04,0.48,1.75c0,2.65-1.9,5.2-5.65,7.57
			c-3.71,2.34-7.9,3.98-12.46,4.87c-0.06,0.01-0.11,0.05-0.14,0.1c-1.22,2.19-1.83,4.92-1.83,8.12c0,3.2,0.88,6.16,2.62,8.81
			c0.04,0.06,0.1,0.09,0.17,0.09h31.37c0.05,0,0.11-0.02,0.14-0.06c2.02-2.06,3.04-4.92,3.04-8.49c0-3.51-1.06-6.4-3.14-8.58
			c-0.04-0.04-0.09-0.06-0.14-0.06h0c-0.05,0-0.11,0.02-0.14,0.06c-1.11,1.14-2.66,2.15-4.59,2.99c-2.03,0.89-3.78,1.34-5.19,1.34
			c-1.03,0-1.25-0.75-1.25-1.39v-0.04l0.04-0.01c4.79-0.95,8.49-2.85,10.98-5.64c2.21-2.49,3.33-5.65,3.33-9.39
			c0-5.14-1.92-9.3-5.71-12.37c-3.54-2.84-8.06-4.28-13.45-4.28c-5.39,0-9.87,1.3-13.31,3.86c-3.7,2.74-5.57,6.5-5.57,11.17
			c0,4.63,2.07,8.37,6.14,11.11c0.03,0.02,0.07,0.03,0.11,0.03c0.02,0,0.04,0,0.05-0.01c2.25-0.63,4.57-1.66,6.91-3.06
			c2.28-1.36,4.01-2.88,5.16-4.5c0.06-0.09,0.04-0.2-0.04-0.27c-0.71-0.57-1.06-1.43-1.06-2.56C72.32,43.05,72.92,42.42,74.09,42.42
			z"/>
	</g>
</g>
</svg>
