<?xml version="1.0" encoding="utf-8"?>
<!-- Generator: Adobe Illustrator 23.0.0, SVG Export Plug-In . SVG Version: 6.00 Build 0)  -->
<svg version="1.1" id="圖層_1" xmlns="http://www.w3.org/2000/svg" xmlns:xlink="http://www.w3.org/1999/xlink" x="0px" y="0px"
	 viewBox="0 0 100 100" style="enable-background:new 0 0 100 100;" xml:space="preserve">
<style type="text/css">
	.st0{fill:#420039;}
	.st1{fill:#FFFFFF;}
	.st2{fill:#FFE46A;stroke:#000000;stroke-width:2;stroke-miterlimit:10;}
	.st3{fill:#FF9EB8;stroke:#000000;stroke-width:2;stroke-miterlimit:10;}
	.st4{fill:#FFFFFF;stroke:#000000;stroke-width:2;stroke-miterlimit:10;}
	.st5{fill:none;stroke:#000000;}
	.st6{fill:#2A6CFF;stroke:#000000;}
	.st7{fill:#FF6978;}
	.st8{fill:#FFDC6E;stroke:#000000;stroke-width:2;stroke-miterlimit:10;}
	.st9{fill:#90B8E6;stroke:#000000;stroke-width:2;stroke-miterlimit:10;}
	.st10{fill:none;stroke:#000000;stroke-width:2;stroke-miterlimit:10;}
	.st11{fill:#FFDE00;}
	.st12{stroke:#000000;stroke-miterlimit:10;}
	.st13{fill:#59E8DC;}
	.st14{fill:none;stroke:#59E8DC;stroke-width:2;}
	.st15{fill:#FEFEFE;}
	.st16{fill:none;stroke:#FFFFFF;stroke-width:6;stroke-miterlimit:10;}
	.st17{fill:none;stroke:#59E8DC;stroke-width:6;stroke-miterlimit:10;}
	.st18{fill:#90B8E6;stroke:#000000;stroke-width:2;stroke-linecap:round;stroke-linejoin:round;stroke-miterlimit:10;}
</style>
<g>
	<g>
		<path class="st1" d="M25.75,75.43c-6.2,0-11.13-2-14.66-5.96c-3.72-4.12-5.6-9.93-5.6-17.3c0-7.36,1.91-13.25,5.69-17.51
			c3.78-4.26,8.68-6.42,14.57-6.42s10.8,2.16,14.57,6.42c3.78,4.25,5.69,10.14,5.69,17.49s-1.87,13.17-5.57,17.31
			C36.9,73.42,31.95,75.43,25.75,75.43z M25.75,28.36c-5.86,0-10.74,2.15-14.5,6.38c-3.76,4.24-5.67,10.1-5.67,17.44
			s1.88,13.13,5.58,17.23c3.51,3.93,8.42,5.93,14.59,5.93c6.17,0,11.09-1.99,14.62-5.92c3.68-4.12,5.54-9.92,5.54-17.25
			s-1.91-13.19-5.67-17.42C36.5,30.5,31.62,28.36,25.75,28.36z M31.77,61.16c-0.6,0-1.55-0.6-2.85-1.77
			c-1.24-1.1-2.64-2.71-4.17-4.81c-1.53-2.09-2.68-3.9-3.43-5.39c-0.76-1.51-1.13-2.56-1.13-3.2c0-0.87,0.38-1.32,1.14-1.32h0.04
			l0.01,0.04c0.12,0.47,0.68,1.63,1.72,3.54c1.03,1.89,2.07,3.57,3.11,4.99c1.03,1.42,2.29,2.87,3.74,4.32
			c1.21,1.25,2.18,2.15,2.88,2.67l0.03,0.02l0,0.03C32.74,60.85,32.37,61.16,31.77,61.16z M21.12,44.79
			c-0.55,0.07-0.83,0.48-0.83,1.2c0,0.63,0.37,1.67,1.12,3.16c0.75,1.48,1.9,3.29,3.42,5.37c1.53,2.09,2.92,3.7,4.16,4.79
			c1.27,1.16,2.21,1.75,2.78,1.75c0.49,0,0.81-0.21,0.93-0.63c0.02-0.08,0-0.17-0.07-0.22c-0.69-0.53-1.62-1.39-2.76-2.58
			c-1.45-1.45-2.71-2.91-3.75-4.33c-1.04-1.43-2.09-3.11-3.11-5c-0.93-1.71-1.47-2.81-1.67-3.38c-0.03-0.08-0.1-0.13-0.19-0.13
			C21.13,44.78,21.13,44.79,21.12,44.79z"/>
	</g>
	<g>
		<path class="st1" d="M73.89,75.5c-5.67,0-10.4-1.29-14.06-3.84c-3.67-2.55-5.52-6-5.52-10.24c0-2.6,0.85-4.8,2.53-6.52
			s4.08-2.6,7.15-2.6l0.67,0.01c0.05,0.02,0.3,0.02,0.49,0.02h0.04l0.01,0.04c0.42,2.65,1.52,4.75,3.29,6.26
			c1.76,1.51,3.81,2.27,6.08,2.27c1.79,0,2.69-0.34,2.69-1c0-0.22-0.03-0.4-0.08-0.56c-0.03-0.08-0.11-0.14-0.19-0.14
			c-0.01,0-0.02,0-0.03,0c-0.56,0.09-1.27,0.14-2.11,0.14c-2.23,0-4.13-0.71-5.66-2.12s-2.3-3.31-2.3-5.66s0.74-4.25,2.21-5.64
			c1.47-1.4,3.41-2.11,5.78-2.11h0.63c0.15,0,0.35,0.01,0.58,0.04c0.01,0,0.02,0,0.03,0c0.09,0,0.17-0.06,0.19-0.15
			c0.02-0.07,0.03-0.15,0.03-0.23c0-0.71-0.61-1.08-1.81-1.08c-2.04,0-3.94,0.6-5.65,1.78c-1.7,1.18-2.89,2.95-3.51,5.25l-0.01,0.04
			h-0.04c-3.51,0-6.26-0.84-8.15-2.51c-1.62-1.41-2.44-3.28-2.44-5.56c0-3.82,1.76-7.01,5.24-9.5c3.47-2.48,8.06-3.74,13.63-3.74
			c5.58,0,10.24,1.41,13.86,4.19c3.61,2.79,5.43,6.44,5.43,10.87c0,2.93-1.07,5.38-3.18,7.28l-0.02,0.02l-0.03-0.01
			c-1.02-0.49-1.92-0.73-2.69-0.73c-0.75,0-1.11,0.29-1.11,0.9c0,0.19,0.04,0.35,0.1,0.46c0.04,0.06,0.1,0.09,0.17,0.09
			c1.81,0.03,3.49,0.72,4.99,2.05c1.9,1.69,2.86,4.13,2.86,7.24c0,4.73-2.03,8.5-6.03,11.22C84.29,74.24,79.56,75.5,73.89,75.5z
			 M64,52.4c-3.04,0-5.43,0.86-7.08,2.57s-2.5,3.88-2.5,6.45c0,4.21,1.84,7.62,5.48,10.15c3.64,2.54,8.35,3.82,14,3.82
			s10.36-1.25,14.02-3.72c3.97-2.7,5.99-6.44,5.99-11.14c0-3.09-0.95-5.5-2.83-7.17c-1.51-1.34-3.2-2.03-5.03-2.03
			c-0.18-0.14-0.26-0.35-0.26-0.65c0-0.66,0.41-1,1.21-1c0.74,0,1.61,0.23,2.58,0.67c0.03,0.01,0.06,0.02,0.08,0.02
			c0.05,0,0.1-0.02,0.14-0.05c2.01-1.86,3.02-4.25,3.02-7.09c0-4.39-1.82-8.02-5.4-10.79c-3.61-2.77-8.25-4.17-13.8-4.17
			c-5.55,0-10.12,1.25-13.58,3.72c-3.45,2.46-5.2,5.63-5.2,9.42c0,2.25,0.81,4.09,2.41,5.48c1.84,1.62,4.5,2.45,7.9,2.48
			c0,0,0,0,0,0c0.09,0,0.17-0.06,0.19-0.14c0.64-2.23,1.82-3.96,3.5-5.12c1.72-1.2,3.64-1.8,5.71-1.8c1.27,0,1.91,0.4,1.91,1.17
			c0,0.17-0.04,0.33-0.11,0.48L76.33,44L76.3,44c-0.33-0.05-0.59-0.07-0.77-0.07H74.9c-2.34,0-4.27,0.7-5.71,2.08
			C67.73,47.39,67,49.26,67,51.58s0.76,4.2,2.27,5.59c1.51,1.39,3.39,2.1,5.59,2.1c0.93,0,1.69-0.06,2.28-0.17l0.03-0.01l0.02,0.03
			c0.12,0.2,0.18,0.46,0.18,0.8c0,1.1-2.1,1.1-2.79,1.1c-2.3,0-4.37-0.77-6.15-2.3c-1.74-1.48-2.84-3.54-3.29-6.12
			c-0.02-0.09-0.1-0.16-0.19-0.17c-0.19,0-0.29-0.01-0.34-0.03L64,52.4z"/>
	</g>
</g>
</svg>
