<?xml version="1.0" encoding="utf-8"?>
<!-- Generator: Adobe Illustrator 23.0.0, SVG Export Plug-In . SVG Version: 6.00 Build 0)  -->
<svg version="1.1" id="圖層_1" xmlns="http://www.w3.org/2000/svg" xmlns:xlink="http://www.w3.org/1999/xlink" x="0px" y="0px"
	 viewBox="0 0 100 100" style="enable-background:new 0 0 100 100;" xml:space="preserve">
<style type="text/css">
	.st0{fill:#420039;}
	.st1{fill:#FFFFFF;}
	.st2{fill:#FFE46A;stroke:#000000;stroke-width:2;stroke-miterlimit:10;}
	.st3{fill:#FF9EB8;stroke:#000000;stroke-width:2;stroke-miterlimit:10;}
	.st4{fill:#FFFFFF;stroke:#000000;stroke-width:2;stroke-miterlimit:10;}
	.st5{fill:none;stroke:#000000;}
	.st6{fill:#2A6CFF;stroke:#000000;}
	.st7{fill:#FF6978;}
	.st8{fill:#FFDC6E;stroke:#000000;stroke-width:2;stroke-miterlimit:10;}
	.st9{fill:#90B8E6;stroke:#000000;stroke-width:2;stroke-miterlimit:10;}
	.st10{fill:none;stroke:#000000;stroke-width:2;stroke-miterlimit:10;}
	.st11{fill:#FFDE00;}
	.st12{stroke:#000000;stroke-miterlimit:10;}
	.st13{fill:#59E8DC;}
	.st14{fill:none;stroke:#59E8DC;stroke-width:2;}
	.st15{fill:#FEFEFE;}
	.st16{fill:none;stroke:#FFFFFF;stroke-width:6;stroke-miterlimit:10;}
	.st17{fill:none;stroke:#59E8DC;stroke-width:6;stroke-miterlimit:10;}
	.st18{fill:#90B8E6;stroke:#000000;stroke-width:2;stroke-linecap:round;stroke-linejoin:round;stroke-miterlimit:10;}
</style>
<g>
	<g>
		<path class="st1" d="M25.75,74.36c-6.2,0-11.13-2-14.66-5.96c-3.72-4.12-5.6-9.93-5.6-17.3c0-7.36,1.91-13.25,5.69-17.51
			c3.78-4.26,8.68-6.42,14.57-6.42s10.8,2.16,14.57,6.42c3.78,4.25,5.69,10.14,5.69,17.49s-1.87,13.17-5.57,17.31
			C36.9,72.35,31.95,74.36,25.75,74.36z M25.75,27.28c-5.86,0-10.74,2.15-14.5,6.38C7.5,37.9,5.59,43.77,5.59,51.1
			s1.88,13.13,5.58,17.23c3.51,3.93,8.42,5.93,14.59,5.93c6.17,0,11.09-1.99,14.62-5.92c3.68-4.12,5.54-9.92,5.54-17.25
			s-1.91-13.19-5.67-17.42C36.5,29.43,31.62,27.28,25.75,27.28z M31.77,60.08c-0.6,0-1.55-0.6-2.85-1.77
			c-1.24-1.1-2.64-2.71-4.17-4.81c-1.53-2.09-2.68-3.9-3.43-5.39c-0.76-1.51-1.13-2.56-1.13-3.2c0-0.87,0.38-1.32,1.14-1.32h0.04
			l0.01,0.04c0.12,0.47,0.68,1.63,1.72,3.54c1.03,1.89,2.07,3.57,3.11,4.99c1.03,1.42,2.29,2.87,3.74,4.32
			c1.21,1.25,2.18,2.15,2.88,2.67l0.03,0.02l0,0.03C32.74,59.78,32.37,60.08,31.77,60.08z M21.12,43.71
			c-0.55,0.07-0.83,0.48-0.83,1.2c0,0.63,0.37,1.67,1.12,3.16c0.75,1.48,1.9,3.29,3.42,5.37c1.53,2.09,2.92,3.7,4.16,4.79
			c1.27,1.16,2.21,1.75,2.78,1.75c0.49,0,0.81-0.21,0.93-0.63c0.02-0.08,0-0.17-0.07-0.22c-0.69-0.53-1.62-1.39-2.76-2.58
			c-1.45-1.45-2.71-2.91-3.75-4.33c-1.04-1.43-2.09-3.11-3.11-5c-0.93-1.71-1.47-2.81-1.67-3.38c-0.03-0.08-0.1-0.13-0.19-0.13
			C21.13,43.71,21.13,43.71,21.12,43.71z"/>
	</g>
	<g>
		<path class="st1" d="M80.82,74.43c-3.71,0-6.78-0.89-9.12-2.65l-0.02-0.01v-3.87h2.9c0.74,0,1.28-0.06,1.6-0.19
			c0.31-0.12,0.46-0.33,0.46-0.62c0-0.22-0.02-0.42-0.07-0.6c-0.02-0.09-0.1-0.15-0.19-0.15H65.9c-3.93,0-6.99-1.25-9.07-3.71
			c-1.9-2.2-2.86-5.22-2.86-8.96c0-1.94,0.17-3.66,0.49-5.11c3.47-2.99,6.72-6.4,9.68-10.18c1.63-2.1,4.08-5.68,7.27-10.65
			l0.01-0.02h8.99c2.93,0,5.35,0.8,7.2,2.38c1.85,1.58,2.79,3.78,2.79,6.52V50.1h-0.79c-0.98,0-1.46,0.38-1.46,1.15v0.21
			c0,0.11,0.09,0.2,0.2,0.2h5.44l0.01,0.03c0.82,2.06,1.23,4.44,1.23,7.08c0,1.83-0.39,3.45-1.17,4.82
			c-0.75,1.32-1.88,2.18-3.36,2.56c-0.09,0.02-0.15,0.1-0.15,0.19v5.21l-0.02,0.01C87.74,73.47,84.53,74.43,80.82,74.43z
			 M71.98,67.99c-0.11,0-0.2,0.09-0.2,0.2v3.42c0,0.06,0.03,0.12,0.08,0.16c2.31,1.69,5.32,2.55,8.96,2.55
			c3.64,0,6.79-0.93,9.38-2.76c0.05-0.04,0.08-0.1,0.08-0.16v-5.29l0.04-0.01c1.55-0.35,2.72-1.21,3.48-2.56
			c0.77-1.36,1.15-2.96,1.15-4.77c0-2.56-0.39-4.88-1.17-6.89c-0.03-0.08-0.1-0.13-0.19-0.13h-5.54v-0.51
			c0-0.83,0.53-1.25,1.56-1.25h0.49c0.11,0,0.2-0.09,0.2-0.2V36.62c0-2.71-0.93-4.88-2.76-6.45c-1.83-1.57-4.24-2.36-7.14-2.36
			h-8.83c-0.07,0-0.13,0.04-0.17,0.09c-3.16,4.91-5.58,8.46-7.21,10.54c-2.95,3.76-6.18,7.16-9.61,10.11
			c-0.03,0.03-0.05,0.07-0.06,0.11c-0.31,1.42-0.47,3.11-0.47,5c0,3.72,0.95,6.71,2.84,8.9c2.07,2.44,5.09,3.67,9,3.67h10.68
			l0.01,0.03c0.1,0.22,0.14,0.49,0.14,0.81c0,0.34-0.18,0.58-0.52,0.71c-0.34,0.13-0.87,0.2-1.64,0.2H71.98z M71.33,52.31v-0.74
			l0.02-0.01c1.12-1.02,2.12-2.38,2.98-4.03l0.01-0.03h0.85v4.81H71.33z M74.52,47.6c-0.07,0-0.14,0.04-0.18,0.11
			c-0.83,1.56-1.79,2.86-2.85,3.85c-0.04,0.04-0.06,0.09-0.06,0.15v0.31c0,0.11,0.09,0.2,0.2,0.2h3.26c0.11,0,0.2-0.09,0.2-0.2V47.8
			c0-0.11-0.09-0.2-0.2-0.2H74.52z"/>
	</g>
</g>
</svg>
