<?xml version="1.0" encoding="utf-8"?>
<!-- Generator: Adobe Illustrator 23.0.0, SVG Export Plug-In . SVG Version: 6.00 Build 0)  -->
<svg version="1.1" id="圖層_1" xmlns="http://www.w3.org/2000/svg" xmlns:xlink="http://www.w3.org/1999/xlink" x="0px" y="0px"
	 viewBox="0 0 100 100" style="enable-background:new 0 0 100 100;" xml:space="preserve">
<style type="text/css">
	.st0{fill:#420039;}
	.st1{fill:#FFFFFF;}
	.st2{fill:#FFE46A;stroke:#000000;stroke-width:2;stroke-miterlimit:10;}
	.st3{fill:#FF9EB8;stroke:#000000;stroke-width:2;stroke-miterlimit:10;}
	.st4{fill:#FFFFFF;stroke:#000000;stroke-width:2;stroke-miterlimit:10;}
	.st5{fill:none;stroke:#000000;}
	.st6{fill:#2A6CFF;stroke:#000000;}
	.st7{fill:#FF6978;}
	.st8{fill:#FFDC6E;stroke:#000000;stroke-width:2;stroke-miterlimit:10;}
	.st9{fill:#90B8E6;stroke:#000000;stroke-width:2;stroke-miterlimit:10;}
	.st10{fill:none;stroke:#000000;stroke-width:2;stroke-miterlimit:10;}
	.st11{fill:#FFDE00;}
	.st12{stroke:#000000;stroke-miterlimit:10;}
	.st13{fill:#59E8DC;}
	.st14{fill:none;stroke:#59E8DC;stroke-width:2;}
	.st15{fill:#FEFEFE;}
	.st16{fill:none;stroke:#FFFFFF;stroke-width:6;stroke-miterlimit:10;}
	.st17{fill:none;stroke:#59E8DC;stroke-width:6;stroke-miterlimit:10;}
	.st18{fill:#90B8E6;stroke:#000000;stroke-width:2;stroke-linecap:round;stroke-linejoin:round;stroke-miterlimit:10;}
</style>
<g>
	<g>
		<path class="st1" d="M26.75,74.36c-6.2,0-11.13-2-14.66-5.96c-3.72-4.12-5.6-9.93-5.6-17.3c0-7.36,1.91-13.25,5.69-17.51
			c3.78-4.26,8.68-6.42,14.57-6.42s10.8,2.16,14.57,6.42c3.78,4.25,5.69,10.14,5.69,17.49s-1.87,13.17-5.57,17.31
			C37.9,72.35,32.95,74.36,26.75,74.36z M26.75,27.28c-5.86,0-10.74,2.15-14.5,6.38C8.5,37.9,6.59,43.77,6.59,51.1
			s1.88,13.13,5.58,17.23c3.51,3.93,8.42,5.93,14.59,5.93c6.17,0,11.09-1.99,14.62-5.92c3.68-4.12,5.54-9.92,5.54-17.25
			s-1.91-13.19-5.67-17.42C37.5,29.43,32.62,27.28,26.75,27.28z M32.77,60.08c-0.6,0-1.55-0.6-2.85-1.77
			c-1.24-1.1-2.64-2.71-4.17-4.81c-1.53-2.09-2.68-3.9-3.43-5.39c-0.76-1.51-1.13-2.56-1.13-3.2c0-0.87,0.38-1.32,1.14-1.32h0.04
			l0.01,0.04c0.12,0.47,0.68,1.63,1.72,3.54c1.03,1.89,2.07,3.57,3.11,4.99c1.03,1.42,2.29,2.87,3.74,4.32
			c1.21,1.25,2.18,2.15,2.88,2.67l0.03,0.02l0,0.03C33.74,59.78,33.37,60.08,32.77,60.08z M22.12,43.71
			c-0.55,0.07-0.83,0.48-0.83,1.2c0,0.63,0.37,1.67,1.12,3.16c0.75,1.48,1.9,3.29,3.42,5.37c1.53,2.09,2.92,3.7,4.16,4.79
			c1.27,1.16,2.21,1.75,2.78,1.75c0.49,0,0.81-0.21,0.93-0.63c0.02-0.08,0-0.17-0.07-0.22c-0.69-0.53-1.62-1.39-2.76-2.58
			c-1.45-1.45-2.71-2.91-3.75-4.33c-1.04-1.43-2.09-3.11-3.11-5c-0.93-1.71-1.47-2.81-1.67-3.38c-0.03-0.08-0.1-0.13-0.19-0.13
			C22.13,43.71,22.13,43.71,22.12,43.71z"/>
	</g>
	<g>
		<path class="st1" d="M73.75,74.43c-5.73,0-10.28-1.25-13.53-3.72c-3.26-2.47-4.91-5.63-4.91-9.37c0-2.98,1-5.34,2.99-7.03
			c1.98-1.69,4.34-2.54,7.01-2.54s4.95,0.77,6.78,2.3c2,1.71,3.12,4.01,3.31,6.83c0,0.05,0.03,0.1,0.07,0.14
			c0.04,0.03,0.08,0.05,0.13,0.05c0,0,0.01,0,0.02,0c0.89-0.07,1.32-0.55,1.32-1.45c0-2.46-1.02-4.65-3.04-6.52
			c-2.02-1.87-4.89-2.82-8.54-2.82c-2.21,0-4.27,0.42-6.13,1.26l-0.02,0.01l-0.02-0.01c-0.78-0.28-1.41-0.81-1.85-1.57
			c-0.45-0.75-0.67-1.59-0.67-2.49c0-0.14,0.05-0.64,0.14-1.52c0.35-4.9,0.88-9.69,1.58-14.24c0.26-1.69,0.67-2.76,1.21-3.18
			c0.55-0.42,1.63-0.63,3.3-0.63h26.96l0.01,0.02c1.22,2.04,1.83,4.74,1.83,8.04c0,3.3-0.71,5.97-2.12,7.94l-0.03,0.04l-0.04-0.02
			c-1.44-0.88-2.85-1.56-4.17-2c-2.07-0.65-4.32-0.98-6.7-0.98h-3.72c-0.1,0-0.18,0.07-0.2,0.17l-0.14,1.08
			c-0.01,0.06,0.01,0.11,0.05,0.16c0.04,0.04,0.09,0.07,0.15,0.07h2.98c4.84,0,8.83,1.27,11.84,3.77c3.3,2.76,4.98,6.7,4.98,11.71
			S92.7,66.98,89,69.95C85.31,72.92,80.18,74.43,73.75,74.43z M65.31,51.86c-2.65,0-4.98,0.85-6.95,2.52
			c-1.96,1.67-2.95,4.01-2.95,6.96c0,3.72,1.64,6.84,4.87,9.29c3.23,2.45,7.77,3.7,13.47,3.7c6.4,0,11.52-1.5,15.19-4.45
			c3.67-2.95,5.54-6.97,5.54-11.95s-1.66-8.89-4.94-11.63c-3-2.49-6.96-3.75-11.78-3.75h-3.33l0.22-1.68h3.98
			c2.38,0,4.65,0.33,6.73,0.99c1.27,0.42,2.62,1.06,3.99,1.89c0.03,0.02,0.07,0.03,0.1,0.03c0.06,0,0.13-0.03,0.17-0.09
			c1.3-1.93,1.96-4.52,1.96-7.69c0-3.21-0.59-5.86-1.75-7.87c-0.04-0.06-0.1-0.1-0.17-0.1H62.89c-1.65,0-2.71,0.2-3.24,0.61
			c-0.53,0.4-0.92,1.45-1.18,3.11c-0.7,4.54-1.23,9.33-1.58,14.23c-0.09,0.88-0.14,1.37-0.14,1.51c0,0.88,0.22,1.7,0.66,2.44
			c0.42,0.7,0.99,1.21,1.7,1.49c0.02,0.01,0.05,0.01,0.07,0.01c0.03,0,0.05-0.01,0.08-0.02c1.85-0.81,3.89-1.23,6.08-1.23
			c3.68,0,6.57,0.96,8.61,2.84c2.04,1.89,3.07,4.11,3.07,6.59c0,1.04-0.56,1.56-1.67,1.56h-0.05l0-0.05c-0.14-2.9-1.25-5.25-3.29-7
			C70.22,52.62,67.96,51.86,65.31,51.86z"/>
	</g>
</g>
</svg>
