<?xml version="1.0" encoding="utf-8"?>
<!-- Generator: Adobe Illustrator 23.0.0, SVG Export Plug-In . SVG Version: 6.00 Build 0)  -->
<svg version="1.1" id="圖層_1" xmlns="http://www.w3.org/2000/svg" xmlns:xlink="http://www.w3.org/1999/xlink" x="0px" y="0px"
	 viewBox="0 0 100 100" style="enable-background:new 0 0 100 100;" xml:space="preserve">
<style type="text/css">
	.st0{fill:#420039;}
	.st1{fill:#FFFFFF;}
	.st2{fill:#FFE46A;stroke:#000000;stroke-width:2;stroke-miterlimit:10;}
	.st3{fill:#FF9EB8;stroke:#000000;stroke-width:2;stroke-miterlimit:10;}
	.st4{fill:#FFFFFF;stroke:#000000;stroke-width:2;stroke-miterlimit:10;}
	.st5{fill:none;stroke:#000000;}
	.st6{fill:#2A6CFF;stroke:#000000;}
	.st7{fill:#FF6978;}
	.st8{fill:#FFDC6E;stroke:#000000;stroke-width:2;stroke-miterlimit:10;}
	.st9{fill:#90B8E6;stroke:#000000;stroke-width:2;stroke-miterlimit:10;}
	.st10{fill:none;stroke:#000000;stroke-width:2;stroke-miterlimit:10;}
	.st11{fill:#FFDE00;}
	.st12{stroke:#000000;stroke-miterlimit:10;}
	.st13{fill:#59E8DC;}
	.st14{fill:none;stroke:#59E8DC;stroke-width:2;}
	.st15{fill:#FEFEFE;}
	.st16{fill:none;stroke:#FFFFFF;stroke-width:6;stroke-miterlimit:10;}
	.st17{fill:none;stroke:#59E8DC;stroke-width:6;stroke-miterlimit:10;}
	.st18{fill:#90B8E6;stroke:#000000;stroke-width:2;stroke-linecap:round;stroke-linejoin:round;stroke-miterlimit:10;}
</style>
<g>
	<g>
		<path class="st1" d="M25.86,72.54c-6.2,0-11.13-2-14.66-5.96c-3.72-4.12-5.6-9.93-5.6-17.3c0-7.36,1.91-13.25,5.69-17.51
			c3.78-4.26,8.68-6.42,14.57-6.42s10.8,2.16,14.57,6.42c3.78,4.25,5.69,10.14,5.69,17.49s-1.87,13.17-5.57,17.31
			C37,70.54,32.06,72.54,25.86,72.54z M25.86,25.47c-5.86,0-10.74,2.15-14.5,6.38c-3.76,4.24-5.67,10.1-5.67,17.44
			s1.88,13.13,5.58,17.23c3.51,3.93,8.42,5.93,14.59,5.93c6.17,0,11.09-1.99,14.62-5.92c3.68-4.12,5.54-9.92,5.54-17.25
			s-1.91-13.19-5.67-17.42C36.6,27.62,31.72,25.47,25.86,25.47z M31.87,58.27c-0.6,0-1.55-0.6-2.85-1.77
			c-1.24-1.1-2.64-2.71-4.17-4.81c-1.53-2.09-2.68-3.9-3.43-5.39c-0.76-1.51-1.13-2.56-1.13-3.2c0-0.87,0.38-1.32,1.14-1.32h0.04
			l0.01,0.04c0.12,0.47,0.68,1.63,1.72,3.54c1.03,1.89,2.07,3.57,3.11,4.99c1.03,1.42,2.29,2.87,3.74,4.32
			c1.21,1.25,2.18,2.15,2.88,2.67l0.03,0.02l0,0.03C32.84,57.97,32.47,58.27,31.87,58.27z M21.22,41.9
			c-0.55,0.07-0.83,0.48-0.83,1.2c0,0.63,0.37,1.67,1.12,3.16c0.75,1.48,1.9,3.29,3.42,5.37c1.53,2.09,2.92,3.7,4.16,4.79
			c1.27,1.16,2.21,1.75,2.78,1.75c0.49,0,0.81-0.21,0.93-0.63c0.02-0.08,0-0.17-0.07-0.22c-0.69-0.53-1.62-1.39-2.76-2.58
			c-1.45-1.45-2.71-2.91-3.75-4.33c-1.04-1.43-2.09-3.11-3.11-5c-0.93-1.71-1.47-2.81-1.67-3.38c-0.03-0.08-0.1-0.13-0.19-0.13
			C21.24,41.9,21.23,41.9,21.22,41.9z"/>
	</g>
	<g>
		<path class="st1" d="M76.23,72.58c-6.06,0-11.09-1.9-14.98-5.64c-4.3-4.12-6.48-9.92-6.48-17.26c0-4.23,0.81-8.23,2.41-11.89
			c1.6-3.66,4.06-6.64,7.31-8.86c3.53-2.36,7.77-3.56,12.61-3.56c6.22,0,10.96,1.46,14.1,4.34c0.04,0.23,0.05,0.56,0.05,1.06v1.02
			c0,1.8-0.24,3.59-0.71,5.32c-0.47,1.73-1.17,3.19-2.08,4.34l-0.02,0.03l-0.04-0.02c-2.56-1.19-5.49-1.79-8.7-1.79
			c-2.09,0-3.99,0.29-5.64,0.86c-1.63,0.56-2.46,1.18-2.46,1.83c0,0.19,0.04,0.37,0.12,0.54c0.03,0.07,0.11,0.12,0.18,0.12
			c0.03,0,0.05-0.01,0.08-0.02c2.8-1.23,5.4-1.85,7.73-1.85c5.1,0,9.02,1.51,11.64,4.48c2.32,2.67,3.49,6.22,3.49,10.54
			c0,5.08-1.96,9.2-5.82,12.24C85.49,71.18,81.19,72.58,76.23,72.58z M77.11,25.47c-4.82,0-9.04,1.19-12.56,3.54
			c-3.24,2.21-5.68,5.18-7.28,8.82c-1.59,3.64-2.4,7.63-2.4,11.84c0,7.31,2.17,13.09,6.45,17.19c3.86,3.72,8.88,5.61,14.91,5.61
			c4.93,0,9.22-1.39,12.73-4.14c3.84-3.02,5.78-7.11,5.78-12.16c0-4.3-1.17-7.83-3.47-10.48c-2.6-2.95-6.49-4.45-11.56-4.45
			c-2.37,0-5.03,0.65-7.89,1.93l-0.04,0.02l-0.02-0.03c-0.17-0.24-0.25-0.51-0.25-0.8c0-0.7,0.85-1.35,2.53-1.93
			c1.66-0.57,3.57-0.86,5.68-0.86c3.15,0,6.03,0.58,8.56,1.72c0.03,0.01,0.05,0.02,0.08,0.02c0.06,0,0.12-0.03,0.16-0.08
			c0.85-1.11,1.5-2.51,1.94-4.15c0.46-1.72,0.7-3.5,0.7-5.29v-1.02c0-0.42-0.01-0.72-0.03-0.92c0-0.05-0.03-0.1-0.07-0.13
			C87.95,26.9,83.25,25.47,77.11,25.47z M75.7,56.94c-0.78,0-1.42-0.25-1.88-0.75c-0.46-0.5-0.7-1.16-0.7-1.97v-0.03l0.03-0.01
			c0.52-0.28,1.24-0.43,2.13-0.43c1.5,0,2.26,0.57,2.26,1.7C77.55,56.43,76.93,56.94,75.7,56.94z M75.28,53.84
			c-0.8,0-1.45,0.12-1.94,0.34c-0.07,0.03-0.12,0.11-0.12,0.19c0.03,0.72,0.25,1.29,0.67,1.74c0.45,0.49,1.04,0.72,1.81,0.72
			c1.16,0,1.74-0.47,1.74-1.39C77.45,54.37,76.74,53.84,75.28,53.84z"/>
	</g>
</g>
</svg>
