<?xml version="1.0" encoding="utf-8"?>
<!-- Generator: Adobe Illustrator 25.2.1, SVG Export Plug-In . SVG Version: 6.00 Build 0)  -->
<svg version="1.1" id="圖層_1" xmlns="http://www.w3.org/2000/svg" xmlns:xlink="http://www.w3.org/1999/xlink" x="0px" y="0px"
	 viewBox="0 0 100 100" style="enable-background:new 0 0 100 100;" xml:space="preserve">
<style type="text/css">
	.st0{fill:none;stroke:#59E8DC;stroke-width:2;}
	.st1{fill:#FEFEFE;}
	.st2{fill:#FFFFFF;}
</style>
<g>
	<g>
		<path class="st2" d="M25,74.36c-6.2,0-11.13-2-14.66-5.96c-3.72-4.12-5.6-9.93-5.6-17.3c0-7.36,1.91-13.25,5.69-17.51
			c3.78-4.26,8.68-6.42,14.57-6.42s10.8,2.16,14.57,6.42c3.78,4.25,5.69,10.14,5.69,17.49S43.39,64.26,39.7,68.4
			C36.14,72.35,31.2,74.36,25,74.36z M25,27.28c-5.86,0-10.74,2.15-14.5,6.38C6.74,37.9,4.83,43.77,4.83,51.1s1.88,13.13,5.58,17.23
			c3.51,3.93,8.42,5.93,14.59,5.93c6.17,0,11.09-1.99,14.62-5.92c3.68-4.12,5.54-9.92,5.54-17.25S43.26,37.9,39.5,33.67
			C35.74,29.43,30.86,27.28,25,27.28z M31.01,60.08c-0.6,0-1.55-0.6-2.85-1.77c-1.24-1.1-2.64-2.71-4.17-4.81
			c-1.53-2.09-2.68-3.9-3.43-5.39c-0.76-1.51-1.13-2.56-1.13-3.2c0-0.87,0.38-1.32,1.14-1.32h0.04l0.01,0.04
			c0.12,0.47,0.68,1.63,1.72,3.54c1.03,1.89,2.07,3.57,3.11,4.99c1.03,1.42,2.29,2.87,3.74,4.32c1.21,1.25,2.18,2.15,2.88,2.67
			l0.03,0.02l0,0.03C31.98,59.78,31.61,60.08,31.01,60.08z M20.36,43.71c-0.55,0.07-0.83,0.48-0.83,1.2c0,0.63,0.37,1.67,1.12,3.16
			c0.75,1.48,1.9,3.29,3.42,5.37c1.53,2.09,2.92,3.7,4.16,4.79c1.27,1.16,2.21,1.75,2.78,1.75c0.49,0,0.81-0.21,0.93-0.63
			c0.02-0.08,0-0.17-0.07-0.22c-0.69-0.53-1.62-1.39-2.76-2.58c-1.45-1.45-2.71-2.91-3.75-4.33c-1.04-1.43-2.09-3.11-3.11-5
			c-0.93-1.71-1.47-2.81-1.67-3.38c-0.03-0.08-0.1-0.13-0.19-0.13C20.38,43.71,20.37,43.71,20.36,43.71z"/>
	</g>
	<g>
		<path class="st2" d="M74.21,74.39c-5.87,0-10.75-1.42-14.51-4.23c-3.84-2.81-5.79-6.7-5.79-11.57c0-2.01,0.31-3.71,0.92-5.03
			c0.61-1.33,1.36-2.37,2.23-3.09l0.04-0.03l0.03,0.04c0.46,0.53,1.27,1.11,2.41,1.71c1.14,0.6,2.02,0.91,2.61,0.91
			c0.22,0,0.89,0,0.96-0.96c0.01-0.09-0.04-0.17-0.13-0.2c-1.98-0.79-3.63-1.81-4.88-3.04c-1.95-1.85-2.93-4.2-2.93-6.96
			c0-4.26,1.7-7.83,5.06-10.6c3.36-2.77,7.83-4.18,13.29-4.18c5.46,0,10.05,1.36,13.65,4.05c3.61,2.69,5.43,6.15,5.43,10.27
			c0,1.22-0.2,2.37-0.58,3.43c-0.39,1.06-0.93,1.87-1.62,2.41l-0.03,0.02l-0.03-0.02c-0.28-0.16-0.54-0.34-0.78-0.53
			c-1.56-0.95-2.76-1.43-3.59-1.43c-0.64,0-0.98,0.31-1.03,0.95c-0.01,0.09,0.05,0.17,0.13,0.21c2.98,1.03,5.29,2.48,6.88,4.31
			c1.73,2.11,2.61,4.84,2.61,8.12c0,4.78-1.99,8.63-5.93,11.47C84.94,73.05,80.08,74.39,74.21,74.39z M57.07,50.65
			c-0.05,0-0.1,0.02-0.13,0.05c-0.78,0.71-1.46,1.68-2.02,2.9c-0.6,1.31-0.91,2.99-0.91,4.99c0,4.84,1.93,8.7,5.75,11.49
			c3.75,2.79,8.61,4.21,14.46,4.21s10.68-1.33,14.39-3.96c3.91-2.81,5.88-6.64,5.88-11.38c0-3.25-0.87-5.96-2.59-8.05
			c-1.6-1.86-3.96-3.32-7.01-4.34l-0.03-0.01V46.5c0-0.83,0.38-1.25,1.14-1.25c0.86,0,2.05,0.47,3.65,1.45
			c0.19,0.15,0.4,0.3,0.62,0.43c0.03,0.02,0.07,0.03,0.1,0.03c0.05,0,0.09-0.02,0.13-0.05c0.6-0.53,1.09-1.29,1.44-2.25
			c0.38-1.05,0.58-2.19,0.58-3.39c0-4.09-1.81-7.52-5.39-10.19c-3.58-2.68-8.16-4.03-13.59-4.03c-5.43,0-9.88,1.4-13.22,4.15
			c-3.34,2.75-5.03,6.3-5.03,10.53c0,2.74,0.98,5.06,2.9,6.89c1.28,1.25,2.96,2.29,5.01,3.08l0.03,0.01v0.03
			c0,0.83-0.36,1.25-1.07,1.25c-0.62,0-1.49-0.3-2.66-0.92c-1.04-0.55-1.79-1.06-2.28-1.56C57.17,50.67,57.12,50.65,57.07,50.65z
			 M74.53,59.56c-0.64,0-1.15-0.13-1.52-0.38c-0.38-0.26-0.57-0.59-0.57-1.03c0-0.43,0.26-0.88,0.79-1.39l0.02-0.02l0.02,0
			c2.24,0.44,3.28,0.89,3.28,1.42C76.55,59.09,75.87,59.56,74.53,59.56z M73.34,56.87c-0.05,0-0.1,0.02-0.14,0.06
			c-0.44,0.44-0.66,0.86-0.66,1.22c0,0.39,0.18,0.71,0.52,0.94c0.35,0.24,0.85,0.36,1.47,0.36c1.29,0,1.92-0.42,1.92-1.29
			c0-0.56-1.67-1.02-3.06-1.3C73.37,56.87,73.36,56.87,73.34,56.87z M75.36,44.58c-0.97-0.18-1.8-0.38-2.45-0.58
			c-0.66-0.21-1-0.51-1-0.91c0-0.92,0.68-1.39,2.02-1.39c0.64,0,1.15,0.13,1.52,0.38c0.38,0.26,0.57,0.63,0.57,1.13
			c0,0.49-0.21,0.95-0.61,1.35l-0.02,0.02L75.36,44.58z M73.93,41.8c-1.29,0-1.92,0.42-1.92,1.29c0,0.53,0.7,0.74,0.93,0.81
			c0.61,0.19,1.39,0.38,2.3,0.55c0.01,0,0.03,0,0.04,0c0.06,0,0.11-0.02,0.15-0.07c0.33-0.36,0.49-0.75,0.49-1.18
			c0-0.46-0.18-0.81-0.52-1.05C75.04,41.92,74.55,41.8,73.93,41.8z"/>
	</g>
</g>
</svg>
