<?xml version="1.0" encoding="utf-8"?>
<!-- Generator: Adobe Illustrator 25.2.1, SVG Export Plug-In . SVG Version: 6.00 Build 0)  -->
<svg version="1.1" id="圖層_1" xmlns="http://www.w3.org/2000/svg" xmlns:xlink="http://www.w3.org/1999/xlink" x="0px" y="0px"
	 viewBox="0 0 100 100" style="enable-background:new 0 0 100 100;" xml:space="preserve">
<style type="text/css">
	.st0{fill:none;stroke:#59E8DC;stroke-width:2;}
	.st1{fill:#FEFEFE;}
	.st2{fill:#FFFFFF;}
</style>
<g>
	<g>
		<path class="st2" d="M25.53,74.36c-6.2,0-11.13-2-14.66-5.96c-3.72-4.12-5.6-9.93-5.6-17.3c0-7.36,1.91-13.25,5.69-17.51
			c3.78-4.26,8.68-6.42,14.57-6.42s10.8,2.16,14.57,6.42c3.78,4.25,5.69,10.14,5.69,17.49s-1.87,13.17-5.57,17.31
			C36.67,72.35,31.73,74.36,25.53,74.36z M25.53,27.28c-5.86,0-10.74,2.15-14.5,6.38C7.27,37.9,5.37,43.77,5.37,51.1
			s1.88,13.13,5.58,17.23c3.51,3.93,8.42,5.93,14.59,5.93c6.17,0,11.09-1.99,14.62-5.92c3.68-4.12,5.54-9.92,5.54-17.25
			s-1.91-13.19-5.67-17.42C36.27,29.43,31.4,27.28,25.53,27.28z M31.54,60.08c-0.6,0-1.55-0.6-2.85-1.77
			c-1.24-1.1-2.64-2.71-4.17-4.81c-1.53-2.09-2.68-3.9-3.43-5.39c-0.76-1.51-1.13-2.56-1.13-3.2c0-0.87,0.38-1.32,1.14-1.32h0.04
			l0.01,0.04c0.12,0.47,0.68,1.63,1.72,3.54c1.03,1.89,2.07,3.57,3.11,4.99c1.03,1.42,2.29,2.87,3.74,4.32
			c1.21,1.25,2.18,2.15,2.88,2.67l0.03,0.02l0,0.03C32.52,59.78,32.15,60.08,31.54,60.08z M20.9,43.71
			c-0.55,0.07-0.83,0.48-0.83,1.2c0,0.63,0.37,1.67,1.12,3.16c0.75,1.48,1.9,3.29,3.42,5.37c1.53,2.09,2.92,3.7,4.16,4.79
			c1.27,1.16,2.21,1.75,2.78,1.75c0.49,0,0.81-0.21,0.93-0.63c0.02-0.08,0-0.17-0.07-0.22c-0.69-0.53-1.62-1.39-2.76-2.58
			c-1.45-1.45-2.71-2.91-3.75-4.33c-1.04-1.43-2.09-3.11-3.11-5c-0.93-1.71-1.47-2.81-1.67-3.38c-0.03-0.08-0.1-0.13-0.19-0.13
			C20.91,43.71,20.9,43.71,20.9,43.71z"/>
	</g>
	<g>
		<path class="st2" d="M71.05,74.43c-2.17,0-4.46-0.24-6.79-0.7c-2.3-0.4-3.87-0.83-4.79-1.3c-1.17-1.89-1.75-4.07-1.75-6.48
			c0-1.31,0.21-2.6,0.62-3.83c0.41-1.23,0.95-2.31,1.61-3.2l0.03-0.04l0.04,0.03c1.07,0.81,2.7,1.57,4.85,2.24
			c2.15,0.67,4.44,1.02,6.8,1.02c2.33,0,3.52-0.41,3.52-1.22c0-0.13-0.01-0.25-0.04-0.34c-0.02-0.09-0.1-0.15-0.19-0.15
			c-0.01,0-0.02,0-0.03,0c-0.85,0.14-1.96,0.21-3.31,0.21c-2.81,0-5.56-0.59-8.19-1.76c-2.63-1.17-4.81-2.97-6.47-5.34
			c-1.66-2.38-2.5-5.33-2.5-8.77c0-5.19,1.79-9.48,5.31-12.75c3.52-3.26,8.38-4.92,14.43-4.92c6.06,0,11.04,2.14,14.82,6.36
			c3.78,4.22,5.69,9.76,5.69,16.47c0,7.2-2.12,13.14-6.31,17.65C84.2,72.14,78.37,74.43,71.05,74.43z M60,59.1
			c-0.05,0.01-0.1,0.04-0.13,0.08c-0.58,0.84-1.07,1.84-1.44,2.96c-0.41,1.22-0.61,2.5-0.61,3.8c0,2.37,0.56,4.5,1.68,6.35
			c0.02,0.03,0.05,0.06,0.08,0.08c0.92,0.45,2.5,0.88,4.7,1.26c2.33,0.47,4.61,0.7,6.78,0.7c7.29,0,13.09-2.28,17.26-6.77
			c4.17-4.49,6.28-10.41,6.28-17.58c0-6.68-1.91-12.2-5.67-16.4c-3.76-4.2-8.72-6.33-14.75-6.33c-6.03,0-10.86,1.65-14.36,4.89
			c-3.5,3.24-5.28,7.51-5.28,12.67c0,3.42,0.84,6.35,2.49,8.71c1.65,2.36,3.81,4.15,6.43,5.31c2.62,1.16,5.36,1.75,8.15,1.75
			c1.45,0,2.61-0.08,3.47-0.25l0.03,0l0.02,0.02c0.1,0.13,0.15,0.32,0.15,0.59c0,0.87-1.22,1.32-3.62,1.32
			c-2.37,0-4.67-0.34-6.84-1.02c-2.03-0.64-3.6-1.34-4.68-2.11c-0.03-0.02-0.07-0.04-0.12-0.04C60.02,59.1,60.01,59.1,60,59.1z
			 M74.15,46.72c-1.5,0-2.26-0.57-2.26-1.7c0-0.99,0.62-1.49,1.84-1.49c0.79,0,1.41,0.27,1.87,0.79c0.45,0.52,0.68,1.22,0.68,2.07
			v0.04l-0.04,0.01C75.62,46.63,74.92,46.72,74.15,46.72z M73.72,43.63c-1.16,0-1.74,0.47-1.74,1.39c0,1.08,0.71,1.6,2.17,1.6
			c0.69,0,1.32-0.08,1.87-0.22c0.09-0.02,0.15-0.11,0.15-0.2c-0.03-0.74-0.25-1.35-0.65-1.81C75.08,43.88,74.49,43.63,73.72,43.63z"
			/>
	</g>
</g>
</svg>
