<?xml version="1.0" encoding="utf-8"?>
<!-- Generator: Adobe Illustrator 25.2.1, SVG Export Plug-In . SVG Version: 6.00 Build 0)  -->
<svg version="1.1" id="圖層_1" xmlns="http://www.w3.org/2000/svg" xmlns:xlink="http://www.w3.org/1999/xlink" x="0px" y="0px"
	 viewBox="0 0 100 100" style="enable-background:new 0 0 100 100;" xml:space="preserve">
<style type="text/css">
	.st0{fill:none;stroke:#59E8DC;stroke-width:2;}
	.st1{fill:#FEFEFE;}
	.st2{fill:#FFFFFF;}
</style>
<g>
	<g>
		<path class="st2" d="M27.52,74.43c-2.74,0-5-0.67-6.71-1.98c-1.95-1.48-2.94-3.67-2.94-6.51V51.62h0.05
			c1.37,0,2.61-0.13,3.68-0.39c1.05-0.25,1.58-0.62,1.58-1.11c0-0.24-0.06-0.45-0.18-0.63c-0.04-0.06-0.1-0.09-0.17-0.09
			c-0.02,0-0.04,0-0.07,0.01c-1.39,0.48-2.91,0.72-4.53,0.72c-2.3,0-4.26-0.8-5.84-2.39c-1.57-1.58-2.37-3.9-2.37-6.87
			c0-1.97,0.42-3.9,1.23-5.75l0.01-0.03l0.03,0c2.93-0.35,5.25-0.94,6.88-1.75c2.28-1.16,4.26-3.06,5.88-5.64l0.01-0.02h6.32
			c2.02,0,3.53,0.38,4.5,1.14c1.13,0.92,1.71,2.55,1.71,4.86v37.36l-0.02,0.01c-1.2,1.1-2.6,1.95-4.18,2.52
			C30.82,74.14,29.18,74.43,27.52,74.43z M22.95,49.28c0.22,0.22,0.33,0.5,0.33,0.84c0,0.55-0.54,0.94-1.66,1.21
			c-1.01,0.24-2.17,0.37-3.46,0.39c-0.11,0-0.2,0.09-0.2,0.2v14.02c0,2.81,0.98,4.97,2.9,6.43c1.69,1.3,3.93,1.96,6.65,1.96
			c1.65,0,3.28-0.29,4.85-0.86c1.53-0.56,2.9-1.37,4.07-2.43c0.04-0.04,0.07-0.09,0.07-0.15V33.67c0-2.27-0.56-3.88-1.67-4.78
			c-0.95-0.74-2.44-1.11-4.43-1.11h-6.16c-0.07,0-0.13,0.04-0.17,0.09c-1.62,2.54-3.59,4.41-5.85,5.56
			c-1.61,0.81-3.89,1.39-6.77,1.75c-0.07,0.01-0.13,0.05-0.16,0.12c-0.78,1.8-1.17,3.67-1.17,5.58c0,2.95,0.79,5.24,2.34,6.8
			c1.55,1.56,3.49,2.36,5.76,2.36c1.67,0,3.24-0.26,4.66-0.77l0.03-0.01L22.95,49.28z"/>
	</g>
	<g>
		<path class="st2" d="M65.86,74.36c-6.2,0-11.13-2-14.66-5.96c-3.72-4.12-5.6-9.93-5.6-17.3c0-7.36,1.91-13.25,5.69-17.51
			c3.78-4.26,8.68-6.42,14.57-6.42s10.8,2.16,14.57,6.42c3.78,4.25,5.69,10.14,5.69,17.49s-1.87,13.17-5.57,17.31
			C77.01,72.35,72.06,74.36,65.86,74.36z M65.86,27.28c-5.86,0-10.74,2.15-14.5,6.38c-3.76,4.24-5.67,10.1-5.67,17.44
			s1.88,13.13,5.58,17.23c3.51,3.93,8.42,5.93,14.59,5.93c6.17,0,11.09-1.99,14.62-5.92c3.68-4.12,5.54-9.92,5.54-17.25
			s-1.91-13.19-5.67-17.42C76.61,29.43,71.73,27.28,65.86,27.28z M71.88,60.08c-0.6,0-1.55-0.6-2.85-1.77
			c-1.24-1.1-2.64-2.71-4.17-4.81c-1.53-2.09-2.68-3.9-3.43-5.39c-0.76-1.51-1.13-2.56-1.13-3.2c0-0.87,0.38-1.32,1.14-1.32h0.04
			l0.01,0.04c0.12,0.47,0.68,1.63,1.72,3.54c1.03,1.89,2.07,3.57,3.11,4.99c1.03,1.42,2.29,2.87,3.74,4.32
			c1.21,1.25,2.18,2.15,2.88,2.67l0.03,0.02l0,0.03C72.85,59.78,72.48,60.08,71.88,60.08z M61.23,43.71
			c-0.55,0.07-0.83,0.48-0.83,1.2c0,0.63,0.37,1.67,1.12,3.16c0.75,1.48,1.9,3.29,3.42,5.37c1.53,2.09,2.92,3.7,4.16,4.79
			c1.27,1.16,2.21,1.75,2.78,1.75c0.49,0,0.81-0.21,0.93-0.63c0.02-0.08,0-0.17-0.07-0.22c-0.69-0.53-1.62-1.39-2.76-2.58
			c-1.45-1.45-2.71-2.91-3.75-4.33c-1.04-1.43-2.09-3.11-3.11-5c-0.93-1.71-1.47-2.81-1.67-3.38c-0.03-0.08-0.1-0.13-0.19-0.13
			C61.24,43.71,61.24,43.71,61.23,43.71z"/>
	</g>
</g>
</svg>
