<?xml version="1.0" encoding="utf-8"?>
<!-- Generator: Adobe Illustrator 25.2.1, SVG Export Plug-In . SVG Version: 6.00 Build 0)  -->
<svg version="1.1" id="圖層_1" xmlns="http://www.w3.org/2000/svg" xmlns:xlink="http://www.w3.org/1999/xlink" x="0px" y="0px"
	 viewBox="0 0 100 100" style="enable-background:new 0 0 100 100;" xml:space="preserve">
<style type="text/css">
	.st0{fill:none;stroke:#59E8DC;stroke-width:2;}
	.st1{fill:#FEFEFE;}
	.st2{fill:#FFFFFF;}
</style>
<g>
	<g>
		<path class="st2" d="M35.12,74.43c-2.74,0-5-0.67-6.71-1.98c-1.95-1.48-2.94-3.67-2.94-6.51V51.62h0.05
			c1.37,0,2.61-0.13,3.68-0.39c1.05-0.25,1.58-0.62,1.58-1.11c0-0.24-0.06-0.45-0.18-0.63c-0.04-0.06-0.1-0.09-0.17-0.09
			c-0.02,0-0.04,0-0.07,0.01c-1.39,0.48-2.91,0.72-4.53,0.72c-2.3,0-4.26-0.8-5.84-2.39c-1.57-1.58-2.37-3.9-2.37-6.87
			c0-1.97,0.42-3.9,1.23-5.75l0.01-0.03l0.03,0c2.93-0.35,5.25-0.94,6.88-1.75c2.28-1.16,4.26-3.06,5.88-5.64l0.01-0.02H38
			c2.02,0,3.53,0.38,4.5,1.14c1.13,0.92,1.71,2.55,1.71,4.86v37.36l-0.02,0.01c-1.2,1.1-2.6,1.95-4.18,2.52
			C38.42,74.14,36.78,74.43,35.12,74.43z M30.55,49.28c0.22,0.22,0.33,0.5,0.33,0.84c0,0.55-0.54,0.94-1.66,1.21
			c-1.01,0.24-2.17,0.37-3.46,0.39c-0.11,0-0.2,0.09-0.2,0.2v14.02c0,2.81,0.98,4.97,2.9,6.43c1.69,1.3,3.93,1.96,6.65,1.96
			c1.65,0,3.28-0.29,4.85-0.86c1.53-0.56,2.9-1.37,4.07-2.43c0.04-0.04,0.07-0.09,0.07-0.15V33.67c0-2.27-0.56-3.88-1.67-4.78
			C41.49,28.15,40,27.78,38,27.78h-6.16c-0.07,0-0.13,0.04-0.17,0.09c-1.62,2.54-3.59,4.41-5.85,5.56
			c-1.61,0.81-3.89,1.39-6.77,1.75c-0.07,0.01-0.13,0.05-0.16,0.12c-0.78,1.8-1.17,3.67-1.17,5.58c0,2.95,0.79,5.24,2.34,6.8
			c1.55,1.56,3.49,2.36,5.76,2.36c1.67,0,3.24-0.26,4.66-0.77l0.03-0.01L30.55,49.28z"/>
	</g>
	<g>
		<path class="st2" d="M68.23,74.43c-2.74,0-5-0.67-6.71-1.98c-1.95-1.48-2.94-3.67-2.94-6.51V51.62h0.05
			c1.37,0,2.61-0.13,3.68-0.39c1.05-0.25,1.58-0.62,1.58-1.11c0-0.24-0.06-0.45-0.18-0.63c-0.04-0.06-0.1-0.09-0.17-0.09
			c-0.02,0-0.04,0-0.07,0.01c-1.39,0.48-2.91,0.72-4.53,0.72c-2.3,0-4.26-0.8-5.84-2.39c-1.57-1.58-2.37-3.9-2.37-6.87
			c0-1.97,0.42-3.9,1.23-5.75l0.01-0.03l0.03,0c2.93-0.35,5.25-0.94,6.88-1.75c2.28-1.16,4.26-3.06,5.88-5.64l0.01-0.02h6.32
			c2.02,0,3.53,0.38,4.5,1.14c1.13,0.92,1.71,2.55,1.71,4.86v37.36l-0.02,0.01c-1.2,1.1-2.6,1.95-4.18,2.52
			C71.53,74.14,69.89,74.43,68.23,74.43z M63.66,49.28c0.22,0.22,0.33,0.5,0.33,0.84c0,0.55-0.54,0.94-1.66,1.21
			c-1.01,0.24-2.17,0.37-3.46,0.39c-0.11,0-0.2,0.09-0.2,0.2v14.02c0,2.81,0.98,4.97,2.9,6.43c1.69,1.3,3.93,1.96,6.65,1.96
			c1.65,0,3.28-0.29,4.85-0.86c1.53-0.56,2.9-1.37,4.07-2.43c0.04-0.04,0.07-0.09,0.07-0.15V33.67c0-2.27-0.56-3.88-1.67-4.78
			c-0.95-0.74-2.44-1.11-4.43-1.11h-6.16c-0.07,0-0.13,0.04-0.17,0.09c-1.62,2.54-3.59,4.41-5.85,5.56
			c-1.61,0.81-3.89,1.39-6.77,1.75c-0.07,0.01-0.13,0.05-0.16,0.12c-0.78,1.8-1.17,3.67-1.17,5.58c0,2.95,0.79,5.24,2.34,6.8
			c1.55,1.56,3.49,2.36,5.76,2.36c1.67,0,3.24-0.26,4.66-0.77l0.03-0.01L63.66,49.28z"/>
	</g>
</g>
</svg>
