<?xml version="1.0" encoding="utf-8"?>
<!-- Generator: Adobe Illustrator 25.2.1, SVG Export Plug-In . SVG Version: 6.00 Build 0)  -->
<svg version="1.1" id="圖層_1" xmlns="http://www.w3.org/2000/svg" xmlns:xlink="http://www.w3.org/1999/xlink" x="0px" y="0px"
	 viewBox="0 0 100 100" style="enable-background:new 0 0 100 100;" xml:space="preserve">
<style type="text/css">
	.st0{fill:none;stroke:#59E8DC;stroke-width:2;}
	.st1{fill:#FEFEFE;}
	.st2{fill:#FFFFFF;}
</style>
<g>
	<g>
		<path class="st2" d="M29.42,74.43c-2.74,0-5-0.67-6.71-1.98c-1.95-1.48-2.94-3.67-2.94-6.51V51.62h0.05
			c1.37,0,2.61-0.13,3.68-0.39c1.05-0.25,1.58-0.62,1.58-1.11c0-0.24-0.06-0.45-0.18-0.63c-0.04-0.06-0.1-0.09-0.17-0.09
			c-0.02,0-0.04,0-0.07,0.01c-1.39,0.48-2.91,0.72-4.53,0.72c-2.3,0-4.26-0.8-5.84-2.39c-1.57-1.58-2.37-3.9-2.37-6.87
			c0-1.97,0.42-3.9,1.23-5.75l0.01-0.03l0.03,0c2.93-0.35,5.25-0.94,6.87-1.75c2.28-1.16,4.26-3.06,5.88-5.64l0.01-0.02h6.32
			c2.02,0,3.53,0.38,4.5,1.14c1.13,0.92,1.71,2.55,1.71,4.86v37.36l-0.02,0.01c-1.2,1.1-2.6,1.95-4.18,2.52
			C32.72,74.14,31.08,74.43,29.42,74.43z M24.85,49.28c0.22,0.22,0.33,0.5,0.33,0.84c0,0.55-0.54,0.94-1.66,1.21
			c-1.01,0.24-2.17,0.37-3.46,0.39c-0.11,0-0.2,0.09-0.2,0.2v14.02c0,2.81,0.98,4.97,2.9,6.43c1.69,1.3,3.93,1.96,6.65,1.96
			c1.65,0,3.28-0.29,4.85-0.86c1.53-0.56,2.9-1.37,4.07-2.43c0.04-0.04,0.07-0.09,0.07-0.15V33.67c0-2.27-0.56-3.88-1.67-4.78
			c-0.95-0.74-2.44-1.11-4.43-1.11h-6.16c-0.07,0-0.13,0.04-0.17,0.09c-1.62,2.54-3.59,4.41-5.85,5.56
			c-1.61,0.81-3.89,1.39-6.77,1.75c-0.07,0.01-0.13,0.05-0.16,0.12c-0.78,1.8-1.17,3.67-1.17,5.58c0,2.95,0.79,5.24,2.34,6.8
			c1.55,1.56,3.49,2.36,5.76,2.36c1.67,0,3.24-0.26,4.66-0.77l0.03-0.01L24.85,49.28z"/>
	</g>
	<g>
		<path class="st2" d="M51.04,73.44l-0.02-0.02c-1.8-2.69-2.71-5.71-2.71-8.97c0-3.26,0.64-6.04,1.9-8.27l0.01-0.02l0.02,0
			c4.59-0.89,8.81-2.53,12.53-4.88c3.72-2.35,5.6-4.86,5.6-7.48c0-0.69-0.16-1.26-0.47-1.69c-0.3-0.43-0.73-0.65-1.28-0.65
			c-1.11,0-1.67,0.59-1.67,1.76c0,1.2,0.4,2.06,1.21,2.61l0.04,0.03l-0.03,0.04c-1.15,1.71-2.94,3.3-5.33,4.73
			c-2.38,1.43-4.75,2.47-7.04,3.1l-0.02,0.01l-0.02-0.01c-4.17-2.76-6.28-6.55-6.28-11.26c0-4.71,1.89-8.49,5.61-11.26
			c3.46-2.57,7.96-3.88,13.37-3.88c5.41,0,9.96,1.45,13.51,4.3c3.81,3.09,5.75,7.28,5.75,12.45c0,3.77-1.13,6.95-3.35,9.46
			c-2.47,2.77-6.11,4.66-10.82,5.63c-0.1,0.02-0.17,0.11-0.16,0.21c0.06,0.71,0.44,1.07,1.14,1.07c1.39,0,3.13-0.45,5.15-1.33
			c2.02-0.88,3.61-1.94,4.73-3.15l0.04-0.04l0.04,0.04c2.23,2.23,3.35,5.2,3.35,8.84s-1.06,6.54-3.14,8.63l-0.01,0.01H51.04z
			 M66.64,41.35c0.58,0,1.03,0.23,1.36,0.69c0.32,0.45,0.48,1.04,0.48,1.75c0,2.65-1.9,5.2-5.65,7.57
			c-3.71,2.34-7.9,3.98-12.46,4.87c-0.06,0.01-0.11,0.05-0.14,0.1c-1.22,2.19-1.83,4.92-1.83,8.12c0,3.2,0.88,6.16,2.62,8.81
			c0.04,0.06,0.1,0.09,0.17,0.09h31.37c0.05,0,0.11-0.02,0.14-0.06c2.02-2.06,3.04-4.92,3.04-8.49c0-3.51-1.06-6.4-3.14-8.58
			c-0.04-0.04-0.09-0.06-0.14-0.06h0c-0.05,0-0.11,0.02-0.14,0.06c-1.11,1.14-2.66,2.15-4.59,2.99c-2.03,0.89-3.78,1.34-5.19,1.34
			c-1.03,0-1.25-0.75-1.25-1.39v-0.04l0.04-0.01c4.79-0.95,8.49-2.85,10.98-5.64c2.21-2.49,3.33-5.65,3.33-9.39
			c0-5.14-1.92-9.3-5.71-12.37c-3.54-2.84-8.06-4.28-13.45-4.28c-5.39,0-9.87,1.3-13.31,3.86c-3.7,2.74-5.57,6.5-5.57,11.17
			c0,4.63,2.07,8.37,6.14,11.11c0.03,0.02,0.07,0.03,0.11,0.03c0.02,0,0.04,0,0.05-0.01c2.25-0.63,4.57-1.66,6.91-3.06
			c2.28-1.36,4.01-2.88,5.16-4.5c0.06-0.09,0.04-0.2-0.04-0.27c-0.71-0.57-1.06-1.43-1.06-2.56C64.87,41.98,65.46,41.35,66.64,41.35
			z"/>
	</g>
</g>
</svg>
