<?xml version="1.0" encoding="utf-8"?>
<!-- Generator: Adobe Illustrator 23.0.0, SVG Export Plug-In . SVG Version: 6.00 Build 0)  -->
<svg version="1.1" id="圖層_1" xmlns="http://www.w3.org/2000/svg" xmlns:xlink="http://www.w3.org/1999/xlink" x="0px" y="0px"
	 viewBox="0 0 32 20.5" style="enable-background:new 0 0 32 20.5;" xml:space="preserve">
<style type="text/css">
	.st0{fill:#FFFFFF;}
	.st1{enable-background:new    ;}
	.st2{fill:#042A2B;}
</style>
<ellipse class="st0" cx="15.8" cy="12.6" rx="15.7" ry="7.5"/>
<g id="Ellipse_23" transform="translate(391 649)" class="st1">
	<g>
		<path class="st2" d="M-375-628.5c-9,0-16-3.5-16-8s7-8,16-8s16,3.5,16,8S-366-628.5-375-628.5z M-375-643.5c-8.1,0-15,3.2-15,7
			s6.9,7,15,7s15-3.2,15-7S-366.9-643.5-375-643.5z"/>
	</g>
</g>
<g id="Ellipse_24" class="st1">
	<circle class="st2" cx="16" cy="12.5" r="8"/>
</g>
<g id="Path_155" class="st1">
	<path class="st0" d="M16.3,11.5l-1.2,3.9L14,11.5l1.2-3.9L16.3,11.5z"/>
</g>
<g id="Path_156" class="st1">
	<path class="st0" d="M18.3,15.3l-0.6,2.1L17,15.3l0.6-2.1L18.3,15.3z"/>
</g>
<g id="Line_17" class="st1">
	<rect x="15" class="st2" width="1" height="5"/>
</g>
<g id="Line_18" class="st1">
	<rect x="9.5" y="0" transform="matrix(0.7071 -0.7071 0.7071 0.7071 0.4555 8.0926)" class="st2" width="1" height="7.1"/>
</g>
<g id="Line_19" class="st1">
	<rect x="17.5" y="3" transform="matrix(0.7071 -0.7071 0.7071 0.7071 3.6722 15.8728)" class="st2" width="7.1" height="1"/>
</g>
</svg>
