<?xml version="1.0" encoding="utf-8"?>
<!-- Generator: Adobe Illustrator 23.0.0, SVG Export Plug-In . SVG Version: 6.00 Build 0)  -->
<svg version="1.1" id="圖層_1" xmlns="http://www.w3.org/2000/svg" xmlns:xlink="http://www.w3.org/1999/xlink" x="0px" y="0px"
	 viewBox="0 0 500 500" style="enable-background:new 0 0 500 500;" xml:space="preserve">
<style type="text/css">
	.st0{fill:#420039;}
	.st1{fill:#FFFFFF;}
	.st2{fill:#FFE46A;stroke:#000000;stroke-width:2;stroke-miterlimit:10;}
	.st3{fill:#FF9EB8;stroke:#000000;stroke-width:2;stroke-miterlimit:10;}
	.st4{fill:#FFFFFF;stroke:#000000;stroke-width:2;stroke-miterlimit:10;}
	.st5{fill:none;stroke:#000000;}
	.st6{fill:#2A6CFF;stroke:#000000;}
	.st7{fill:#FF6978;}
	.st8{fill:#FFDC6E;stroke:#000000;stroke-width:2;stroke-miterlimit:10;}
	.st9{fill:#90B8E6;stroke:#000000;stroke-width:2;stroke-miterlimit:10;}
	.st10{fill:none;stroke:#000000;stroke-width:2;stroke-miterlimit:10;}
	.st11{fill:#FFDE00;}
	.st12{stroke:#000000;stroke-miterlimit:10;}
	.st13{fill:#042A2B;enable-background:new    ;}
	.st14{fill:#5EB1BF;enable-background:new    ;}
	.st15{fill:#59E8DC;}
	.st16{fill:none;stroke:#59E8DC;stroke-width:2;}
	.st17{fill:#FEFEFE;}
	.st18{fill:#90B8E6;stroke:#000000;stroke-width:2;stroke-linecap:round;stroke-linejoin:round;stroke-miterlimit:10;}
	.st19{enable-background:new    ;}
	.st20{fill:#5EB1BF;}
	.st21{fill:#042A2B;}
</style>
<g class="st19">
	<path class="st20" d="M190.99,183.81c-12.65-4.49-30-3.57-49.31-2.04c-16.96,1.51-34.86,4.53-49.61,8.55
		c-15.51,4.39-26.06,10.84-28.38,23.94c-2.3,12.45,7.74,30.96,23.87,37.94c18.75,7.61,26.29-4.35,31.17-11.37
		c5.14-7.84,7.91-11.86,20-12.02c15.93-0.88,15.18,8.11,14.92,11.49c-0.56,6.86-7.83,13.58-20.05,21.48
		c-14.04,9.48-32.07,16.28-34.6,35.44c-1.58,11.86,6.92,29.2,25.82,31.65c20.88,2.01,26.97-11.62,30.54-18.9
		c1.18-2.5,2.29-4.86,3.69-6.72c1.87-2.47,7.68-6.82,13.24-11.39c16.74-13.22,41.11-38.01,41.83-68.14
		C214.69,202.49,206.46,189.13,190.99,183.81z"/>
	<path class="st20" d="M124.3,346c-19.02-2.13-36.23,3.99-38.37,19.6c-2.13,15.56,12.45,36.33,32.52,40.01
		c20.06,3.81,37.28-11.09,38.37-28.1C157.91,360.26,143.32,348.3,124.3,346z"/>
</g>
<g class="st19">
	<path class="st20" d="M299.39,134.56c-13.47-4.81-31.28-1.39-50.58,8.51c-16.96,8.69-34.31,23.62-48.1,39.7
		c-14.49,17.04-23.67,34.15-24.61,49.41c-0.95,14.78,10.06,23.16,26.19,17.86c18.75-6.31,25.14-22.35,29.25-32.78
		c4.34-11.04,6.67-17.18,18.76-22.58c15.93-7.15,16.07,3.6,16.11,7.09c0.08,7.65-6.67,16.67-18.12,30.37
		c-13.16,15.9-30.08,34.64-30.7,56.49c-0.39,13.66,9.39,25.27,28.28,19.09c20.88-6.87,25.85-21.93,28.74-31.02
		c0.96-2.99,1.86-5.82,3.1-8.14c1.66-3.1,7.14-9.01,12.37-14.66c15.78-17.18,38.69-40.98,36.78-73.59
		C325.61,157.23,315.88,140.34,299.39,134.56z"/>
	<path class="st20" d="M246.97,326.23c-19.02,6.15-34.97,24.93-35.54,42.62c-0.58,17.77,15.28,28.74,35.34,23.67
		c20.06-5.07,36.01-24.14,35.54-42.91C281.84,330.74,265.99,320.08,246.97,326.23z"/>
</g>
<g class="st19">
	<path class="st20" d="M407.79,124.68c-14.29-16.18-32.55-24.85-51.86-22.42c-16.96,1.95-33.75,14.57-46.58,31.41
		c-13.47,17.82-21.28,38.05-20.84,54.69c0.39,16.32,12.38,23.62,28.51,19.25c18.75-4.85,23.99-19.74,27.34-30.2
		c3.54-10.68,5.43-17.03,17.52-17.76c15.93-0.36,16.97,12.27,17.3,15.91c0.73,8.5-5.52,14.29-16.2,24.39
		c-12.27,11.52-28.09,28.32-26.79,52.37c0.81,15.14,11.85,29.03,30.75,29.71c20.88,1.38,24.72-11.05,26.94-19.58
		c0.74-2.7,1.43-5.24,2.52-7.01c1.45-2.38,6.59-5.35,11.51-7.77c14.81-8.2,36.26-12.23,31.74-48.88
		C436.53,172.85,425.29,144.45,407.79,124.68z"/>
	<path class="st20" d="M369.64,302.85c-19.02-1.17-33.7,17.2-32.72,36.48c0.98,19.51,18.1,33.68,38.17,36.31
		c20.06,2.51,34.74-7.67,32.72-28.57C405.78,326.21,388.66,303.87,369.64,302.85z"/>
</g>
</svg>
