<svg xmlns="http://www.w3.org/2000/svg" width="244.349" height="226.367" viewBox="0 0 244.349 226.367">
  <g id="PATTERNh" transform="translate(-476.826 0.238)">
    <g id="LINES">
      <line id="Line_1" data-name="Line 1" x2="243" y2="222" transform="translate(477.5 0.5)" fill="none" stroke="#420039" stroke-width="2"/>
      <line id="Line_2" data-name="Line 2" x1="243" y2="222" transform="translate(477.5 0.5)" fill="none" stroke="#420039" stroke-width="2"/>
      <line id="Line_3" data-name="Line 3" x2="243" transform="translate(477.5 111.5)" fill="none" stroke="#420039" stroke-width="2"/>
      <line id="Line_4" data-name="Line 4" y2="224" transform="translate(599 1)" fill="none" stroke="#420039" stroke-width="2"/>
      <line id="Line_5" data-name="Line 5" x2="126" y2="224" transform="translate(537.5 1.5)" fill="none" stroke="#420039" stroke-width="2"/>
      <line id="Line_6" data-name="Line 6" x1="126" y2="224" transform="translate(535.5 1.5)" fill="none" stroke="#420039" stroke-width="2"/>
      <line id="Line_7" data-name="Line 7" x2="241" y2="96" transform="translate(478.5 63.5)" fill="none" stroke="#420039" stroke-width="2"/>
      <line id="Line_8" data-name="Line 8" x1="241" y2="96" transform="translate(478.5 63.5)" fill="none" stroke="#420039" stroke-width="2"/>
      <line id="Line_9" data-name="Line 9" x1="65" y2="225" transform="translate(566.5 0.5)" fill="none" stroke="#420039" stroke-width="2"/>
      <line id="Line_10" data-name="Line 10" x2="65" y2="225" transform="translate(566.5 0.5)" fill="none" stroke="#420039" stroke-width="2"/>
      <line id="Line_11" data-name="Line 11" x2="181" y2="224" transform="translate(510.5 1.5)" fill="none" stroke="#420039" stroke-width="2"/>
      <line id="Line_12" data-name="Line 12" x1="181" y2="224" transform="translate(508.5 1.5)" fill="none" stroke="#420039" stroke-width="2"/>
      <line id="Line_13" data-name="Line 13" x2="242" y2="156" transform="translate(477.5 34.5)" fill="none" stroke="#420039" stroke-width="2"/>
      <line id="Line_14" data-name="Line 14" x1="242" y2="156" transform="translate(477.5 34.5)" fill="none" stroke="#420039" stroke-width="2"/>
      <line id="Line_15" data-name="Line 15" x2="241" y2="47" transform="translate(478.5 87.5)" fill="none" stroke="#420039" stroke-width="2"/>
      <line id="Line_16" data-name="Line 16" x1="241" y2="47" transform="translate(478.5 87.5)" fill="none" stroke="#420039" stroke-width="2"/>
    </g>
    <path id="Path_153" data-name="Path 153" d="M-343-577.453a14.12,14.12,0,0,1,1.569-7.395,36.448,36.448,0,0,1,4.28-6.052c3.614-4.369,8.607-8.356,14.121-6.524,5.515,1.813,10.507,2.909,14.121,5.73a14.452,14.452,0,0,1,4.28,6.374,25.713,25.713,0,0,1,1.569,7.867,5.967,5.967,0,0,1-1.569,4.529c-1.011,1.213-2.473,2.943-4.28,5.068-3.614,4.359-8.607,9.709-14.121,10.374-5.515.647-10.508,2.133-14.121-.795-1.807-1.471-3.269-4.158-4.28-7.872A47.069,47.069,0,0,1-343-577.453Z" transform="translate(922.029 690.657)" fill="#59e8dc"/>
  </g>
</svg>
