<?xml version="1.0" encoding="utf-8"?>
<!-- Generator: Adobe Illustrator 23.0.0, SVG Export Plug-In . SVG Version: 6.00 Build 0)  -->
<svg version="1.1" id="圖層_1" xmlns="http://www.w3.org/2000/svg" xmlns:xlink="http://www.w3.org/1999/xlink" x="0px" y="0px"
	 viewBox="0 0 500 500" style="enable-background:new 0 0 500 500;" xml:space="preserve">
<style type="text/css">
	.st0{fill:#042A2B;enable-background:new    ;}
	.st1{enable-background:new    ;}
	.st2{fill:#042A2B;}
	.st3{fill:#420039;}
	.st4{fill:#FFFFFF;}
	.st5{fill:#FFE46A;stroke:#000000;stroke-width:2;stroke-miterlimit:10;}
	.st6{fill:#FF9EB8;stroke:#000000;stroke-width:2;stroke-miterlimit:10;}
	.st7{fill:#FFFFFF;stroke:#000000;stroke-width:2;stroke-miterlimit:10;}
	.st8{fill:none;stroke:#000000;}
	.st9{fill:#2A6CFF;stroke:#000000;}
	.st10{fill:#FF6978;}
	.st11{fill:#FFDC6E;stroke:#000000;stroke-width:2;stroke-miterlimit:10;}
	.st12{fill:#90B8E6;stroke:#000000;stroke-width:2;stroke-miterlimit:10;}
	.st13{fill:none;stroke:#000000;stroke-width:2;stroke-miterlimit:10;}
	.st14{fill:#FFDE00;}
	.st15{fill:#5EB1BF;enable-background:new    ;}
	.st16{fill:#59E8DC;}
	.st17{fill:none;stroke:#59E8DC;stroke-width:2;}
	.st18{fill:#FEFEFE;}
	.st19{fill:#5EB1BF;}
	.st20{clip-path:url(#SVGID_2_);fill:#5EB1BF;enable-background:new    ;}
	.st21{fill:#FFBA49;enable-background:new    ;}
	.st22{clip-path:url(#SVGID_4_);fill:#5EB1BF;enable-background:new    ;}
	.st23{fill:#FFFFFF;enable-background:new    ;}
</style>
<path class="st19" d="M461.43,215.56c-6.21-6.29-13.2-11.35-20.65-15.2c7.79-12.43,12.34-27.11,12.44-42.86
	c0.28-45.19-36.12-82.04-81.3-82.33c-8.84-0.06-17.36,1.31-25.35,3.86c-3.28-14.3-10.44-27.89-21.51-39.1
	c-31.75-32.15-83.55-32.48-115.7-0.73c-6.29,6.21-11.35,13.2-15.2,20.65c-12.43-7.79-27.11-12.34-42.86-12.44
	c-45.19-0.28-82.04,36.12-82.33,81.3c-0.06,8.84,1.31,17.36,3.86,25.35c-14.3,3.28-27.89,10.44-39.1,21.51
	c-32.15,31.75-32.48,83.55-0.73,115.7c6.21,6.29,13.2,11.35,20.65,15.2c-7.79,12.43-12.34,27.11-12.44,42.86
	c-0.28,45.18,36.12,82.04,81.3,82.33c8.84,0.06,17.36-1.31,25.35-3.86c3.28,14.3,10.44,27.89,21.51,39.1
	c31.75,32.15,83.55,32.48,115.7,0.73c6.29-6.21,11.35-13.2,15.2-20.65c12.43,7.79,27.11,12.34,42.86,12.44
	c45.19,0.28,82.04-36.12,82.33-81.3c0.06-8.84-1.31-17.36-3.86-25.35c14.3-3.28,27.89-10.44,39.1-21.51
	C492.86,299.52,493.18,247.72,461.43,215.56z"/>
<g>
	<g>
		<ellipse class="st23" cx="171.76" cy="244.61" rx="57.08" ry="68.18"/>
		<ellipse class="st19" cx="189.46" cy="242.5" rx="39.39" ry="47.05"/>
	</g>
	<g>
		<ellipse class="st23" cx="322.67" cy="244.61" rx="57.08" ry="68.18"/>
		<ellipse class="st19" cx="340.37" cy="242.5" rx="39.39" ry="47.05"/>
	</g>
</g>
<g>
	<g>
		<g class="st1">
			<path class="st4" d="M113.14,235.69l0.31-2.27c4.61-34.18,29.14-58.98,58.32-58.98c29.18,0,53.71,24.81,58.32,58.98l0.31,2.27
				H113.14z"/>
			<path class="st19" d="M171.77,176.43c28.41,0,51.96,24.79,56.34,57.25H115.42C119.8,201.23,143.36,176.43,171.77,176.43
				 M171.77,172.43c-14.73,0-28.96,6.27-40.05,17.66c-10.82,11.11-18.01,26.4-20.26,43.05l-0.61,4.53h4.58h112.68h4.58l-0.61-4.53
				c-2.25-16.66-9.44-31.95-20.26-43.05C200.72,178.71,186.5,172.43,171.77,172.43L171.77,172.43z"/>
		</g>
	</g>
	<g>
		<g class="st1">
			<path class="st4" d="M264.05,235.69l0.31-2.27c4.61-34.18,29.14-58.98,58.32-58.98c29.18,0,53.71,24.81,58.32,58.98l0.31,2.27
				H264.05z"/>
			<path class="st19" d="M322.67,176.43c28.41,0,51.96,24.79,56.34,57.25H266.33C270.71,201.23,294.27,176.43,322.67,176.43
				 M322.67,172.43c-14.73,0-28.96,6.27-40.05,17.66c-10.82,11.11-18.01,26.4-20.26,43.05l-0.61,4.53h4.58h112.68h4.58l-0.61-4.53
				c-2.25-16.66-9.44-31.95-20.26-43.05C351.63,178.71,337.41,172.43,322.67,172.43L322.67,172.43z"/>
		</g>
	</g>
</g>
<path class="st4" d="M278.34,359.16c0-0.14,0.01-0.28,0.01-0.43c0-17.19-13.94-31.13-31.13-31.13s-31.13,13.94-31.13,31.13
	c0,0.14,0.01,0.29,0.01,0.43H278.34z"/>
</svg>
