<?xml version="1.0" encoding="utf-8"?>
<!-- Generator: Adobe Illustrator 23.0.0, SVG Export Plug-In . SVG Version: 6.00 Build 0)  -->
<svg version="1.1" id="圖層_1" xmlns="http://www.w3.org/2000/svg" xmlns:xlink="http://www.w3.org/1999/xlink" x="0px" y="0px"
	 viewBox="0 0 500 500" style="enable-background:new 0 0 500 500;" xml:space="preserve">
<style type="text/css">
	.st0{fill:#5EB1BF;}
	.st1{fill:#FFBA49;}
</style>
<path class="st0" d="M461.4,215.6c-6.2-6.3-13.2-11.4-20.6-15.2c7.8-12.4,12.3-27.1,12.4-42.9c0.3-45.2-36.1-82-81.3-82.3
	c-8.8-0.1-17.4,1.3-25.4,3.9c-3.3-14.3-10.4-27.9-21.5-39.1c-31.8-32.2-83.6-32.5-115.7-0.7c-6.3,6.2-11.4,13.2-15.2,20.6
	c-12.4-7.8-27.1-12.3-42.9-12.4c-45.2-0.3-82,36.1-82.3,81.3c-0.1,8.8,1.3,17.4,3.9,25.4c-14.3,3.3-27.9,10.4-39.1,21.5
	C1.6,207.3,1.2,259.1,33,291.3c6.2,6.3,13.2,11.4,20.6,15.2c-7.8,12.4-12.3,27.1-12.4,42.9c-0.3,45.2,36.1,82,81.3,82.3
	c8.8,0.1,17.4-1.3,25.4-3.9c3.3,14.3,10.4,27.9,21.5,39.1c31.8,32.1,83.6,32.5,115.7,0.7c6.3-6.2,11.4-13.2,15.2-20.6
	c12.4,7.8,27.1,12.3,42.9,12.4c45.2,0.3,82-36.1,82.3-81.3c0.1-8.8-1.3-17.4-3.9-25.4c14.3-3.3,27.9-10.4,39.1-21.5
	C492.9,299.5,493.2,247.7,461.4,215.6z"/>
<g>
	<g>
		<ellipse class="st1" cx="171.8" cy="244.6" rx="57.1" ry="68.2"/>
		<ellipse class="st0" cx="189.5" cy="242.5" rx="39.4" ry="47"/>
		<g>
			<polygon class="st1" points="186.2,238.6 177.9,266.2 169.6,238.6 177.9,211 			"/>
		</g>
		<g>
			<polygon class="st1" points="204.3,256.9 198.9,275.2 193.4,256.9 198.9,238.6 			"/>
		</g>
	</g>
	<g>
		<ellipse class="st1" cx="322.7" cy="244.6" rx="57.1" ry="68.2"/>
		<ellipse class="st0" cx="340.4" cy="242.5" rx="39.4" ry="47"/>
		<g>
			<polygon class="st1" points="337.1,238.6 328.9,266.2 320.6,238.6 328.9,211 			"/>
		</g>
		<g>
			<polygon class="st1" points="355.3,256.9 349.8,275.2 344.3,256.9 349.8,238.6 			"/>
		</g>
	</g>
</g>
<path class="st1" d="M216.1,327.6c0,0.1,0,0.3,0,0.4c0,17.2,13.9,31.1,31.1,31.1s31.1-13.9,31.1-31.1c0-0.1,0-0.3,0-0.4H216.1z"/>
</svg>
