<?xml version="1.0" encoding="utf-8"?>
<!-- Generator: Adobe Illustrator 23.0.0, SVG Export Plug-In . SVG Version: 6.00 Build 0)  -->
<svg version="1.1" id="圖層_1" xmlns="http://www.w3.org/2000/svg" xmlns:xlink="http://www.w3.org/1999/xlink" x="0px" y="0px"
	 viewBox="0 0 500 500" style="enable-background:new 0 0 500 500;" xml:space="preserve">
<style type="text/css">
	.st0{fill:#420039;}
	.st1{fill:#FFFFFF;}
	.st2{fill:#FFE46A;stroke:#000000;stroke-width:2;stroke-miterlimit:10;}
	.st3{fill:#FF9EB8;stroke:#000000;stroke-width:2;stroke-miterlimit:10;}
	.st4{fill:#FFFFFF;stroke:#000000;stroke-width:2;stroke-miterlimit:10;}
	.st5{fill:none;stroke:#000000;}
	.st6{fill:#2A6CFF;stroke:#000000;}
	.st7{fill:#FF6978;}
	.st8{fill:#FFDC6E;stroke:#000000;stroke-width:2;stroke-miterlimit:10;}
	.st9{fill:#90B8E6;stroke:#000000;stroke-width:2;stroke-miterlimit:10;}
	.st10{fill:none;stroke:#000000;stroke-width:2;stroke-miterlimit:10;}
	.st11{fill:#FFDE00;}
	.st12{stroke:#000000;stroke-miterlimit:10;}
	.st13{fill:#042A2B;enable-background:new    ;}
	.st14{fill:#5EB1BF;enable-background:new    ;}
	.st15{fill:#59E8DC;}
	.st16{fill:none;stroke:#59E8DC;stroke-width:2;}
	.st17{fill:#FEFEFE;}
	.st18{fill:none;stroke:#FFFFFF;stroke-width:6;stroke-miterlimit:10;}
	.st19{fill:none;stroke:#59E8DC;stroke-width:6;stroke-miterlimit:10;}
	.st20{fill:#90B8E6;stroke:#000000;stroke-width:2;stroke-linecap:round;stroke-linejoin:round;stroke-miterlimit:10;}
</style>
<path class="st13" d="M160.5,159.5c44.66,0,81,44.19,81,98.5s-36.34,98.5-81,98.5s-81-44.19-81-98.5S115.84,159.5,160.5,159.5
	 M160.5,150.5c-49.71,0-90,48.13-90,107.5s40.29,107.5,90,107.5s90-48.13,90-107.5S210.21,150.5,160.5,150.5L160.5,150.5z"/>
<ellipse class="st13" cx="134.5" cy="254.79" rx="59" ry="70.47"/>
<g>
	<polygon class="st1" points="132.5,243.29 125,268.29 117.5,243.29 125,218.29 	"/>
</g>
<g>
	<polygon class="st1" points="145.5,274.62 140.5,291.29 135.5,274.62 140.5,257.96 	"/>
</g>
<path class="st13" d="M340.5,159.5c44.66,0,81,44.19,81,98.5s-36.34,98.5-81,98.5s-81-44.19-81-98.5S295.84,159.5,340.5,159.5
	 M340.5,150.5c-49.71,0-90,48.13-90,107.5s40.29,107.5,90,107.5s90-48.13,90-107.5S390.21,150.5,340.5,150.5L340.5,150.5z"/>
<ellipse class="st13" cx="314.5" cy="254.79" rx="59" ry="70.47"/>
<g>
	<polygon class="st1" points="312.5,243.29 305,268.29 297.5,243.29 305,218.29 	"/>
</g>
<g>
	<polygon class="st1" points="325.5,274.62 320.5,291.29 315.5,274.62 320.5,257.96 	"/>
</g>
</svg>
