<?xml version="1.0" encoding="utf-8"?>
<!-- Generator: Adobe Illustrator 23.0.0, SVG Export Plug-In . SVG Version: 6.00 Build 0)  -->
<svg version="1.1" id="圖層_1" xmlns="http://www.w3.org/2000/svg" xmlns:xlink="http://www.w3.org/1999/xlink" x="0px" y="0px"
	 viewBox="0 0 500 500" style="enable-background:new 0 0 500 500;" xml:space="preserve">
<style type="text/css">
	.st0{fill:#5EB1BF;}
	.st1{fill:#FFBA49;}
</style>
<path class="st0" d="M160.5,159.5c44.7,0,81,44.2,81,98.5s-36.3,98.5-81,98.5s-81-44.2-81-98.5S115.8,159.5,160.5,159.5
	 M160.5,150.5c-49.7,0-90,48.1-90,107.5s40.3,107.5,90,107.5s90-48.1,90-107.5S210.2,150.5,160.5,150.5L160.5,150.5z"/>
<ellipse class="st0" cx="191.5" cy="255" rx="59" ry="70.5"/>
<g>
	<polygon class="st1" points="189.5,243.5 182,268.5 174.5,243.5 182,218.5 	"/>
</g>
<g>
	<polygon class="st1" points="202.5,274.8 197.5,291.5 192.5,274.8 197.5,258.2 	"/>
</g>
<path class="st0" d="M340.5,159.5c44.7,0,81,44.2,81,98.5s-36.3,98.5-81,98.5s-81-44.2-81-98.5S295.8,159.5,340.5,159.5
	 M340.5,150.5c-49.7,0-90,48.1-90,107.5s40.3,107.5,90,107.5s90-48.1,90-107.5S390.2,150.5,340.5,150.5L340.5,150.5z"/>
<ellipse class="st0" cx="371.5" cy="255" rx="59" ry="70.5"/>
<g>
	<polygon class="st1" points="369.5,243.5 362,268.5 354.5,243.5 362,218.5 	"/>
</g>
<g>
	<polygon class="st1" points="382.5,274.8 377.5,291.5 372.5,274.8 377.5,258.2 	"/>
</g>
</svg>
