<?xml version="1.0" encoding="utf-8"?>
<!-- Generator: Adobe Illustrator 23.0.0, SVG Export Plug-In . SVG Version: 6.00 Build 0)  -->
<svg version="1.1" id="圖層_1" xmlns="http://www.w3.org/2000/svg" xmlns:xlink="http://www.w3.org/1999/xlink" x="0px" y="0px"
	 viewBox="0 0 500 500" style="enable-background:new 0 0 500 500;" xml:space="preserve">
<style type="text/css">
	.st0{fill:#420039;}
	.st1{fill:#FFFFFF;}
	.st2{fill:#FFE46A;stroke:#000000;stroke-width:2;stroke-miterlimit:10;}
	.st3{fill:#FF9EB8;stroke:#000000;stroke-width:2;stroke-miterlimit:10;}
	.st4{fill:#FFFFFF;stroke:#000000;stroke-width:2;stroke-miterlimit:10;}
	.st5{fill:none;stroke:#000000;}
	.st6{fill:#2A6CFF;stroke:#000000;}
	.st7{fill:#FF6978;}
	.st8{fill:#FFDC6E;stroke:#000000;stroke-width:2;stroke-miterlimit:10;}
	.st9{fill:#90B8E6;stroke:#000000;stroke-width:2;stroke-miterlimit:10;}
	.st10{fill:none;stroke:#000000;stroke-width:2;stroke-miterlimit:10;}
	.st11{fill:#FFDE00;}
	.st12{stroke:#000000;stroke-miterlimit:10;}
	.st13{fill:#042A2B;enable-background:new    ;}
	.st14{fill:#5EB1BF;enable-background:new    ;}
	.st15{fill:#59E8DC;}
	.st16{fill:none;stroke:#59E8DC;stroke-width:2;}
	.st17{fill:#FEFEFE;}
	.st18{fill:none;stroke:#FFFFFF;stroke-width:6;stroke-miterlimit:10;}
	.st19{fill:none;stroke:#59E8DC;stroke-width:6;stroke-miterlimit:10;}
	.st20{fill:#90B8E6;stroke:#000000;stroke-width:2;stroke-linecap:round;stroke-linejoin:round;stroke-miterlimit:10;}
</style>
<path class="st13" d="M173,246c0,0-5.9-34.4-31.75-60.25C117.03,161.53,81,154,81,154s28.09,0.41,60.25-31.75
	C170.15,93.35,173,62,173,62s-0.2,28.29,31.34,59.84C236.56,154.06,265,154,265,154s-30.33,1.83-60.25,31.75
	C172.59,217.91,173,246,173,246z"/>
<path class="st13" d="M321,435c0,0-5.13-29.91-27.61-52.39C272.33,361.55,241,355,241,355s24.42,0.35,52.39-27.61
	C318.52,302.26,321,275,321,275s-0.18,24.6,27.26,52.04C376.27,355.05,401,355,401,355s-26.37,1.59-52.39,27.61
	C320.65,410.58,321,435,321,435z"/>
<path class="st13" d="M366,180c0,0-3.46-20.19-18.64-35.36C333.15,130.42,312,126,312,126s16.49,0.24,35.36-18.64
	C364.33,90.4,366,72,366,72s-0.12,16.61,18.4,35.12C403.31,126.03,420,126,420,126s-17.8,1.08-35.36,18.64
	C365.76,163.51,366,180,366,180z"/>
<path class="st13" d="M129,399c0,0-2.82-16.45-15.19-28.81C102.23,358.6,85,355,85,355s13.43,0.19,28.81-15.19
	C127.64,325.99,129,311,129,311s-0.1,13.53,14.99,28.62C159.4,355.03,173,355,173,355s-14.5,0.88-28.81,15.19
	C128.81,385.57,129,399,129,399z"/>
</svg>
