<svg xmlns="http://www.w3.org/2000/svg" width="291.439" height="193.12" viewBox="0 0 291.439 193.12">
  <g id="Qh" transform="translate(1516.475 -377.481)">
    <path id="Path_135" data-name="Path 135" d="M2230.455,144.739a45.359,45.359,0,0,1-13.255-2.026c-29.852-9.076-50.816-22.034-64.088-39.615-7.546-10.168-12.941-22.856-16.032-37.71-3.06-14.413-3.957-31.682-2.342-45.07,1.548-14.424,5.066-23.859,10.62-35.282,5-9.994,11.5-21.355,19.32-33.763,13.772-21.95,32.184-47.547,52.49-50.679a86.867,86.867,0,0,1,13.112-1.1c16.523,0,29.016,6.4,39.314,20.154,7.486,10.077,14.162,25.2,19.3,43.748a343,343,0,0,1,10.633,59.626c1.561,19.846.861,34.38-2.339,48.6a123.4,123.4,0,0,1-16.05,38.638C2267.641,132.173,2249.167,144.739,2230.455,144.739Z" transform="translate(-1344.031 -1745.166) rotate(90)" fill="#ff6978"/>
    <g id="Group_67" data-name="Group 67" transform="translate(-1515.429 452.866)">
      <path id="Path_125" data-name="Path 125" d="M-1449.839,614.206c-5.786-3.493-14.068-5.5-23.561-8.367-8.342-2.409-17.461-4.854-25.3-6.332-8.241-1.477-14.284-1-16.264,4.705-1.952,5.38,2.438,16.758,10.439,23.817,9.3,7.914,13.7,3.7,16.55,1.381,3-2.7,4.622-3.991,10.6-1.807,7.872,2.46,7,6.453,6.712,8.048-.634,3.144-4.517,5.175-11.01,6.639-7.46,1.9-17.05,1.23-19.417,9.8-1.48,5.279,2.033,15.551,11.459,20.379,10.416,4.887,14.074-.785,16.219-3.615a14.246,14.246,0,0,1,2.161-2.6c1.045-.88,4.121-2.065,7.062-3.484,8.857-3.833,21.727-13.622,23.445-27.789C-1439.493,625.034-1442.763,618.4-1449.839,614.206Z" transform="translate(1515.429 -598.793)" fill="#59e8dc" stroke="#fefefe" stroke-width="2"/>
      <path id="Path_126" data-name="Path 126" d="M-1483.937,833.708c-9.5-4.639-18.824-5.665-20.792,1.325-1.967,6.929,4.628,20.247,14.7,25.863,10.073,5.694,19.4,1.143,20.79-6.723C-1467.846,846.186-1474.441,838.456-1483.937,833.708Z" transform="translate(1508.569 -751.996)" fill="#59e8dc" stroke="#fefefe" stroke-width="2"/>
    </g>
    <g id="Group_68" data-name="Group 68" transform="translate(-1459.546 444.975)">
      <path id="Path_127" data-name="Path 127" d="M-1286.7,575.452c-6.24-.453-14.773,2.675-24.266,7.378a126.811,126.811,0,0,0-24.466,16.385c-7.68,6.627-12.966,13.357-14.183,20.443-1.209,6.809,3.721,12.349,11.722,11.262,9.3-1.429,13.065-8.932,15.493-13.623,2.561-5.071,3.936-7.772,9.913-10.352,7.872-3.6,7.5,1.174,7.369,2.875-.279,3.554-3.878,8.178-9.946,14.653-6.971,7.579-15.95,15.452-17.26,25.618-.82,6.317,3.394,12.557,12.821,9.722,10.416-3.358,13.453-11.057,15.227-15.4a29.652,29.652,0,0,1,1.837-4.013c.93-1.564,3.82-4.735,6.582-7.912,8.323-9.373,20.387-24.94,20.66-40.1C-1274.965,581.7-1279.069,575.947-1286.7,575.452Z" transform="translate(1349.8 -575.408)" fill="#fefefe" stroke="#fefefe" stroke-width="2"/>
      <path id="Path_128" data-name="Path 128" d="M-1298.806,849.313c-9.5,2.941-18.124,10.554-19.232,18.828s6.188,14.6,16.261,12.164c10.073-2.4,18.7-12.726,19.23-21.46C-1282.015,850.037-1289.309,846.425-1298.806,849.313Z" transform="translate(1328.828 -756.249)" fill="#fefefe" stroke="#fefefe" stroke-width="2"/>
    </g>
    <g id="Group_69" data-name="Group 69" transform="translate(-1403.788 407.691)">
      <path id="Path_129" data-name="Path 129" d="M-1123.814,465.028c-6.7-.856-15.478,2.7-24.971,9.735-8.343,6.172-16.85,15.674-23.628,25.605-7.119,10.494-11.646,20.567-12.1,28.357-.465,7.572,5,9.993,13,5.174,9.3-5.643,12.43-14.356,14.436-20.08,2.118-6.031,3.251-9.381,9.227-13.429,7.872-5.327,7.992.031,8.027,1.767.076,3.811-3.239,9.043-8.883,17.181-6.481,9.409-14.852,20.875-15.1,31.918-.16,6.9,4.756,11.436,14.182,6.137,10.416-5.856,12.832-13.909,14.234-18.778a30.734,30.734,0,0,1,1.512-4.409c.813-1.735,3.519-5.3,6.1-8.709,7.789-10.321,19.046-25.013,17.875-41.015C-1110.684,473.169-1115.622,466.039-1123.814,465.028Z" transform="translate(1184.543 -464.903)" fill="#59e8dc" stroke="#fefefe" stroke-width="2"/>
      <path id="Path_130" data-name="Path 130" d="M-1113.93,761.242c-9.5,5.283-17.425,16.774-17.672,25.721-.248,8.979,7.747,12.365,17.821,7.437s18-16.279,17.671-25.588C-1096.44,759.475-1104.434,755.957-1113.93,761.242Z" transform="translate(1149.468 -659.622)" fill="#59e8dc" stroke="#fefefe" stroke-width="2"/>
    </g>
    <g id="Group_70" data-name="Group 70" transform="translate(-1352.814 383.137)">
      <path id="Path_131" data-name="Path 131" d="M-974.782,395.614c-7.112-4.462-16.124-4.76-25.617-.192-8.342,3.954-16.57,12.577-22.86,22.6-6.6,10.581-10.437,21.514-10.194,29.719.216,8.035,6.179,10.24,14.179,5.877,9.3-5,11.847-13.3,13.468-18.99,1.713-5.879,2.623-9.271,8.6-11.77,7.872-3.092,8.446,2.849,8.63,4.631.4,4.078-2.654,8.257-7.909,15.179-6.033,7.939-13.845,18.635-13.127,30.345.445,7.352,6,12.694,15.43,9.7,10.416-3.1,12.262-10.3,13.324-14.968a21.036,21.036,0,0,1,1.214-4.034c.707-1.5,3.244-4.1,5.664-6.477,7.3-7.409,17.817-15.835,15.322-33.156C-960.375,411.833-966.078,401.06-974.782,395.614Z" transform="translate(1033.464 -392.13)" fill="#fefefe" stroke="#fefefe" stroke-width="2"/>
      <path id="Path_132" data-name="Path 132" d="M-944.74,688.561c-9.5,2.828-16.784,14.024-16.243,23.457.541,9.506,9.176,14.049,19.25,11.716,10.073-2.372,17.359-10.8,16.242-20.789S-935.244,685.679-944.74,688.561Z" transform="translate(985.457 -588.123)" fill="#fefefe" stroke="#fefefe" stroke-width="2"/>
    </g>
    <g id="Group_71" data-name="Group 71" transform="translate(-1302.01 378.558)">
      <path id="Path_133" data-name="Path 133" d="M-826.084,401.123c-7.529-11.364-16.77-19.693-26.263-21.987-8.342-2.13-16.29,1.8-22.092,9-6.091,7.609-9.228,17.626-8.287,26.358.9,8.6,7.354,13.35,15.355,13.149,9.3-.05,11.264-6.749,12.5-11.661,1.308-4.932,1.995-7.947,7.971-6.127a13.716,13.716,0,0,1,9.232,11.494c.726,4.531-2.069,6.241-6.934,9.514-5.584,3.673-12.838,9.98-11.15,22.69,1.05,8.008,7.251,16.733,16.678,20.42,10.416,4.483,11.693-1.005,12.415-4.985a9.661,9.661,0,0,1,.917-3.1c.6-.931,2.968-1.407,5.224-1.621,6.811-1.115,16.589,1.6,12.77-18.2A129.734,129.734,0,0,0-826.084,401.123Z" transform="translate(882.891 -378.558)" fill="#59e8dc" stroke="#fefefe" stroke-width="2"/>
      <path id="Path_134" data-name="Path 134" d="M-775.782,692.482c-9.5-4.027-16.142,3.5-14.813,13.666,1.329,10.284,10.605,19.985,20.679,24.915,10.073,4.853,16.718,2.711,14.813-8.466C-757.01,711.476-766.286,696.4-775.782,692.482Z" transform="translate(821.848 -585.831)" fill="#59e8dc" stroke="#fefefe" stroke-width="2"/>
    </g>
  </g>
</svg>
