<?xml version="1.0" encoding="utf-8"?>
<!-- Generator: Adobe Illustrator 23.0.0, SVG Export Plug-In . SVG Version: 6.00 Build 0)  -->
<svg version="1.1" id="圖層_1" xmlns="http://www.w3.org/2000/svg" xmlns:xlink="http://www.w3.org/1999/xlink" x="0px" y="0px"
	 viewBox="0 0 500 500" style="enable-background:new 0 0 500 500;" xml:space="preserve">
<style type="text/css">
	.st0{fill:#420039;}
	.st1{fill:#FFFFFF;}
	.st2{fill:#FFE46A;stroke:#000000;stroke-width:2;stroke-miterlimit:10;}
	.st3{fill:#FF9EB8;stroke:#000000;stroke-width:2;stroke-miterlimit:10;}
	.st4{fill:#FFFFFF;stroke:#000000;stroke-width:2;stroke-miterlimit:10;}
	.st5{fill:none;stroke:#000000;}
	.st6{fill:#2A6CFF;stroke:#000000;}
	.st7{fill:#FF6978;}
	.st8{fill:#FFDC6E;stroke:#000000;stroke-width:2;stroke-miterlimit:10;}
	.st9{fill:#90B8E6;stroke:#000000;stroke-width:2;stroke-miterlimit:10;}
	.st10{fill:none;stroke:#000000;stroke-width:2;stroke-miterlimit:10;}
	.st11{fill:#FFDE00;}
	.st12{stroke:#000000;stroke-miterlimit:10;}
	.st13{fill:#59E8DC;}
	.st14{fill:none;stroke:#59E8DC;stroke-width:2;}
	.st15{fill:#FEFEFE;}
	.st16{fill:none;stroke:#FFFFFF;stroke-width:6;stroke-miterlimit:10;}
	.st17{fill:none;stroke:#59E8DC;stroke-width:6;stroke-miterlimit:10;}
</style>
<g>
	<rect x="-0.5" y="0.5" class="st0" width="103.99" height="103.99"/>
</g>
<g>
	<g>
		<path class="st0" d="M196.99,6.5v91.99H105V6.5H196.99 M202.99,0.5H99v103.99h103.99V0.5L202.99,0.5z"/>
	</g>
</g>
<g>
	<rect x="197.76" y="0.5" class="st0" width="103.99" height="103.99"/>
</g>
<g>
	<g>
		<path class="st0" d="M395.25,6.5v91.99h-91.99V6.5H395.25 M401.25,0.5H297.26v103.99h103.99V0.5L401.25,0.5z"/>
	</g>
</g>
<g>
	<g>
		<path class="st0" d="M97.49,105.25v91.99H5.5v-91.99H97.49 M103.49,99.25H-0.5v103.99h103.99V99.25L103.49,99.25z"/>
	</g>
</g>
<g>
	<rect x="99" y="99.25" class="st0" width="103.99" height="103.99"/>
</g>
<g>
	<g>
		<path class="st0" d="M295.75,105.25v91.99h-91.99v-91.99H295.75 M301.75,99.25H197.76v103.99h103.99V99.25L301.75,99.25z"/>
	</g>
</g>
<g>
	<rect x="297.26" y="99.25" class="st0" width="103.99" height="103.99"/>
</g>
<g>
	<rect x="-0.5" y="198.76" class="st0" width="103.99" height="103.99"/>
</g>
<g>
	<g>
		<path class="st0" d="M196.99,204.76v91.99H105v-91.99H196.99 M202.99,198.76H99v103.99h103.99V198.76L202.99,198.76z"/>
	</g>
</g>
<g>
	<rect x="197.76" y="198.76" class="st0" width="103.99" height="103.99"/>
</g>
<g>
	<g>
		<path class="st0" d="M395.25,204.76v91.99h-91.99v-91.99H395.25 M401.25,198.76H297.26v103.99h103.99V198.76L401.25,198.76z"/>
	</g>
</g>
<g>
	<g>
		<path class="st0" d="M97.49,303.51v91.99H5.5v-91.99H97.49 M103.49,297.51H-0.5V401.5h103.99V297.51L103.49,297.51z"/>
	</g>
</g>
<g>
	<rect x="99" y="297.51" class="st0" width="103.99" height="103.99"/>
</g>
<g>
	<g>
		<path class="st0" d="M295.75,303.51v91.99h-91.99v-91.99H295.75 M301.75,297.51H197.76V401.5h103.99V297.51L301.75,297.51z"/>
	</g>
</g>
<g>
	<rect x="395.85" y="0.5" class="st0" width="103.99" height="103.99"/>
</g>
<g>
	<g>
		<path class="st0" d="M493.84,105.25v91.99h-91.99v-91.99H493.84 M499.84,99.25H395.85v103.99h103.99V99.25L499.84,99.25z"/>
	</g>
</g>
<g>
	<rect x="395.85" y="198.76" class="st0" width="103.99" height="103.99"/>
</g>
<g>
	<rect x="-0.5" y="396.76" class="st0" width="103.99" height="103.99"/>
</g>
<g>
	<g>
		<path class="st0" d="M196.99,402.76v91.99H105v-91.99H196.99 M202.99,396.76H99v103.99h103.99V396.76L202.99,396.76z"/>
	</g>
</g>
<g>
	<rect x="197.76" y="396.76" class="st0" width="103.99" height="103.99"/>
</g>
<g>
	<g>
		<path class="st0" d="M395.25,402.76v91.99h-91.99v-91.99H395.25 M401.25,396.76H297.26v103.99h103.99V396.76L401.25,396.76z"/>
	</g>
</g>
<g>
	<rect x="395.85" y="396.76" class="st0" width="103.99" height="103.99"/>
</g>
<g>
	<g>
		<path class="st0" d="M493.84,303.51v91.99h-91.99v-91.99H493.84 M499.84,297.51H395.85V401.5h103.99V297.51L499.84,297.51z"/>
	</g>
</g>
<g>
	<rect x="297.26" y="297.51" class="st0" width="103.99" height="103.99"/>
</g>
</svg>
