<?xml version="1.0" encoding="utf-8"?>
<!-- Generator: Adobe Illustrator 23.0.0, SVG Export Plug-In . SVG Version: 6.00 Build 0)  -->
<svg version="1.1" id="圖層_1" xmlns="http://www.w3.org/2000/svg" xmlns:xlink="http://www.w3.org/1999/xlink" x="0px" y="0px"
	 viewBox="0 0 500 500" style="enable-background:new 0 0 500 500;" xml:space="preserve">
<style type="text/css">
	.st0{fill:#420039;}
	.st1{fill:#FFFFFF;}
	.st2{fill:#FFE46A;stroke:#000000;stroke-width:2;stroke-miterlimit:10;}
	.st3{fill:#FF9EB8;stroke:#000000;stroke-width:2;stroke-miterlimit:10;}
	.st4{fill:#FFFFFF;stroke:#000000;stroke-width:2;stroke-miterlimit:10;}
	.st5{fill:none;stroke:#000000;}
	.st6{fill:#2A6CFF;stroke:#000000;}
	.st7{fill:#FF6978;}
	.st8{fill:#FFDC6E;stroke:#000000;stroke-width:2;stroke-miterlimit:10;}
	.st9{fill:#90B8E6;stroke:#000000;stroke-width:2;stroke-miterlimit:10;}
	.st10{fill:none;stroke:#000000;stroke-width:2;stroke-miterlimit:10;}
	.st11{fill:#FFDE00;}
	.st12{stroke:#000000;stroke-miterlimit:10;}
	.st13{fill:#59E8DC;}
	.st14{fill:none;stroke:#59E8DC;stroke-width:2;}
	.st15{fill:#FEFEFE;}
	.st16{fill:none;stroke:#FFFFFF;stroke-width:6;stroke-miterlimit:10;}
	.st17{fill:none;stroke:#59E8DC;stroke-width:6;stroke-miterlimit:10;}
</style>
<g id="LINES_3_">
	<line id="Line_1_3_" class="st17" x1="-28.33" y1="-13.26" x2="531.94" y2="498.58"/>
	<line id="Line_2_3_" class="st17" x1="531.94" y1="-13.26" x2="-28.33" y2="498.58"/>
	<line id="Line_3_3_" class="st17" x1="-28.33" y1="242.66" x2="531.94" y2="242.66"/>
	<line id="Line_4_3_" class="st17" x1="251.81" y1="-12.11" x2="251.81" y2="504.35"/>
	<line id="Line_5_3_" class="st17" x1="110.01" y1="-10.96" x2="400.52" y2="505.5"/>
	<line id="Line_6_3_" class="st17" x1="395.91" y1="-10.96" x2="105.4" y2="505.5"/>
	<line id="Line_7_3_" class="st17" x1="-26.02" y1="131.99" x2="529.63" y2="353.33"/>
	<line id="Line_8_3_" class="st17" x1="529.63" y1="131.99" x2="-26.02" y2="353.33"/>
	<line id="Line_9_3_" class="st17" x1="326.74" y1="-13.26" x2="176.87" y2="505.5"/>
	<line id="Line_10_3_" class="st17" x1="176.87" y1="-13.26" x2="326.74" y2="505.5"/>
	<line id="Line_11_3_" class="st17" x1="47.76" y1="-10.96" x2="465.07" y2="505.5"/>
	<line id="Line_12_3_" class="st17" x1="460.46" y1="-10.96" x2="43.15" y2="505.5"/>
	<line id="Line_13_3_" class="st17" x1="-28.33" y1="65.13" x2="529.63" y2="424.8"/>
	<line id="Line_14_3_" class="st17" x1="529.63" y1="65.13" x2="-28.33" y2="424.8"/>
	<line id="Line_15_3_" class="st17" x1="-26.02" y1="187.33" x2="529.63" y2="295.69"/>
	<line id="Line_16_3_" class="st17" x1="529.63" y1="187.33" x2="-26.02" y2="295.69"/>
</g>
<g id="Path_153_3_">
	<path class="st1" d="M219.29,241.76c-0.26-4.17,0.62-8.33,2.55-12.04c1.98-3.51,4.32-6.81,6.97-9.85
		c5.88-7.11,14.01-13.6,22.99-10.62c8.98,2.95,17.11,4.74,22.99,9.33c3.22,2.77,5.62,6.35,6.97,10.38
		c1.52,4.11,2.38,8.43,2.55,12.81c0.22,2.71-0.71,5.38-2.55,7.37c-1.65,1.97-4.03,4.79-6.97,8.25c-5.88,7.1-14.01,15.81-22.99,16.89
		c-8.98,1.05-17.11,3.47-22.99-1.29c-2.94-2.39-5.32-6.77-6.97-12.82C220.25,254.15,219.39,247.97,219.29,241.76z"/>
</g>
</svg>
