<?xml version="1.0" encoding="utf-8"?>
<!-- Generator: Adobe Illustrator 23.0.0, SVG Export Plug-In . SVG Version: 6.00 Build 0)  -->
<svg version="1.1" id="圖層_1" xmlns="http://www.w3.org/2000/svg" xmlns:xlink="http://www.w3.org/1999/xlink" x="0px" y="0px"
	 viewBox="0 0 1000 500" style="enable-background:new 0 0 1000 500;" xml:space="preserve">
<style type="text/css">
	.st0{fill:#420039;}
	.st1{fill:#FFFFFF;}
	.st2{fill:#FFE46A;stroke:#000000;stroke-width:2;stroke-miterlimit:10;}
	.st3{fill:#FF9EB8;stroke:#000000;stroke-width:2;stroke-miterlimit:10;}
	.st4{fill:#FFFFFF;stroke:#000000;stroke-width:2;stroke-miterlimit:10;}
	.st5{fill:none;stroke:#000000;}
	.st6{fill:#2A6CFF;stroke:#000000;}
	.st7{fill:#FF6978;}
	.st8{fill:#FFDC6E;stroke:#000000;stroke-width:2;stroke-miterlimit:10;}
	.st9{fill:#90B8E6;stroke:#000000;stroke-width:2;stroke-miterlimit:10;}
	.st10{fill:none;stroke:#000000;stroke-width:2;stroke-miterlimit:10;}
	.st11{fill:#FFDE00;}
	.st12{stroke:#000000;stroke-miterlimit:10;}
	.st13{fill:#59E8DC;}
	.st14{fill:none;stroke:#59E8DC;stroke-width:2;}
	.st15{fill:#FEFEFE;}
	.st16{fill:none;stroke:#FFFFFF;stroke-width:6;stroke-miterlimit:10;}
	.st17{fill:none;stroke:#59E8DC;stroke-width:6;stroke-miterlimit:10;}
</style>
<g>
	<circle class="st0" cx="160" cy="262.5" r="102.5"/>
	<path class="st1" d="M160,164.5c54.04,0,98,43.96,98,98s-43.96,98-98,98s-98-43.96-98-98S105.96,164.5,160,164.5 M160,155.5
		c-59.09,0-107,47.91-107,107s47.91,107,107,107s107-47.91,107-107S219.09,155.5,160,155.5L160,155.5z"/>
</g>
<g>
	<path class="st0" d="M326.38,368c-4.79,0-9.57-2.33-14.63-4.79c-3.57-1.74-7.25-3.53-11.14-4.57c-4.05-1.08-8.25-1.39-12.31-1.69
		c-5.53-0.41-10.76-0.79-14.68-3.06c-4.01-2.32-6.96-6.68-10.08-11.3c-2.26-3.35-4.6-6.8-7.52-9.72c-2.92-2.92-6.38-5.26-9.72-7.52
		c-4.62-3.13-8.99-6.08-11.3-10.08c-2.27-3.92-2.65-9.15-3.06-14.68c-0.3-4.06-0.61-8.26-1.69-12.31
		c-1.04-3.88-2.83-7.57-4.57-11.14c-2.46-5.06-4.79-9.84-4.79-14.63s2.33-9.57,4.79-14.63c1.74-3.57,3.53-7.25,4.57-11.14
		c1.08-4.05,1.39-8.25,1.69-12.31c0.41-5.53,0.79-10.76,3.06-14.68c2.32-4,6.68-6.96,11.3-10.08c3.35-2.26,6.8-4.6,9.72-7.52
		c2.92-2.92,5.26-6.38,7.52-9.72c3.13-4.62,6.08-8.99,10.08-11.3c3.92-2.27,9.15-2.65,14.68-3.06c4.06-0.3,8.26-0.61,12.31-1.69
		c3.88-1.04,7.57-2.83,11.14-4.57c5.06-2.47,9.84-4.79,14.63-4.79s9.57,2.33,14.63,4.79c3.57,1.74,7.25,3.53,11.14,4.57
		c4.05,1.08,8.25,1.39,12.31,1.69c5.53,0.41,10.76,0.79,14.68,3.06c4.01,2.32,6.96,6.68,10.08,11.31c2.26,3.34,4.6,6.8,7.52,9.72
		c2.92,2.92,6.38,5.26,9.72,7.52c4.62,3.13,8.99,6.08,11.3,10.08c2.27,3.92,2.65,9.15,3.06,14.68c0.3,4.06,0.61,8.26,1.69,12.31
		c1.04,3.88,2.83,7.57,4.57,11.14c2.46,5.06,4.79,9.84,4.79,14.63s-2.33,9.57-4.79,14.63c-1.74,3.57-3.53,7.25-4.57,11.14
		c-1.08,4.05-1.39,8.25-1.69,12.31c-0.41,5.53-0.79,10.76-3.06,14.68c-2.32,4.01-6.68,6.96-11.3,10.08c-3.34,2.26-6.8,4.6-9.72,7.52
		c-2.92,2.92-5.26,6.38-7.52,9.72c-3.13,4.62-6.08,8.99-10.08,11.31c-3.92,2.27-9.15,2.65-14.68,3.06
		c-4.06,0.3-8.26,0.61-12.31,1.69c-3.88,1.04-7.57,2.83-11.14,4.57C335.95,365.67,331.17,368,326.38,368z"/>
	<path class="st1" d="M326.38,161.5c3.75,0,8.07,2.11,12.66,4.34c3.76,1.83,7.64,3.72,11.95,4.87c4.46,1.19,8.87,1.52,13.14,1.83
		c5,0.37,9.73,0.72,12.76,2.47c3.11,1.8,5.78,5.75,8.61,9.93c2.38,3.52,4.84,7.16,8.06,10.38c3.22,3.22,6.86,5.68,10.38,8.06
		c4.18,2.83,8.13,5.5,9.93,8.61c1.75,3.03,2.1,7.75,2.47,12.76c0.31,4.27,0.64,8.68,1.83,13.14c1.15,4.3,3.04,8.19,4.87,11.95
		c2.23,4.58,4.34,8.91,4.34,12.66s-2.11,8.07-4.34,12.66c-1.83,3.76-3.72,7.64-4.87,11.95c-1.19,4.46-1.52,8.87-1.83,13.14
		c-0.37,5-0.72,9.73-2.47,12.76c-1.8,3.11-5.75,5.78-9.93,8.61c-3.52,2.38-7.16,4.84-10.38,8.06c-3.22,3.22-5.68,6.86-8.06,10.38
		c-2.83,4.18-5.5,8.13-8.61,9.93c-3.03,1.75-7.75,2.1-12.76,2.47c-4.27,0.31-8.68,0.64-13.14,1.83c-4.3,1.15-8.19,3.04-11.95,4.87
		c-4.58,2.23-8.91,4.34-12.66,4.34c-3.75,0-8.07-2.11-12.66-4.34c-3.76-1.83-7.64-3.72-11.95-4.87c-4.46-1.19-8.87-1.52-13.14-1.83
		c-5-0.37-9.73-0.72-12.76-2.47c-3.11-1.8-5.78-5.75-8.61-9.93c-2.38-3.52-4.84-7.16-8.06-10.38c-3.22-3.22-6.86-5.68-10.38-8.06
		c-4.18-2.83-8.13-5.5-9.93-8.61c-1.75-3.03-2.1-7.75-2.47-12.76c-0.31-4.27-0.64-8.68-1.83-13.14c-1.15-4.3-3.04-8.19-4.87-11.95
		c-2.23-4.58-4.34-8.91-4.34-12.66s2.11-8.07,4.34-12.66c1.83-3.76,3.72-7.64,4.87-11.95c1.19-4.46,1.52-8.87,1.83-13.14
		c0.37-5,0.72-9.73,2.47-12.76c1.8-3.11,5.75-5.78,9.93-8.61c3.52-2.38,7.16-4.84,10.38-8.06c3.22-3.22,5.68-6.86,8.06-10.38
		c2.83-4.18,5.5-8.13,8.61-9.93c3.03-1.75,7.75-2.1,12.76-2.47c4.27-0.31,8.68-0.64,13.14-1.83c4.3-1.15,8.19-3.04,11.95-4.87
		C318.31,163.61,322.63,161.5,326.38,161.5 M326.38,152.5c-9.58,0-18.09,7.16-26.93,9.52c-9.14,2.44-20.08,0.57-28.08,5.2
		c-8.12,4.7-11.94,15.15-18.53,21.74c-6.59,6.59-17.04,10.41-21.74,18.53c-4.63,8-2.76,18.94-5.2,28.08
		c-2.36,8.84-9.52,17.35-9.52,26.93c0,9.58,7.16,18.09,9.52,26.93c2.44,9.14,0.57,20.08,5.2,28.08c4.7,8.12,15.15,11.94,21.74,18.53
		s10.41,17.04,18.53,21.74c8,4.63,18.94,2.76,28.08,5.2c8.84,2.36,17.35,9.52,26.93,9.52c9.58,0,18.09-7.16,26.93-9.52
		c9.14-2.44,20.08-0.57,28.08-5.2c8.12-4.7,11.94-15.15,18.53-21.74c6.59-6.59,17.04-10.41,21.74-18.53c4.63-8,2.76-18.94,5.2-28.08
		c2.36-8.84,9.52-17.35,9.52-26.93c0-9.58-7.16-18.09-9.52-26.93c-2.44-9.14-0.57-20.08-5.2-28.08
		c-4.7-8.12-15.15-11.94-21.74-18.53s-10.41-17.04-18.53-21.74c-8-4.63-18.94-2.76-28.08-5.2
		C344.47,159.66,335.96,152.5,326.38,152.5L326.38,152.5z"/>
</g>
<g>
	<path class="st0" d="M515.62,367.44c-2.54,0-5.97-1.64-9.28-3.23c-4.32-2.07-8.79-4.21-13.58-4.21s-9.26,2.14-13.58,4.21
		c-3.31,1.59-6.74,3.23-9.28,3.23c-0.39,0-0.74-0.04-1.07-0.11c-2.8-0.64-5.59-4.14-8.3-7.52c-2.92-3.66-5.94-7.44-10.08-9.44
		c-4.23-2.04-9.13-2.05-13.86-2.07c-4.27-0.01-8.69-0.02-10.86-1.75c-2.19-1.75-3.18-6.07-4.14-10.25
		c-1.06-4.61-2.15-9.37-5.07-13.02c-2.89-3.63-7.28-5.74-11.52-7.78c-3.88-1.87-7.89-3.8-9.12-6.35c-1.19-2.46-0.22-6.75,0.72-10.9
		c1.05-4.64,2.13-9.44,1.08-14.05c-1.01-4.45-4.01-8.21-6.91-11.85c-2.71-3.41-5.52-6.93-5.52-9.86s2.8-6.45,5.52-9.86
		c2.9-3.64,5.9-7.4,6.91-11.85c1.05-4.61-0.03-9.41-1.08-14.05c-0.94-4.15-1.9-8.44-0.72-10.9c1.23-2.55,5.24-4.48,9.12-6.35
		c4.24-2.04,8.62-4.16,11.52-7.78c2.91-3.65,4.01-8.41,5.07-13.01c0.96-4.18,1.96-8.5,4.14-10.25c2.16-1.73,6.58-1.74,10.86-1.75
		c4.74-0.01,9.64-0.03,13.86-2.07c4.14-2,7.16-5.78,10.08-9.44c2.7-3.38,5.5-6.88,8.3-7.52c0.33-0.08,0.68-0.11,1.07-0.11
		c2.54,0,5.97,1.64,9.28,3.23c4.32,2.07,8.79,4.21,13.58,4.21s9.26-2.14,13.58-4.21c3.31-1.59,6.74-3.23,9.28-3.23
		c0.39,0,0.74,0.04,1.07,0.11c2.8,0.64,5.59,4.14,8.3,7.52c2.92,3.66,5.94,7.44,10.08,9.44c4.23,2.04,9.13,2.05,13.86,2.07
		c4.27,0.01,8.69,0.02,10.86,1.75c2.19,1.75,3.18,6.07,4.14,10.25c1.06,4.6,2.15,9.37,5.07,13.01c2.89,3.63,7.28,5.74,11.52,7.78
		c3.88,1.87,7.89,3.8,9.12,6.35c1.19,2.46,0.22,6.75-0.72,10.9c-1.05,4.64-2.13,9.44-1.08,14.05c1.01,4.45,4.01,8.21,6.91,11.85
		c2.71,3.41,5.52,6.93,5.52,9.86s-2.8,6.45-5.52,9.86c-2.9,3.64-5.9,7.41-6.91,11.85c-1.05,4.61,0.03,9.41,1.08,14.04
		c0.94,4.15,1.91,8.44,0.72,10.9c-1.23,2.55-5.24,4.48-9.12,6.35c-4.24,2.04-8.62,4.16-11.52,7.78c-2.91,3.65-4.01,8.41-5.07,13.02
		c-0.96,4.18-1.96,8.5-4.14,10.25c-2.16,1.73-6.58,1.74-10.86,1.75c-4.74,0.01-9.64,0.03-13.86,2.07c-4.14,2-7.16,5.78-10.08,9.44
		c-2.7,3.38-5.5,6.88-8.3,7.52C516.36,367.4,516,367.44,515.62,367.44z"/>
	<path class="st1" d="M515.62,162.06c0.04,0,0.07,0,0.08,0c0,0,0,0,0,0c1.27,0.3,4.2,3.97,5.77,5.94
		c3.08,3.86,6.58,8.24,11.64,10.68c5.15,2.48,10.81,2.5,15.81,2.51c2.46,0.01,7.05,0.02,8.06,0.77c0.97,0.8,2.05,5.49,2.56,7.74
		c1.12,4.86,2.38,10.37,5.94,14.81c3.53,4.43,8.61,6.87,13.08,9.03c2.1,1.01,6.48,3.12,7.02,4.25c0.48,1.16-0.52,5.58-1.05,7.96
		c-1.1,4.89-2.35,10.43-1.08,16.03c1.24,5.45,4.71,9.81,7.77,13.66c1.59,1.99,4.54,5.7,4.54,7.06s-2.95,5.06-4.54,7.06
		c-3.06,3.85-6.54,8.21-7.77,13.66c-1.27,5.6-0.02,11.14,1.08,16.03c0.54,2.37,1.53,6.79,1.06,7.95c-0.55,1.13-4.92,3.24-7.02,4.25
		c-4.47,2.16-9.55,4.6-13.08,9.03c-3.55,4.45-4.82,9.96-5.94,14.81c-0.52,2.25-1.6,6.94-2.56,7.74c-1.01,0.75-5.6,0.76-8.06,0.77
		c-5,0.01-10.66,0.03-15.81,2.51c-5.07,2.44-8.56,6.82-11.64,10.68c-1.58,1.98-4.51,5.65-5.76,5.94c0,0-0.03,0-0.09,0
		c-1.52,0-4.74-1.54-7.33-2.79c-4.55-2.18-9.71-4.65-15.52-4.65c-5.81,0-10.97,2.47-15.52,4.65c-2.59,1.24-5.81,2.79-7.33,2.79
		c-0.04,0-0.07,0-0.08,0c0,0,0,0,0,0c-1.27-0.3-4.2-3.97-5.77-5.94c-3.08-3.86-6.58-8.24-11.64-10.68
		c-5.15-2.48-10.81-2.5-15.81-2.51c-2.46-0.01-7.05-0.02-8.06-0.77c-0.97-0.8-2.05-5.49-2.56-7.74c-1.12-4.86-2.38-10.36-5.94-14.81
		c-3.53-4.43-8.61-6.87-13.08-9.03c-2.1-1.01-6.48-3.12-7.02-4.25c-0.48-1.16,0.52-5.58,1.05-7.96c1.1-4.89,2.35-10.43,1.08-16.03
		c-1.24-5.45-4.71-9.81-7.77-13.66c-1.59-1.99-4.54-5.7-4.54-7.06s2.95-5.06,4.54-7.06c3.06-3.85,6.54-8.21,7.77-13.66
		c1.27-5.6,0.02-11.14-1.08-16.03c-0.54-2.37-1.53-6.79-1.05-7.95c0.55-1.13,4.92-3.24,7.02-4.25c4.48-2.16,9.55-4.6,13.08-9.03
		c3.55-4.45,4.82-9.96,5.94-14.81c0.52-2.25,1.6-6.94,2.56-7.74c1.01-0.75,5.6-0.76,8.06-0.77c5-0.01,10.66-0.03,15.81-2.51
		c5.07-2.44,8.56-6.82,11.64-10.68c1.58-1.98,4.51-5.65,5.76-5.94c0,0,0.03,0,0.09,0c1.52,0,4.74,1.54,7.33,2.79
		c4.55,2.18,9.71,4.65,15.52,4.65s10.97-2.47,15.52-4.65C510.88,163.6,514.1,162.06,515.62,162.06 M515.62,153.06
		c-7.19,0-15.4,7.44-22.86,7.44c-7.46,0-15.66-7.44-22.86-7.44c-0.7,0-1.39,0.07-2.07,0.22c-7.91,1.8-12.2,13.85-19.34,17.29
		c-7.25,3.5-19.34-0.62-25.57,4.36c-6.26,5-4.92,17.71-9.92,23.97c-4.97,6.23-17.68,7.73-21.18,14.99
		c-3.44,7.14,3.26,17.99,1.47,25.9c-1.74,7.66-12.54,14.52-12.54,22.71s10.79,15.05,12.54,22.71c1.8,7.91-4.91,18.76-1.47,25.9
		c3.5,7.25,16.2,8.76,21.18,14.99c5,6.26,3.66,18.97,9.92,23.97c6.23,4.97,18.32,0.86,25.57,4.36c7.14,3.44,11.43,15.49,19.34,17.29
		c0.68,0.15,1.37,0.22,2.07,0.22c7.19,0,15.4-7.44,22.86-7.44c7.46,0,15.66,7.44,22.86,7.44c0.7,0,1.39-0.07,2.07-0.22
		c7.91-1.8,12.2-13.85,19.34-17.29c7.25-3.5,19.34,0.62,25.57-4.36c6.26-5,4.92-17.71,9.92-23.97c4.97-6.23,17.68-7.73,21.18-14.99
		c3.44-7.14-3.26-17.99-1.47-25.9c1.74-7.66,12.54-14.52,12.54-22.71s-10.79-15.05-12.54-22.71c-1.8-7.91,4.91-18.76,1.47-25.9
		c-3.5-7.25-16.2-8.76-21.18-14.99c-5-6.26-3.66-18.97-9.92-23.97c-6.23-4.97-18.32-0.86-25.57-4.36
		c-7.14-3.44-11.43-15.49-19.34-17.29C517.01,153.13,516.32,153.06,515.62,153.06L515.62,153.06z"/>
</g>
<g>
	<path class="st0" d="M677.31,370.19c-1.97,0-6.46-2.58-9.75-4.46c-4.45-2.55-9.05-5.19-13.18-5.7c-0.57-0.07-1.13-0.1-1.68-0.1
		c-3.96,0-7.12,1.69-9.66,3.05c-1.86,1-3.47,1.85-4.88,1.85c-0.47,0-0.94-0.09-1.45-0.28c-3.53-1.22-7.9-5.57-11.75-9.41
		c-3.62-3.61-7.05-7.02-10.6-9.04c-4.19-2.3-8.7-2.82-12.68-3.28c-4.15-0.48-7.74-0.89-10.47-2.97c-3.17-2.33-5.04-6.93-6.86-11.37
		c-1.54-3.78-3.14-7.69-5.66-10.74c-2.96-3.49-7.17-5.67-11.24-7.77c-3.72-1.92-7.57-3.91-8.91-6.3c-1.21-2.12-0.33-5.7,0.61-9.49
		c0.96-3.9,1.96-7.93,1.18-11.95c-0.85-4.28-3.76-7.74-6.58-11.08c-2.25-2.67-4.79-5.69-4.71-7.74c0.09-2.12,3.13-5.25,5.82-8.02
		c3.17-3.26,6.45-6.64,7.73-10.72c1.48-4.61,0.18-9.32-0.97-13.48c-0.88-3.18-1.79-6.46-0.9-8.21c1.09-2.13,5.42-4.21,9.25-6.06
		c4.51-2.17,9.17-4.41,12.06-7.97c3.32-3.99,3.74-9.14,4.12-13.67c0.29-3.55,0.57-6.9,2.15-8.42c1.92-1.81,7.21-2.42,11.87-2.97
		c5.25-0.61,10.68-1.25,14.8-3.64c4.58-2.59,6.93-7.17,9-11.22c1.83-3.58,3.42-6.68,6-7.64c0.72-0.26,1.72-0.4,2.92-0.4
		c3.18,0,7.29,0.99,11.26,1.95c4.49,1.08,9.13,2.2,13.39,2.2c0.9,0,1.78-0.05,2.6-0.15c5.42-0.65,9.93-3.67,13.91-6.33
		c3.65-2.44,7.1-4.75,10.44-4.75c0.15,0,0.3,0,0.45,0.01c4.41,0.27,9.17,3.99,13.78,7.59c3.89,3.04,7.92,6.19,12.21,7.6
		c2.13,0.68,4.5,1.01,7.29,1.01c2.74,0,5.53-0.31,8.23-0.61c2.55-0.28,4.96-0.55,7.17-0.55c2.62,0,4.46,0.38,5.81,1.19
		c3.06,1.84,4.27,7.04,5.44,12.07c1,4.32,2.04,8.79,4.45,12.14c2.81,3.83,7.2,5.82,11.44,7.75c3.96,1.8,7.7,3.5,8.37,5.96
		c0.77,2.9-1.86,8.52-4.18,13.47c-2.25,4.8-4.57,9.77-4.99,14.35c-0.41,4.8,1.3,9.11,2.81,12.91c1.67,4.2,3.11,7.82,1.83,11.54
		c-1.41,4.09-5.77,8.33-9.98,12.44c-4.04,3.94-8.22,8.01-10.49,12.58c-2.53,5.04-2.94,10.65-3.34,16.07
		c-0.36,4.88-0.69,9.49-2.6,12.58c-1.93,3.17-5.86,5.02-10.02,6.98c-4.21,1.99-8.56,4.04-11.59,7.78
		c-3.46,4.16-4.6,10.21-5.61,15.55c-0.7,3.7-1.49,7.9-2.82,9.26c-0.4,0.39-1.5,0.63-3.13,0.63c-1.45,0-3.09-0.18-4.83-0.37
		c-1.89-0.21-3.84-0.42-5.76-0.42c-2.77,0-5.02,0.47-6.88,1.43c-4.27,2.12-6.21,6.8-7.76,10.55
		C679.15,366.99,678.05,369.66,677.31,370.19C677.31,370.19,677.31,370.19,677.31,370.19z"/>
	<path class="st1" d="M684.49,158.38c0.06,0,0.12,0,0.18,0.01c3.02,0.18,7.41,3.61,11.28,6.64c4.2,3.28,8.54,6.68,13.58,8.33
		l0.02,0.01l0.02,0.01c2.55,0.82,5.38,1.22,8.64,1.22c2.99,0,5.91-0.33,8.73-0.64c2.43-0.27,4.72-0.53,6.67-0.53
		c2.33,0,3.21,0.38,3.49,0.55c1.42,0.86,2.64,6.1,3.37,9.23c1.1,4.75,2.25,9.67,5.18,13.75l0.03,0.04l0.03,0.04
		c3.48,4.73,8.63,7.08,13.17,9.14c1.87,0.85,4.93,2.24,5.86,3.16c-0.05,2.08-2.53,7.36-3.88,10.27c-2.41,5.16-4.9,10.49-5.4,15.9
		c-0.5,5.84,1.51,10.88,3.12,14.94c1.73,4.36,2.42,6.47,1.76,8.41c-1.06,3.08-5.21,7.12-8.87,10.68c-4.31,4.2-8.77,8.55-11.37,13.76
		c-2.94,5.85-3.4,12.19-3.81,17.77c-0.3,4.12-0.61,8.39-1.96,10.57c-1.23,2.01-4.56,3.58-8.09,5.25c-4.43,2.09-9.45,4.47-13.12,8.97
		c-4.21,5.1-5.47,11.73-6.57,17.59c-0.37,1.94-0.88,4.66-1.4,6.23c-0.04,0-0.08,0-0.12,0c-1.2,0-2.73-0.17-4.34-0.34
		c-2.01-0.22-4.09-0.44-6.25-0.44c-3.47,0-6.37,0.62-8.87,1.9c-5.81,2.92-8.18,8.67-9.92,12.87c-0.14,0.33-0.3,0.72-0.46,1.11
		c-1.74-0.85-3.89-2.08-5.4-2.95c-4.84-2.77-9.84-5.64-14.91-6.27c-0.72-0.09-1.46-0.13-2.19-0.13c-5.09,0-8.96,2.07-11.78,3.58
		c-0.87,0.46-2.15,1.15-2.72,1.3l-0.03-0.01l-0.07-0.02c-2.48-0.86-6.81-5.17-9.97-8.32c-3.67-3.66-7.48-7.45-11.55-9.77l-0.06-0.03
		l-0.06-0.03c-4.91-2.7-9.89-3.27-14.28-3.77c-3.49-0.4-6.51-0.75-8.26-2.08l-0.06-0.04l-0.06-0.04c-2.09-1.54-3.72-5.54-5.3-9.4
		c-1.67-4.09-3.4-8.33-6.35-11.91l-0.04-0.05l-0.04-0.05c-3.5-4.12-8.31-6.61-12.57-8.81c-2.37-1.22-6.31-3.26-7.04-4.48
		c-0.24-1.05,0.56-4.29,1.04-6.24c1.03-4.17,2.19-8.89,1.23-13.88l0-0.02l0-0.02c-1.07-5.39-4.51-9.48-7.54-13.08
		c-1.13-1.34-2.93-3.48-3.52-4.65c0.74-1.29,3.01-3.62,4.42-5.08c3.37-3.47,7.19-7.4,8.78-12.45c1.9-5.92,0.34-11.56-0.91-16.09
		c-0.44-1.6-1.09-3.95-1.11-5.04c1.17-1.13,4.83-2.9,7.08-3.98c4.71-2.27,10.04-4.83,13.57-9.15c4.23-5.11,4.74-11.25,5.15-16.18
		c0.14-1.73,0.38-4.56,0.82-5.53c1.53-0.86,6.51-1.44,9.24-1.76c5.69-0.66,11.58-1.35,16.49-4.19c5.77-3.28,8.55-8.71,10.79-13.08
		c1.03-2.01,2.57-5.03,3.52-5.46c0.14-0.04,0.56-0.14,1.39-0.14c2.64,0,6.49,0.93,10.21,1.82c4.75,1.14,9.65,2.32,14.44,2.32
		c1.09,0,2.15-0.06,3.12-0.18c6.5-0.78,11.71-4.26,15.89-7.06C679.48,160.41,682.52,158.38,684.49,158.38 M684.49,149.38
		c-9,0-15.76,10.02-24.91,11.12c-0.66,0.08-1.34,0.12-2.04,0.12c-7.43,0-17.23-4.14-24.65-4.14c-1.63,0-3.15,0.2-4.5,0.69
		c-7.98,2.99-8.38,15.05-15.68,19.18c-7.19,4.18-21.91,1.96-27.52,7.25c-5.46,5.25-1.63,16.46-6.65,22.5
		c-4.86,5.99-18.51,8.33-21.83,14.83c-3.23,6.35,3.85,15.38,1.59,22.38c-2.14,6.77-13.47,12.91-13.76,19.91
		c-0.29,7,10.01,13.04,11.36,19.86c1.36,7.04-4.98,16.35-1.3,22.8c3.7,6.59,15.5,8.72,20.6,14.73c5,6.06,6.18,17.62,13.26,22.83
		c6.86,5.23,16.32,2.55,23.65,6.58c6.98,3.97,15.2,16.07,23.04,18.77c1.06,0.38,2.05,0.55,2.99,0.55c5.19,0,8.98-4.9,14.54-4.9
		c0.37,0,0.74,0.02,1.13,0.07c6.71,0.83,17.37,10.19,23.48,10.19c0.26,0,0.5-0.02,0.74-0.05c5.79-0.89,5.72-12.9,11.59-15.81
		c1.35-0.7,3-0.93,4.81-0.93c3.35,0,7.21,0.78,10.59,0.78c2.53,0,4.79-0.44,6.36-1.99c4.66-4.79,3.33-18.65,8.7-25.11
		c5.22-6.44,17.1-7.33,21.94-15.24c4.82-7.82,1.73-20.23,6.13-29c4.23-8.5,17.47-16.18,20.7-25.56c3.23-9.37-5.15-16.96-4.42-25.51
		c0.8-8.81,11.12-21.5,9.03-29.42c-2.18-8.01-15.74-8.68-20.49-15.15c-4.65-6.47-3.34-20.7-11.21-25.44
		c-2.32-1.4-5.12-1.84-8.13-1.84c-4.93,0-10.44,1.17-15.41,1.17c-2.09,0-4.08-0.21-5.89-0.79c-8.41-2.76-17.08-14.8-27.12-15.4
		C684.97,149.39,684.73,149.38,684.49,149.38L684.49,149.38z"/>
</g>
<g>
	<path class="st0" d="M829.9,369.44c-1.83-0.92-4.37-2.52-6.09-3.6c-4.27-2.69-8.31-5.23-11.73-5.78c-0.57-0.08-1.08-0.12-1.58-0.12
		c-4.05,0-6.49,2.45-7.95,3.91c-0.33,0.33-0.8,0.8-1.07,1c-0.09-0.02-0.22-0.07-0.41-0.15l-0.13-0.06
		c-3.21-1.26-8.24-5.88-12.67-9.96c-3.69-3.39-7.17-6.6-10.17-8.48l-0.1-0.06c-3.9-2.31-7.63-2.84-10.91-3.31
		c-3.4-0.49-6.08-0.87-8.92-3.01l-0.09-0.06c-3.65-2.62-6.51-7.64-9.27-12.5c-2.02-3.55-3.93-6.91-6.25-9.59
		c-3.1-3.44-7.16-5.6-11.07-7.69c-3.79-2.02-7.37-3.93-9.16-6.51c-1.7-2.38-1.37-5.89-0.99-9.94c0.34-3.62,0.69-7.37-0.37-11.04
		c-1.26-4.22-4.57-7.57-7.77-10.81c-2.52-2.55-5.37-5.44-5.58-7.42c-0.18-1.68,2.61-4.73,4.84-7.18c2.89-3.17,5.89-6.44,6.85-10.45
		c1.2-4.78-0.95-9.38-2.83-13.44c-1.17-2.51-2.62-5.63-2.1-6.9c0.72-1.7,5.77-4.09,9.12-5.66c4.74-2.24,9.65-4.56,12.47-8.12
		c3.5-4.26,3.1-9.69,2.77-14.04c-0.28-3.68-0.37-6.18,0.8-7.36c1.92-1.86,8.42-2.84,13.64-3.63c5.98-0.9,12.17-1.83,16.48-4.34
		c5.08-2.84,7.11-7.66,8.9-11.92c1.75-4.16,2.96-6.76,5.78-7.89c1.25-0.48,3.1-0.73,5.42-0.73c3.76,0,8.34,0.67,12.77,1.31
		c4.69,0.68,9.54,1.39,13.87,1.39c1.75,0,3.3-0.11,4.74-0.34c6.1-0.94,10.99-4.3,15.31-7.26c4.5-3.08,8.38-5.74,13.01-5.76
		c5.93,0,12.18,3.83,18.22,7.52c4.77,2.92,9.28,5.68,13.92,6.83c1.91,0.46,3.96,0.68,6.29,0.68c3.69,0,7.52-0.56,11.23-1.1
		c3.5-0.51,6.81-0.99,9.77-0.99c2.49,0,4.39,0.35,5.81,1.07c3.65,1.86,4.63,7.2,5.66,12.85c0.8,4.38,1.55,8.52,3.7,11.78
		c2.73,3.98,7.46,6.01,11.64,7.79c4.42,1.89,7.56,3.37,7.75,5.29c0.27,3.13-4.48,9.92-7.94,14.88s-6.74,9.64-8.23,14.02
		c-1.58,4.73-1.08,9.04-0.64,12.85c0.53,4.58,0.95,8.2-1.77,12.44c-2.93,4.57-8.65,9.07-14.18,13.42
		c-5.37,4.23-10.45,8.22-13.81,12.73c-3.84,5.09-5.8,10.9-7.7,16.52c-1.66,4.92-3.23,9.56-5.87,12.88
		c-2.74,3.49-6.69,5.41-10.87,7.44c-4.14,2.01-8.43,4.1-11.63,7.82c-4.03,4.53-5.54,11.28-6.86,17.23c-0.71,3.17-1.51,6.76-2.43,8.1
		c-0.11,0.1-0.56,0.22-1.45,0.22c-1.06,0-2.34-0.17-3.69-0.36c-1.57-0.21-3.19-0.43-4.81-0.43c-2.5,0-4.53,0.54-6.2,1.66
		c-4.19,2.7-4.76,8.08-5.21,12.42C830.06,368.07,829.99,368.78,829.9,369.44z"/>
	<path class="st1" d="M849.45,156.42c4.67,0.01,10.37,3.49,15.87,6.86c4.85,2.97,9.87,6.04,15.23,7.37
		c2.23,0.54,4.63,0.81,7.33,0.81c4.01,0,8.01-0.58,11.88-1.15c3.34-0.49,6.49-0.95,9.12-0.95c2.17,0,3.25,0.32,3.77,0.58
		c1.67,0.85,2.6,5.93,3.27,9.65c0.84,4.63,1.72,9.42,4.37,13.45l0.04,0.07l0.05,0.07c3.42,5,9.04,7.4,13.55,9.32
		c1.41,0.6,3.56,1.52,4.77,2.25c-1.04,2.83-4.9,8.37-6.88,11.2c-3.65,5.23-7.1,10.16-8.8,15.14l-0.01,0.03l-0.01,0.03
		c-1.89,5.65-1.31,10.71-0.83,14.77c0.53,4.58,0.69,6.72-1.09,9.49c-2.52,3.93-7.94,8.2-13.18,12.32
		c-5.37,4.22-10.92,8.59-14.61,13.54c-4.29,5.69-6.46,12.12-8.39,17.8c-1.53,4.53-2.98,8.81-5.13,11.51l-0.02,0.03l-0.02,0.03
		c-2.07,2.65-5.41,4.27-9.28,6.15c-4.33,2.1-9.23,4.48-13.03,8.88c-4.82,5.45-6.52,13.1-7.89,19.25c-0.31,1.4-0.72,3.24-1.12,4.67
		c-0.47-0.06-0.96-0.12-1.45-0.19c-1.63-0.22-3.49-0.47-5.42-0.47c-3.41,0-6.25,0.78-8.67,2.4c-4.12,2.67-5.76,6.89-6.54,10.79
		c-0.04-0.03-0.09-0.05-0.13-0.08c-4.68-2.94-9.09-5.72-13.42-6.41l-0.05-0.01l-0.05-0.01c-0.73-0.11-1.47-0.16-2.19-0.16
		c-4.65,0-7.83,2.18-9.8,3.94c-2.72-1.87-6.62-5.46-9.39-8.01c-3.84-3.54-7.48-6.88-10.83-8.98l-0.1-0.06l-0.1-0.06
		c-4.67-2.76-9.05-3.39-12.57-3.89c-3.33-0.48-5.02-0.77-6.85-2.15l-0.09-0.06l-0.09-0.06c-2.85-2.04-5.46-6.63-7.98-11.07
		c-2.04-3.58-4.15-7.29-6.75-10.31l-0.06-0.08l-0.07-0.07c-3.57-3.95-8.17-6.41-12.23-8.57c-3.15-1.68-6.41-3.42-7.58-5.1
		l-0.03-0.05l-0.03-0.05c-0.69-0.97-0.39-4.24-0.14-6.86c0.36-3.85,0.77-8.22-0.52-12.71l-0.01-0.04l-0.01-0.04
		c-1.57-5.25-5.45-9.17-8.87-12.64c-1.23-1.24-3.13-3.17-3.99-4.41c0.76-1.13,2.35-2.87,3.38-3.99c3.12-3.41,6.65-7.28,7.89-12.39
		c1.58-6.35-1.14-12.18-3.12-16.43c-0.46-0.99-1.08-2.32-1.46-3.33c1.59-1.04,4.45-2.39,6.31-3.27c5.19-2.45,10.55-4.98,14.02-9.33
		c4.65-5.71,4.15-12.37,3.78-17.24c-0.09-1.22-0.22-2.95-0.15-3.94c2.15-0.96,7.47-1.76,10.78-2.26c6.37-0.96,12.96-1.95,18.01-4.87
		c6.45-3.64,8.99-9.69,10.85-14.1c1.39-3.32,2.18-4.96,3.24-5.43c0.5-0.17,1.61-0.44,3.81-0.44c3.44,0,7.85,0.64,12.12,1.26
		c4.85,0.71,9.87,1.43,14.52,1.43c1.98,0,3.76-0.13,5.42-0.39c7.13-1.11,12.46-4.77,17.17-8
		C843.46,158.33,846.37,156.44,849.45,156.42 M849.43,147.42c-11.26,0.05-18.04,11.38-29.01,13.08c-1.25,0.2-2.6,0.29-4.02,0.29
		c-8.03,0-18.49-2.7-26.64-2.7c-2.67,0-5.09,0.29-7.1,1.06c-8.96,3.6-7.28,15.63-15.26,20.1c-7.75,4.51-25.46,3.26-31.06,8.69
		c-5.32,5.36,1,15.81-3.91,21.78c-4.66,5.91-19.6,8.67-22.21,14.86c-2.48,6.03,6.4,14.29,4.72,20.99
		c-1.56,6.48-12.5,12.5-11.8,19.16c0.7,6.66,11.52,12.38,13.5,19c1.97,6.83-2.54,15.95,1.98,22.3c4.5,6.49,15.12,8.6,20.52,14.58
		c5.2,6.02,9,17.57,16.3,22.81c6.95,5.24,13.42,2.56,20.25,6.6c6.35,3.98,16.72,16.12,23.59,18.82c0.88,0.38,1.64,0.54,2.31,0.54
		c3.7,0,4.68-4.94,8.9-4.93c0.28,0,0.57,0.02,0.88,0.07c5.19,0.83,15.86,10.16,20.3,10.16c0.19,0,0.37-0.02,0.53-0.05
		c3.65-0.9,1-12.86,5.61-15.77c1.02-0.69,2.3-0.92,3.73-0.92c2.66,0,5.79,0.79,8.5,0.79c2.03,0,3.83-0.44,5.02-1.98
		c3.51-4.76,3.34-18.64,9.13-25.14c5.57-6.48,16.33-7.38,22.62-15.4c6.31-7.92,6.88-20.52,13.66-29.5
		c6.5-8.7,21.95-16.71,28.18-26.42c6.23-9.72-0.08-17.42,2.88-26.26c3.12-9.11,17.1-22.57,16.4-30.81
		c-0.84-8.31-15.63-8.56-20.12-15.11c-4.32-6.55-1.97-21.52-11.08-26.16c-2.28-1.16-4.96-1.56-7.85-1.56
		c-6.59,0-14.3,2.09-20.99,2.09c-1.83,0-3.58-0.16-5.21-0.55C872.95,159.49,861.61,147.42,849.43,147.42L849.43,147.42z"/>
</g>
</svg>
