<svg xmlns="http://www.w3.org/2000/svg" width="533.171" height="56.874" viewBox="0 0 533.171 56.874">
  <path id="txtbird" d="M24.965-44.58v1.824q-1.621,3.364-2.472,5.248a7.985,7.985,0,0,0-.851,2.573q0,1.175,1.337,1.175l7.984-17.508A13.864,13.864,0,0,1,38.6-53.091a13.278,13.278,0,0,1,8.328,2.675,9.857,9.857,0,0,1,3.81,8.187A14.672,14.672,0,0,1,47.782-33.7a27.612,27.612,0,0,1-7.741,7.275,8.353,8.353,0,0,0-4.012-1.256,1.558,1.558,0,0,0-1.783,1.743A16.028,16.028,0,0,1,37.63-24.9a14.058,14.058,0,0,1,3.587,2.573L52-12.4Q50.821.729,38.866.729a12.649,12.649,0,0,1-7.579-2.27,17.089,17.089,0,0,1-5.836-8.024l-3.769-9.4h-.2q-1.337,0-1.337,1.135a13.916,13.916,0,0,0,1.135,3.526q1.135,3.04,3.4,8.105V-3.08Q20.426.729,12.32.729a13.674,13.674,0,0,1-7.5-1.986A6.784,6.784,0,0,1,1.3-7.376V-49.2q4.174-3.81,12.685-3.81a14.225,14.225,0,0,1,7.5,1.864A7.3,7.3,0,0,1,24.965-44.58ZM77.389-12.32q1.135,0,1.135-1.256a41.133,41.133,0,0,1-13.678-14.63,44.52,44.52,0,0,1-5.289-19.129,11.492,11.492,0,0,1,5.451-4.174,19.863,19.863,0,0,1,7.477-1.459A17.971,17.971,0,0,1,81.2-50.983q2.27,6.12,3.729,11.672l-1.986,8.754a4.419,4.419,0,0,0-.162,1.135q0,1.378,1.459,1.378.486-1.54,2.27-9.321.446-1.986,1.2-5.532t1.925-8.369a19.493,19.493,0,0,1,8.511-1.783q5.8,0,9.24,2.817t3.445,8.126a29.345,29.345,0,0,1-4.377,15.157,46.066,46.066,0,0,1-9.119,10.9V-2.675A22.154,22.154,0,0,1,91.29.061a23.15,23.15,0,0,1-5.633.669q-5.593,0-8.794-2.107a7.026,7.026,0,0,1-3.2-6.282v-7.133a19.2,19.2,0,0,0,1.864,1.6A3.4,3.4,0,0,0,77.389-12.32Zm69.73-15.644a28.047,28.047,0,0,0-.365-5.573q-.365-1.52-1.337-1.52a1.665,1.665,0,0,0-1.094.405q.081.729.243,1.945a50.509,50.509,0,0,1,.162,5.188v2.634q0,2.756-.122,4.012t-.2,2.148l-.081.973a1.665,1.665,0,0,0,1.094.405q.973,0,1.337-1.52a28.047,28.047,0,0,0,.365-5.573ZM145.5,1.3a29.415,29.415,0,0,1-13.232-2.979A23.222,23.222,0,0,1,122.56-10.8q-3.688-6.14-3.688-15.34,0-13.333,8.024-20.831,7.133-6.606,18.359-6.606,12.2,0,19.311,7.558t7.113,19.879q0,13.7-7.619,20.912Q157.129,1.3,145.5,1.3Zm58.909-30.112a2.032,2.032,0,0,0,.932.122,1.325,1.325,0,0,0,1.175-.608,3.7,3.7,0,0,0,.405-1.986v-1.459a4.619,4.619,0,0,0-.344-2.087,1.194,1.194,0,0,0-1.135-.628,2.412,2.412,0,0,0-1.074.162,4,4,0,0,1,.041.689Zm20.912,9.24L232.33-12.4q-.729,6.322-3.992,9.727t-9.017,3.4a13.591,13.591,0,0,1-7.538-2.067,15.526,15.526,0,0,1-6.12-8.268L204.2-13.577a34.086,34.086,0,0,1-4.3-.446,1.2,1.2,0,0,0-.324.892q0,1.094,3.283,1.3L205.177-6v3.445Q200.516.729,193.221.729a14.484,14.484,0,0,1-8.349-2.148,7.1,7.1,0,0,1-3.121-6.241v-38.5q0-1.783,3.283-3.465a32.883,32.883,0,0,1,8.592-2.715,55.452,55.452,0,0,1,10.618-1.033q12.158,0,19.007,4.985,7.214,5.228,7.214,14.711a14.538,14.538,0,0,1-3.06,9.3,15.817,15.817,0,0,1-7.72,5.37q0,1.3,1.56,1.3T225.319-19.575Zm42.617-8.389a28.047,28.047,0,0,0-.365-5.573q-.365-1.52-1.337-1.52a1.665,1.665,0,0,0-1.094.405q.081.729.243,1.945a50.514,50.514,0,0,1,.162,5.188v2.634q0,2.756-.122,4.012t-.2,2.148l-.081.973a1.665,1.665,0,0,0,1.094.405q.973,0,1.337-1.52a28.047,28.047,0,0,0,.365-5.573ZM266.315,1.3a29.415,29.415,0,0,1-13.232-2.979,23.223,23.223,0,0,1-9.706-9.119q-3.688-6.14-3.688-15.34,0-13.333,8.024-20.831,7.133-6.606,18.359-6.606,12.2,0,19.311,7.558T292.5-26.14q0,13.7-7.619,20.912Q277.946,1.3,266.315,1.3ZM328.831-16.13a1.348,1.348,0,0,0,.729-.2v-3.688a23.642,23.642,0,0,1,7.72-3.04,41.893,41.893,0,0,1,9.666-1.175,16.768,16.768,0,0,1,3.587,6.545,27.431,27.431,0,0,1,1.52,7.883,13.469,13.469,0,0,1-2.736,3.485,23.945,23.945,0,0,1-4.64,3.445,29.8,29.8,0,0,1-15.441,3.972q-12.482,0-19.656-7.254-7.417-7.335-7.417-20.324t8.105-20.406a23.624,23.624,0,0,1,8.308-5.005,29.6,29.6,0,0,1,9.97-1.682q10.213,0,16.738,4.944t6.525,12.2q0,5.471-3.364,8.085t-9.119,2.614a14.426,14.426,0,0,1-6.363-1.56q-3.2-1.56-3.81-2.938,0-3.323.122-5.228a.7.7,0,0,0-.284-.041h-.284a1.287,1.287,0,0,0-.952.344,3.23,3.23,0,0,0-.608,1.439,37.348,37.348,0,0,0-.263,5.958Q326.885-16.13,328.831-16.13Zm82.9-26.829V-2.675Q407.193.729,400.1.729q-5.471,0-8.673-2.229a7.433,7.433,0,0,1-3.364-6.565v-8.024h2.877a3.273,3.273,0,0,0,2.087-.426,1.924,1.924,0,0,0,.426-1.4H380.728a2.142,2.142,0,0,0,.365,1.4q.365.426,1.743.426h3.08V-2.675A19.669,19.669,0,0,1,380,.041a23.8,23.8,0,0,1-5.714.689q-5.471,0-8.673-2.229a7.433,7.433,0,0,1-3.364-6.565V-48.39a13.956,13.956,0,0,1,5.208-3.425,17.812,17.812,0,0,1,6.464-1.2,13.92,13.92,0,0,1,8.308,2.432,8.982,8.982,0,0,1,3.688,7.619v7.214h5.147a2.04,2.04,0,0,0-.385-1.439,1.694,1.694,0,0,0-1.236-.385h-1.378V-48.39a13.956,13.956,0,0,1,5.208-3.425,17.812,17.812,0,0,1,6.464-1.2,13.92,13.92,0,0,1,8.308,2.432A8.982,8.982,0,0,1,411.732-42.959Zm35.646,16.333a1.383,1.383,0,0,0,1.013.324,2.3,2.3,0,0,0,1.175-.284q-1.054-6.16-1.418-7.295-.446-1.175-1.337-1.175a2.552,2.552,0,0,0-.973.243Zm-8.024,12.158a1.852,1.852,0,0,0-.405,1.054q0,1.175,2.209,1.966a19.834,19.834,0,0,0,5.37.993q.527,5.836,1.135,6.646-.77,1.5-4.255,3.019a19.481,19.481,0,0,1-7.862,1.52,18.878,18.878,0,0,1-9.929-2.492q-4.134-2.492-4.134-6.424a7.723,7.723,0,0,1,.2-1.864l8.632-38.582a27.029,27.029,0,0,1,7.741-3.242,36.886,36.886,0,0,1,9.362-1.175A27.562,27.562,0,0,1,459.334-50.7q5.633,2.675,6.849,7.741l9.24,38.217Q471.208.729,461.684.729a16.822,16.822,0,0,1-7.822-1.662,6.468,6.468,0,0,1-3.729-4.742l-.892-4.944a13.365,13.365,0,0,0,4.7-.932q2.27-.892,2.27-1.864a1.269,1.269,0,0,0-.527-1.054,11.229,11.229,0,0,1-3.769,1.662,16.831,16.831,0,0,1-4.134.567Q442.312-12.239,439.354-14.468ZM484.564-7.5V-48.106q0-2.107,3.384-3.506a20.768,20.768,0,0,1,7.964-1.4,18.39,18.39,0,0,1,4.884.628,9.761,9.761,0,0,1,3.506,1.6,49.764,49.764,0,0,1,3.04,4.3q1.378,2.188,6.2,10.213a1.289,1.289,0,0,0,.811-.284,1.035,1.035,0,0,0,.365-.871,6.125,6.125,0,0,0-1.013-2.29l-4.377-7.538v-2.229a14.8,14.8,0,0,1,5.025-2.634,20.243,20.243,0,0,1,6.12-.932,16.24,16.24,0,0,1,8.308,1.864,7.56,7.56,0,0,1,3.688,6.971V-5.836A5.277,5.277,0,0,1,529.145-.77,17.074,17.074,0,0,1,521.566.648a23.024,23.024,0,0,1-5.127-.567,12.767,12.767,0,0,1-3.911-1.459,93.422,93.422,0,0,1-5.714-8.268l-4.134-6.89a1.176,1.176,0,0,0-1.175,1.256,6.9,6.9,0,0,0,1.175,2.634l5.066,8.187V-2.31a19.1,19.1,0,0,1-10.6,3.04q-5.9,0-9.24-2.148A6.825,6.825,0,0,1,484.564-7.5Z" transform="translate(-0.297 54.577)" fill="none" stroke="#042a2b" stroke-width="2"/>
</svg>
