<svg xmlns="http://www.w3.org/2000/svg" width="209.568" height="55.82" viewBox="0 0 209.568 55.82">
  <path id="txtmike" d="M45.877.729q-5.552,0-8.713-1.824a6.577,6.577,0,0,1-3.688-5.39l-.365-3.81a10.548,10.548,0,0,0,6.282-4.62,3.5,3.5,0,0,0,.689-1.824.931.931,0,0,0-1.054-1.054h-.122a.235.235,0,0,1-.162.041q-2.837,5.958-9.2,5.958a10.3,10.3,0,0,1-5.532-1.418,12.8,12.8,0,0,1-4.195-4.9h-.243q-1.094,0-1.094.932a2.907,2.907,0,0,0,.486,1.459,12.523,12.523,0,0,0,4.053,4.255,8.87,8.87,0,0,0,4.012,1.54l-.324,7.66A17.567,17.567,0,0,1,21.581.02a31.781,31.781,0,0,1-7.66.709A19.535,19.535,0,0,1,5.066-1.216Q.284-3.607.284-7.862q0-5.309,2.107-26.221,1.135-10.9,1.824-15.238,4.174-3.729,12.32-3.729a19.807,19.807,0,0,1,9.808,2.188L28.572-43.4l-1.418,5.958a4.555,4.555,0,0,0-.162,1.175q0,1.418,1.621,1.459l3.85-16.008a19.108,19.108,0,0,1,4.336-1.56,24.033,24.033,0,0,1,5.836-.669q5.917,0,8.774,2.006T54.793-44.3q.122.892.365,2.958Q58.846-9.646,58.846-4.012,54.347.729,45.877.729ZM92.385-44.945V-3.08A15.2,15.2,0,0,1,87.4-.365,23.036,23.036,0,0,1,79.821.729a13.829,13.829,0,0,1-7.579-1.986,6.752,6.752,0,0,1-3.526-6.079V-49.2A15.2,15.2,0,0,1,73.7-51.916a22.893,22.893,0,0,1,7.538-1.094,14.607,14.607,0,0,1,7.66,1.945A6.919,6.919,0,0,1,92.385-44.945Zm34.552.365v1.824q-1.621,3.364-2.472,5.248a7.985,7.985,0,0,0-.851,2.573q0,1.175,1.337,1.175l7.984-17.508a13.864,13.864,0,0,1,7.639-1.824,13.278,13.278,0,0,1,8.328,2.675,9.857,9.857,0,0,1,3.81,8.187,14.672,14.672,0,0,1-2.958,8.531,27.612,27.612,0,0,1-7.741,7.275A8.353,8.353,0,0,0,138-27.68a1.558,1.558,0,0,0-1.783,1.743A16.027,16.027,0,0,1,139.6-24.9a14.058,14.058,0,0,1,3.587,2.573l10.78,9.929Q152.793.729,140.837.729a12.649,12.649,0,0,1-7.579-2.27,17.089,17.089,0,0,1-5.836-8.024l-3.769-9.4h-.2q-1.337,0-1.337,1.135a13.916,13.916,0,0,0,1.135,3.526q1.135,3.04,3.4,8.105V-3.08Q122.4.729,114.292.729a13.674,13.674,0,0,1-7.5-1.986,6.784,6.784,0,0,1-3.526-6.12V-49.2q4.174-3.81,12.685-3.81a14.225,14.225,0,0,1,7.5,1.864A7.3,7.3,0,0,1,126.937-44.58Zm54.654-7.7h23.384a15.212,15.212,0,0,1,1.743,4.235,17.289,17.289,0,0,1,.567,4.114q0,4.093-1.6,6.16a5.341,5.341,0,0,1-4.478,2.067H184.873q-1.5,0-1.5,1.175v.324a.469.469,0,0,0,.081.324h19.372a13.5,13.5,0,0,1,1.256,3.161,16.3,16.3,0,0,1,.486,3.688,13.644,13.644,0,0,1-1.783,7.538h-8.794a48.178,48.178,0,0,0-8.349.466,11.216,11.216,0,0,0-2.715.79,1.1,1.1,0,0,0-.527.932.991.991,0,0,0,.567.892,23.335,23.335,0,0,1,4.417-.973q3.04-.284,6.606-.284H205.38a14.123,14.123,0,0,1,2.472,8.389,19.837,19.837,0,0,1-.689,5.269A9.9,9.9,0,0,1,205.1.041H174.741a12.532,12.532,0,0,1-8.065-2.432q-3.323-2.594-3.323-7.619V-48.552q0-1.945,4.458-2.837A76.966,76.966,0,0,1,181.59-52.28Z" transform="translate(0.716 54.091)" fill="none" stroke="#5eb1bf" stroke-width="2"/>
</svg>
